
<svg xmlns="http://www.w3.org/2000/svg" version="1.1" viewBox="0 0 50 50">
  <defs>
    <style>
      .cls-1 {
        fill: none;
        stroke-linecap: round;
        stroke-miterlimit: 10;
        stroke-width: .4px;
      }
    </style>
  </defs>

  <g>
    <g id="stitch-3">
      <path class="cls-1" d="M25.34616,20.47245c.59527.13278.98925.60488.98925,1.24365,0,.67322-.5269,2.30536-.58648,2.48943-.05449.16638-.22246.26326-.3899.23342M25.28354,23.45914c.17934-.596.35994-1.37327.35994-1.74304,0-.29561-.14236-.44246-.29732-.51732M24.65346,21.19903c-.1546.07493-.29653.22181-.29653.51708,0,.14332.03577.36295.09003.61291M24.65346,20.47252c-.59496.13285-.98884.60486-.98884,1.24358,0,.67322.52654,2.30536.58648,2.48943.05953.18176.25447.28059.43664.22183.1813-.05953.28093-.25491.2214-.43703-.0635-.1932-.15452-.38624-.25568-.75032M24.99984,21.74607c.19144,0,.34634-.1553.34634-.34598v-.96904c0-.19144-.1549-.34594-.34634-.34594-.19073,0-.34638.1545-.34638.34594v.96904c0,.19068.15565.34598.34638.34598ZM20.01883,23.84c.31023-.52511.88097-.75392,1.48848-.55653.64027.20804,2.0297,1.21351,2.18636,1.32706.1414.10323.18163.29292.10151.44295M22.83999,24.8225c-.51141-.35474-1.19483-.76669-1.5465-.88096-.28114-.09135-.46479-.00133-.58388.12291M20.49579,24.72333c.02349.17019.11932.35056.40014.4418.13631.04429.35624.07814.61073.10378M19.80484,24.49883c-.05751.60689.26968,1.12736.87715,1.32473.64027.20804,2.35523.21162,2.54882.2115.19126-.00045.3455-.15531.3459-.34672-.00059-.19082-.15562-.34595-.34722-.34561-.20336.00069-.41508.0276-.79261.0113M21.12309,24.56295c.05916-.18207-.04067-.37737-.22202-.4363l-.92161-.29945c-.18207-.05916-.37687.04042-.43603.22248-.05894.18139.0399.37717.22197.43633l.92161.29945c.18135.05892.37715-.04112.43608-.22251ZM21.57533,29.94723c-.40354-.45731-.44478-1.07083-.06932-1.58761.39571-.54465,1.78133-1.55537,1.93773-1.66927.14188-.10258.33471-.08222.45264.04034M23.38152,27.56775c-.49541.37675-1.09839.89943-1.31573,1.19858-.17375.23915-.1449.44163-.06353.59328M22.56281,29.76658c.16912.03025.37027-.00515.54383-.24403.08424-.11595.1844-.31466.28742-.54877M22.13578,30.35433c.55942.24223,1.15552.09189,1.53095-.42485.39571-.54465.92907-2.17457.98878-2.35872.05867-.18204-.04094-.37658-.22286-.43612-.18167-.0584-.37711.0411-.43599.22343-.06219.19362-.10202.4033-.23418.75731M22.60412,29.12041c-.15488-.11252-.37147-.07793-.48355.07633l-.56959.78397c-.11253.15488-.07802.37092.07685.48344.1543.11211.37104.0786.48357-.07627l.56959-.78397c.11208-.15427.07743-.37139-.07687-.4835ZM27.86462,30.35415c-.55963.24247-1.15586.09211-1.53133-.42467-.39571-.54465-.92878-2.17478-.98878-2.35872-.05372-.16663.02523-.34374.17824-.41802M26.15975,27.90105c.20522.58759.51599,1.32257.73333,1.62172.17375.23915.37524.27428.54461.24376M27.99796,29.35917c.08103-.15149.10952-.35374-.06404-.59262-.08424-.11595-.24228-.27261-.43309-.44294M28.42499,29.94693c.40324-.45718.44447-1.07057.06903-1.58731-.39571-.54465-1.78104-1.55558-1.93773-1.66927-.155-.11205-.3708-.07743-.48364.07718-.11168.15473-.07745.37135.07776.4837.16493.11898.35203.22165.64788.45674M27.39619,29.1202c-.15488.11252-.18891.32921-.07683.48347l.56959.78397c.11253.15488.32865.18882.48353.0763.1543-.11211.18942-.32859.07689-.48347l-.56959-.78397c-.11208-.15427-.32929-.18841-.48359-.07631ZM30.19513,24.49841c.05767.60717-.26958,1.12776-.87709,1.32515-.64027.20804-2.35535.21128-2.54882.2115-.17507-.00041-.31912-.13022-.34248-.29869M27.33526,25.3618c.62225-.01361,1.41728-.08204,1.76896-.1963.28114-.09135.37681-.27212.40012-.44263M29.29006,24.06414c-.11904-.12388-.30258-.21347-.5834-.12223-.13631.04429-.33413.14618-.55509.27502M29.981,23.83963c-.3102-.52479-.88082-.75354-1.48829-.55616-.64027.20804-2.02981,1.21317-2.18636,1.32706-.15447.11278-.18822.32872-.07605.48382.11264.15403.32924.18841.48405.07551.16412-.12009.31959-.26631.63459-.47503M28.87682,24.56261c.05916.18207.25472.2814.43607.22247l.92161-.29945c.18207-.05916.28114-.25422.22198-.43629-.05894-.18139-.25397-.28168-.43604-.22253l-.92161.29945c-.18135.05892-.28095.25495-.22201.43634ZM25.34616,3.00343c.59527.13278.98925.60488.98925,1.24365,0,.67322-.5269,2.30536-.58648,2.48943-.05449.16638-.22246.26326-.3899.23342M25.28354,5.99012c.17934-.596.35994-1.37327.35994-1.74304,0-.29561-.14236-.44246-.29732-.51732M24.65346,3.73c-.1546.07493-.29653.22181-.29653.51708,0,.14332.03577.36295.09003.61291M24.65346,3.0035c-.59496.13285-.98884.60486-.98884,1.24358,0,.67322.52654,2.30536.58648,2.48943.05953.18176.25447.28059.43664.22183.1813-.05953.28093-.25491.2214-.43703-.0635-.1932-.15452-.38624-.25568-.75032M24.99984,4.27704c.19144,0,.34634-.1553.34634-.34598v-.96904c0-.19144-.1549-.34594-.34634-.34594-.19073,0-.34638.1545-.34638.34594v.96904c0,.19068.15565.34598.34638.34598ZM20.01883,6.37098c.31023-.52511.88097-.75392,1.48848-.55653.64027.20804,2.0297,1.21351,2.18636,1.32706.1414.10323.18163.29292.10151.44295M22.83999,7.35347c-.51141-.35474-1.19483-.76669-1.5465-.88096-.28114-.09135-.46479-.00133-.58388.12291M20.49579,7.2543c.02349.17019.11932.35056.40014.4418.13631.04429.35624.07814.61073.10378M19.80484,7.0298c-.05751.60689.26968,1.12736.87715,1.32473.64027.20804,2.35523.21162,2.54882.2115.19126-.00045.3455-.15531.3459-.34672-.00059-.19082-.15562-.34595-.34722-.34561-.20336.00069-.41508.0276-.79261.0113M21.12309,7.09392c.05916-.18207-.04067-.37737-.22202-.4363l-.92161-.29945c-.18207-.05916-.37687.04042-.43603.22248-.05894.18139.0399.37717.22197.43633l.92161.29945c.18135.05892.37715-.04112.43608-.22251ZM21.57533,12.4782c-.40354-.45731-.44478-1.07083-.06932-1.58761.39571-.54465,1.78133-1.55537,1.93773-1.66927.14188-.10258.33471-.08222.45264.04034M23.38152,10.09872c-.49541.37675-1.09839.89943-1.31573,1.19858-.17375.23915-.1449.44163-.06353.59328M22.56281,12.29755c.16912.03025.37027-.00515.54383-.24403.08424-.11595.1844-.31466.28742-.54877M22.13578,12.8853c.55942.24223,1.15552.09189,1.53095-.42485.39571-.54465.92907-2.17457.98878-2.35872.05867-.18204-.04094-.37658-.22286-.43612-.18167-.0584-.37711.0411-.43599.22343-.06219.19362-.10202.4033-.23418.75731M22.60412,11.65139c-.15488-.11252-.37147-.07793-.48355.07633l-.56959.78397c-.11253.15488-.07802.37092.07685.48344.1543.11211.37104.0786.48357-.07627l.56959-.78397c.11208-.15427.07743-.37139-.07687-.4835ZM27.86462,12.88512c-.55963.24247-1.15586.09211-1.53133-.42467-.39571-.54465-.92878-2.17478-.98878-2.35872-.05372-.16663.02523-.34374.17824-.41802M26.15975,10.43203c.20522.58759.51599,1.32257.73333,1.62172.17375.23915.37524.27428.54461.24376M27.99796,11.89015c.08103-.15149.10952-.35374-.06404-.59262-.08424-.11595-.24228-.27261-.43309-.44294M28.42499,12.4779c.40324-.45718.44447-1.07057.06903-1.58731-.39571-.54465-1.78104-1.55558-1.93773-1.66927-.155-.11205-.3708-.07743-.48364.07718-.11168.15473-.07745.37135.07776.4837.16493.11898.35203.22165.64788.45674M27.39619,11.65118c-.15488.11252-.18891.32921-.07683.48347l.56959.78397c.11253.15488.32865.18882.48353.0763.1543-.11211.18942-.32859.07689-.48347l-.56959-.78397c-.11208-.15427-.32929-.18841-.48359-.07631ZM30.19513,7.02939c.05767.60717-.26958,1.12776-.87709,1.32515-.64027.20804-2.35535.21128-2.54882.2115-.17507-.00041-.31912-.13022-.34248-.29869M27.33526,7.89277c.62225-.01361,1.41728-.08204,1.76896-.1963.28114-.09135.37681-.27212.40012-.44263M29.29006,6.59511c-.11904-.12388-.30258-.21347-.5834-.12223-.13631.04429-.33413.14618-.55509.27502M29.981,6.37061c-.3102-.52479-.88082-.75354-1.48829-.55616-.64027.20804-2.02981,1.21317-2.18636,1.32706-.15447.11278-.18822.32872-.07605.48382.11264.15403.32924.18841.48405.07551.16412-.12009.31959-.26631.63459-.47503M28.87682,7.09358c.05916.18207.25472.2814.43607.22247l.92161-.29945c.18207-.05916.28114-.25422.22198-.43629-.05894-.18139-.25397-.28168-.43604-.22253l-.92161.29945c-.18135.05892-.28095.25495-.22201.43634ZM31.4573,37.32602c.59527.13278.98925.60488.98925,1.24365,0,.67322-.5269,2.30536-.58648,2.48943-.05449.16638-.22246.26326-.3899.23342M31.39468,40.31271c.17934-.596.35994-1.37327.35994-1.74304,0-.29561-.14236-.44246-.29732-.51732M30.76459,38.0526c-.1546.07493-.29653.22181-.29653.51708,0,.14332.03577.36295.09003.61291M30.76459,37.3261c-.59496.13285-.98884.60486-.98884,1.24358,0,.67322.52654,2.30536.58648,2.48943.05953.18176.25447.28059.43664.22183.1813-.05953.28093-.25491.2214-.43703-.0635-.1932-.15452-.38624-.25568-.75032M31.11097,38.59964c.19144,0,.34634-.1553.34634-.34598v-.96904c0-.19144-.1549-.34594-.34634-.34594-.19073,0-.34638.1545-.34638.34594v.96904c0,.19068.15565.34598.34638.34598ZM26.12997,40.69357c.31023-.52511.88097-.75392,1.48848-.55653.64027.20804,2.0297,1.21351,2.18636,1.32706.1414.10323.18163.29292.10151.44295M28.95113,41.67607c-.51141-.35474-1.19483-.76669-1.5465-.88096-.28114-.09135-.46479-.00133-.58388.12291M26.60692,41.5769c.02349.17019.11932.35056.40014.4418.13631.04429.35624.07814.61073.10378M25.91598,41.3524c-.05751.60689.26968,1.12736.87715,1.32473.64027.20804,2.35523.21162,2.54882.2115.19126-.00045.3455-.15531.3459-.34672-.00059-.19082-.15562-.34595-.34722-.34561-.20336.00069-.41508.0276-.79261.0113M27.23423,41.41652c.05916-.18207-.04067-.37737-.22202-.4363l-.92161-.29945c-.18207-.05916-.37687.04042-.43603.22248-.05894.18139.0399.37717.22197.43633l.92161.29945c.18135.05892.37715-.04112.43608-.22251ZM27.68646,46.8008c-.40354-.45731-.44478-1.07083-.06932-1.58761.39571-.54465,1.78133-1.55537,1.93773-1.66927.14188-.10258.33471-.08222.45264.04034M29.49266,44.42132c-.49541.37675-1.09839.89943-1.31573,1.19858-.17375.23915-.1449.44163-.06353.59328M28.67394,46.62015c.16912.03025.37027-.00515.54383-.24403.08424-.11595.1844-.31466.28742-.54877M28.24692,47.2079c.55942.24223,1.15552.09189,1.53095-.42485.39571-.54465.92907-2.17457.98878-2.35872.05867-.18204-.04094-.37658-.22286-.43612-.18167-.0584-.37711.0411-.43599.22343-.06219.19362-.10202.4033-.23418.75731M28.71526,45.97398c-.15488-.11252-.37147-.07793-.48355.07633l-.56959.78397c-.11253.15488-.07802.37092.07685.48344.1543.11211.37104.0786.48357-.07627l.56959-.78397c.11208-.15427.07743-.37139-.07687-.4835ZM33.97576,47.20772c-.55963.24247-1.15586.09211-1.53133-.42467-.39571-.54465-.92878-2.17478-.98878-2.35872-.05372-.16663.02523-.34374.17824-.41802M32.27089,44.75463c.20522.58759.51599,1.32257.73333,1.62172.17375.23915.37524.27428.54461.24376M34.1091,46.21274c.08103-.15149.10952-.35374-.06404-.59262-.08424-.11595-.24228-.27261-.43309-.44294M34.53613,46.8005c.40324-.45718.44447-1.07057.06903-1.58731-.39571-.54465-1.78104-1.55558-1.93773-1.66927-.155-.11205-.3708-.07743-.48364.07718-.11168.15473-.07745.37135.07776.4837.16493.11898.35203.22165.64788.45674M33.50733,45.97377c-.15488.11252-.18891.32921-.07683.48347l.56959.78397c.11253.15488.32865.18882.48353.0763.1543-.11211.18942-.32859.07689-.48347l-.56959-.78397c-.11208-.15427-.32929-.18841-.48359-.07631ZM36.30627,41.35198c.05767.60717-.26958,1.12776-.87709,1.32515-.64027.20804-2.35535.21128-2.54882.2115-.17507-.00041-.31912-.13022-.34248-.29869M33.4464,42.21537c.62225-.01361,1.41728-.08204,1.76896-.1963.28114-.09135.37681-.27212.40012-.44263M35.40119,40.91771c-.11904-.12388-.30258-.21347-.5834-.12223-.13631.04429-.33413.14618-.55509.27502M36.09214,40.69321c-.3102-.52479-.88082-.75354-1.48829-.55616-.64027.20804-2.02981,1.21317-2.18636,1.32706-.15447.11278-.18822.32872-.07605.48382.11264.15403.32924.18841.48405.07551.16412-.12009.31959-.26631.63459-.47503M34.98796,41.41618c.05916.18207.25472.2814.43607.22247l.92161-.29945c.18207-.05916.28114-.25422.22198-.43629-.05894-.18139-.25397-.28168-.43604-.22253l-.92161.29945c-.18135.05892-.28095.25495-.22201.43634ZM18.83914,37.32602c.59527.13278.98925.60488.98925,1.24365,0,.67322-.5269,2.30536-.58648,2.48943-.05449.16638-.22246.26326-.3899.23342M18.77652,40.31271c.17934-.596.35994-1.37327.35994-1.74304,0-.29561-.14236-.44246-.29732-.51732M18.14643,38.0526c-.1546.07493-.29653.22181-.29653.51708,0,.14332.03577.36295.09003.61291M18.14643,37.3261c-.59496.13285-.98884.60486-.98884,1.24358,0,.67322.52654,2.30536.58648,2.48943.05953.18176.25447.28059.43664.22183.1813-.05953.28093-.25491.2214-.43703-.0635-.1932-.15452-.38624-.25568-.75032M18.49281,38.59964c.19144,0,.34634-.1553.34634-.34598v-.96904c0-.19144-.1549-.34594-.34634-.34594-.19073,0-.34638.1545-.34638.34594v.96904c0,.19068.15565.34598.34638.34598ZM13.51181,40.69357c.31023-.52511.88097-.75392,1.48848-.55653.64027.20804,2.0297,1.21351,2.18636,1.32706.1414.10323.18163.29292.10151.44295M16.33297,41.67607c-.51141-.35474-1.19483-.76669-1.5465-.88096-.28114-.09135-.46479-.00133-.58388.12291M13.98877,41.5769c.02349.17019.11932.35056.40014.4418.13631.04429.35624.07814.61073.10378M13.29782,41.3524c-.05751.60689.26968,1.12736.87715,1.32473.64027.20804,2.35523.21162,2.54882.2115.19126-.00045.3455-.15531.3459-.34672-.00059-.19082-.15562-.34595-.34722-.34561-.20336.00069-.41508.0276-.79261.0113M14.61607,41.41652c.05916-.18207-.04067-.37737-.22202-.4363l-.92161-.29945c-.18207-.05916-.37687.04042-.43603.22248-.05894.18139.0399.37717.22197.43633l.92161.29945c.18135.05892.37715-.04112.43608-.22251ZM15.0683,46.8008c-.40354-.45731-.44478-1.07083-.06932-1.58761.39571-.54465,1.78133-1.55537,1.93773-1.66927.14188-.10258.33471-.08222.45264.04034M16.8745,44.42132c-.49541.37675-1.09839.89943-1.31573,1.19858-.17375.23915-.1449.44163-.06353.59328M16.05578,46.62015c.16912.03025.37027-.00515.54383-.24403.08424-.11595.1844-.31466.28742-.54877M15.62876,47.2079c.55942.24223,1.15552.09189,1.53095-.42485.39571-.54465.92907-2.17457.98878-2.35872.05867-.18204-.04094-.37658-.22286-.43612-.18167-.0584-.37711.0411-.43599.22343-.06219.19362-.10202.4033-.23418.75731M16.0971,45.97398c-.15488-.11252-.37147-.07793-.48355.07633l-.56959.78397c-.11253.15488-.07802.37092.07685.48344.1543.11211.37104.0786.48357-.07627l.56959-.78397c.11208-.15427.07743-.37139-.07687-.4835ZM21.3576,47.20772c-.55963.24247-1.15586.09211-1.53133-.42467-.39571-.54465-.92878-2.17478-.98878-2.35872-.05372-.16663.02523-.34374.17824-.41802M19.65273,44.75463c.20522.58759.51599,1.32257.73333,1.62172.17375.23915.37524.27428.54461.24376M21.49094,46.21274c.08103-.15149.10952-.35374-.06404-.59262-.08424-.11595-.24228-.27261-.43309-.44294M21.91797,46.8005c.40324-.45718.44447-1.07057.06903-1.58731-.39571-.54465-1.78104-1.55558-1.93773-1.66927-.155-.11205-.3708-.07743-.48364.07718-.11168.15473-.07745.37135.07776.4837.16493.11898.35203.22165.64788.45674M20.88917,45.97377c-.15488.11252-.18891.32921-.07683.48347l.56959.78397c.11253.15488.32865.18882.48353.0763.1543-.11211.18942-.32859.07689-.48347l-.56959-.78397c-.11208-.15427-.32929-.18841-.48359-.07631ZM23.68811,41.35198c.05767.60717-.26958,1.12776-.87709,1.32515-.64027.20804-2.35535.21128-2.54882.2115-.17507-.00041-.31912-.13022-.34248-.29869M20.82824,42.21537c.62225-.01361,1.41728-.08204,1.76896-.1963.28114-.09135.37681-.27212.40012-.44263M22.78303,40.91771c-.11904-.12388-.30258-.21347-.5834-.12223-.13631.04429-.33413.14618-.55509.27502M23.47398,40.69321c-.3102-.52479-.88082-.75354-1.48829-.55616-.64027.20804-2.02981,1.21317-2.18636,1.32706-.15447.11278-.18822.32872-.07605.48382.11264.15403.32924.18841.48405.07551.16412-.12009.31959-.26631.63459-.47503M22.3698,41.41618c.05916.18207.25472.2814.43607.22247l.92161-.29945c.18207-.05916.28114-.25422.22198-.43629-.05894-.18139-.25397-.28168-.43604-.22253l-.92161.29945c-.18135.05892-.28095.25495-.22201.43634ZM9.0593,29.75919c.59527.13278.98925.60488.98925,1.24365,0,.67322-.5269,2.30536-.58648,2.48943-.05449.16638-.22246.26326-.3899.23342M8.99668,32.74588c.17934-.596.35994-1.37327.35994-1.74304,0-.29561-.14236-.44246-.29732-.51732M8.3666,30.48577c-.1546.07493-.29653.22181-.29653.51708,0,.14332.03577.36295.09003.61291M8.3666,29.75926c-.59496.13285-.98884.60486-.98884,1.24358,0,.67322.52654,2.30536.58648,2.48943.05953.18176.25447.28059.43664.22183.1813-.05953.28093-.25491.2214-.43703-.0635-.1932-.15452-.38624-.25568-.75032M8.71298,31.03281c.19144,0,.34634-.1553.34634-.34598v-.96904c0-.19144-.1549-.34594-.34634-.34594-.19073,0-.34638.1545-.34638.34594v.96904c0,.19068.15565.34598.34638.34598ZM3.73197,33.12674c.31023-.52511.88097-.75392,1.48848-.55653.64027.20804,2.0297,1.21351,2.18636,1.32706.1414.10323.18163.29292.10151.44295M6.55313,34.10924c-.51141-.35474-1.19483-.76669-1.5465-.88096-.28114-.09135-.46479-.00133-.58388.12291M4.20893,34.01007c.02349.17019.11932.35056.40014.4418.13631.04429.35624.07814.61073.10378M3.51798,33.78556c-.05751.60689.26968,1.12736.87715,1.32473.64027.20804,2.35523.21162,2.54882.2115.19126-.00045.3455-.15531.3459-.34672-.00059-.19082-.15562-.34595-.34722-.34561-.20336.00069-.41508.0276-.79261.0113M4.83623,33.84969c.05916-.18207-.04067-.37737-.22202-.4363l-.92161-.29945c-.18207-.05916-.37687.04042-.43603.22248-.05894.18139.0399.37717.22197.43633l.92161.29945c.18135.05892.37715-.04112.43608-.22251ZM5.28847,39.23396c-.40354-.45731-.44478-1.07083-.06932-1.58761.39571-.54465,1.78133-1.55537,1.93773-1.66927.14188-.10258.33471-.08222.45264.04034M7.09466,36.85449c-.49541.37675-1.09839.89943-1.31573,1.19858-.17375.23915-.1449.44163-.06353.59328M6.27595,39.05331c.16912.03025.37027-.00515.54383-.24403.08424-.11595.1844-.31466.28742-.54877M5.84892,39.64107c.55942.24223,1.15552.09189,1.53095-.42485.39571-.54465.92907-2.17457.98878-2.35872.05867-.18204-.04094-.37658-.22286-.43612-.18167-.0584-.37711.0411-.43599.22343-.06219.19362-.10202.4033-.23418.75731M6.31726,38.40715c-.15488-.11252-.37147-.07793-.48355.07633l-.56959.78397c-.11253.15488-.07802.37092.07685.48344.1543.11211.37104.0786.48357-.07627l.56959-.78397c.11208-.15427.07743-.37139-.07687-.4835ZM11.57776,39.64088c-.55963.24247-1.15586.09211-1.53133-.42467-.39571-.54465-.92878-2.17478-.98878-2.35872-.05372-.16663.02523-.34374.17824-.41802M9.87289,37.18779c.20522.58759.51599,1.32257.73333,1.62172.17375.23915.37524.27428.54461.24376M11.7111,38.64591c.08103-.15149.10952-.35374-.06404-.59262-.08424-.11595-.24228-.27261-.43309-.44294M12.13813,39.23366c.40324-.45718.44447-1.07057.06903-1.58731-.39571-.54465-1.78104-1.55558-1.93773-1.66927-.155-.11205-.3708-.07743-.48364.07718-.11168.15473-.07745.37135.07776.4837.16493.11898.35203.22165.64788.45674M11.10933,38.40694c-.15488.11252-.18891.32921-.07683.48347l.56959.78397c.11253.15488.32865.18882.48353.0763.1543-.11211.18942-.32859.07689-.48347l-.56959-.78397c-.11208-.15427-.32929-.18841-.48359-.07631ZM13.90827,33.78515c.05767.60717-.26958,1.12776-.87709,1.32515-.64027.20804-2.35535.21128-2.54882.2115-.17507-.00041-.31912-.13022-.34248-.29869M11.04841,34.64853c.62225-.01361,1.41728-.08204,1.76896-.1963.28114-.09135.37681-.27212.40012-.44263M13.0032,33.35087c-.11904-.12388-.30258-.21347-.5834-.12223-.13631.04429-.33413.14618-.55509.27502M13.69414,33.12637c-.3102-.52479-.88082-.75354-1.48829-.55616-.64027.20804-2.02981,1.21317-2.18636,1.32706-.15447.11278-.18822.32872-.07605.48382.11264.15403.32924.18841.48405.07551.16412-.12009.31959-.26631.63459-.47503M12.58997,33.84935c.05916.18207.25472.2814.43607.22247l.92161-.29945c.18207-.05916.28114-.25422.22198-.43629-.05894-.18139-.25397-.28168-.43604-.22253l-.92161.29945c-.18135.05892-.28095.25495-.22201.43634ZM6.81976,18.17395c.59527.13278.98925.60488.98925,1.24365,0,.67322-.5269,2.30536-.58648,2.48943-.05449.16638-.22246.26326-.3899.23342M6.75714,21.16064c.17934-.596.35994-1.37327.35994-1.74304,0-.29561-.14236-.44246-.29732-.51732M6.12706,18.90052c-.1546.07493-.29653.22181-.29653.51708,0,.14332.03577.36295.09003.61291M6.12706,18.17402c-.59496.13285-.98884.60486-.98884,1.24358,0,.67322.52654,2.30536.58648,2.48943.05953.18176.25447.28059.43664.22183.1813-.05953.28093-.25491.2214-.43703-.0635-.1932-.15452-.38624-.25568-.75032M6.47344,19.44757c.19144,0,.34634-.1553.34634-.34598v-.96904c0-.19144-.1549-.34594-.34634-.34594-.19073,0-.34638.1545-.34638.34594v.96904c0,.19068.15565.34598.34638.34598ZM1.49243,21.5415c.31023-.52511.88097-.75392,1.48848-.55653.64027.20804,2.0297,1.21351,2.18636,1.32706.1414.10323.18163.29292.10151.44295M4.31359,22.524c-.51141-.35474-1.19483-.76669-1.5465-.88096-.28114-.09135-.46479-.00133-.58388.12291M1.96939,22.42483c.02349.17019.11932.35056.40014.4418.13631.04429.35624.07814.61073.10378M1.27844,22.20032c-.05751.60689.26968,1.12736.87715,1.32473.64027.20804,2.35523.21162,2.54882.2115.19126-.00045.3455-.15531.3459-.34672-.00059-.19082-.15562-.34595-.34722-.34561-.20336.00069-.41508.0276-.79261.0113M2.59669,22.26444c.05916-.18207-.04067-.37737-.22202-.4363l-.92161-.29945c-.18207-.05916-.37687.04042-.43603.22248-.05894.18139.0399.37717.22197.43633l.92161.29945c.18135.05892.37715-.04112.43608-.22251ZM3.04893,27.64872c-.40354-.45731-.44478-1.07083-.06932-1.58761.39571-.54465,1.78133-1.55537,1.93773-1.66927.14188-.10258.33471-.08222.45264.04034M4.85512,25.26925c-.49541.37675-1.09839.89943-1.31573,1.19858-.17375.23915-.1449.44163-.06353.59328M4.03641,27.46807c.16912.03025.37027-.00515.54383-.24403.08424-.11595.1844-.31466.28742-.54877M3.60938,28.05583c.55942.24223,1.15552.09189,1.53095-.42485.39571-.54465.92907-2.17457.98878-2.35872.05867-.18204-.04094-.37658-.22286-.43612-.18167-.0584-.37711.0411-.43599.22343-.06219.19362-.10202.4033-.23418.75731M4.07772,26.82191c-.15488-.11252-.37147-.07793-.48355.07633l-.56959.78397c-.11253.15488-.07802.37092.07685.48344.1543.11211.37104.0786.48357-.07627l.56959-.78397c.11208-.15427.07743-.37139-.07687-.4835ZM9.33823,28.05564c-.55963.24247-1.15586.09211-1.53133-.42467-.39571-.54465-.92878-2.17478-.98878-2.35872-.05372-.16663.02523-.34374.17824-.41802M7.63335,25.60255c.20522.58759.51599,1.32257.73333,1.62172.17375.23915.37524.27428.54461.24376M9.47157,27.06067c.08103-.15149.10952-.35374-.06404-.59262-.08424-.11595-.24228-.27261-.43309-.44294M9.89859,27.64842c.40324-.45718.44447-1.07057.06903-1.58731-.39571-.54465-1.78104-1.55558-1.93773-1.66927-.155-.11205-.3708-.07743-.48364.07718-.11168.15473-.07745.37135.07776.4837.16493.11898.35203.22165.64788.45674M8.86979,26.8217c-.15488.11252-.18891.32921-.07683.48347l.56959.78397c.11253.15488.32865.18882.48353.0763.1543-.11211.18942-.32859.07689-.48347l-.56959-.78397c-.11208-.15427-.32929-.18841-.48359-.07631ZM11.66873,22.19991c.05767.60717-.26958,1.12776-.87709,1.32515-.64027.20804-2.35535.21128-2.54882.2115-.17507-.00041-.31912-.13022-.34248-.29869M8.80887,23.06329c.62225-.01361,1.41728-.08204,1.76896-.1963.28114-.09135.37681-.27212.40012-.44263M10.76366,21.76563c-.11904-.12388-.30258-.21347-.5834-.12223-.13631.04429-.33413.14618-.55509.27502M11.4546,21.54113c-.3102-.52479-.88082-.75354-1.48829-.55616-.64027.20804-2.02981,1.21317-2.18636,1.32706-.15447.11278-.18822.32872-.07605.48382.11264.15403.32924.18841.48405.07551.16412-.12009.31959-.26631.63459-.47503M10.35043,22.26411c.05916.18207.25472.2814.43607.22247l.92161-.29945c.18207-.05916.28114-.25422.22198-.43629-.05894-.18139-.25397-.28168-.43604-.22253l-.92161.29945c-.18135.05892-.28095.25495-.22201.43634ZM14.18038,8.39436c.59527.13278.98925.60488.98925,1.24365,0,.67322-.5269,2.30536-.58648,2.48943-.05449.16638-.22246.26326-.3899.23342M14.11776,11.38105c.17934-.596.35994-1.37327.35994-1.74304,0-.29561-.14236-.44246-.29732-.51732M13.48767,9.12094c-.1546.07493-.29653.22181-.29653.51708,0,.14332.03577.36295.09003.61291M13.48767,8.39443c-.59496.13285-.98884.60486-.98884,1.24358,0,.67322.52654,2.30536.58648,2.48943.05953.18176.25447.28059.43664.22183.1813-.05953.28093-.25491.2214-.43703-.0635-.1932-.15452-.38624-.25568-.75032M13.83405,9.66798c.19144,0,.34634-.1553.34634-.34598v-.96904c0-.19144-.1549-.34594-.34634-.34594-.19073,0-.34638.1545-.34638.34594v.96904c0,.19068.15565.34598.34638.34598ZM8.85305,11.76191c.31023-.52511.88097-.75392,1.48848-.55653.64027.20804,2.0297,1.21351,2.18636,1.32706.1414.10323.18163.29292.10151.44295M11.67421,12.74441c-.51141-.35474-1.19483-.76669-1.5465-.88096-.28114-.09135-.46479-.00133-.58388.12291M9.33001,12.64524c.02349.17019.11932.35056.40014.4418.13631.04429.35624.07814.61073.10378M8.63906,12.42073c-.05751.60689.26968,1.12736.87715,1.32473.64027.20804,2.35523.21162,2.54882.2115.19126-.00045.3455-.15531.3459-.34672-.00059-.19082-.15562-.34595-.34722-.34561-.20336.00069-.41508.0276-.79261.0113M9.95731,12.48486c.05916-.18207-.04067-.37737-.22202-.4363l-.92161-.29945c-.18207-.05916-.37687.04042-.43603.22248-.05894.18139.0399.37717.22197.43633l.92161.29945c.18135.05892.37715-.04112.43608-.22251ZM10.40954,17.86913c-.40354-.45731-.44478-1.07083-.06932-1.58761.39571-.54465,1.78133-1.55537,1.93773-1.66927.14188-.10258.33471-.08222.45264.04034M12.21574,15.48966c-.49541.37675-1.09839.89943-1.31573,1.19858-.17375.23915-.1449.44163-.06353.59328M11.39702,17.68848c.16912.03025.37027-.00515.54383-.24403.08424-.11595.1844-.31466.28742-.54877M10.97,18.27624c.55942.24223,1.15552.09189,1.53095-.42485.39571-.54465.92907-2.17457.98878-2.35872.05867-.18204-.04094-.37658-.22286-.43612-.18167-.0584-.37711.0411-.43599.22343-.06219.19362-.10202.4033-.23418.75731M11.43834,17.04232c-.15488-.11252-.37147-.07793-.48355.07633l-.56959.78397c-.11253.15488-.07802.37092.07685.48344.1543.11211.37104.0786.48357-.07627l.56959-.78397c.11208-.15427.07743-.37139-.07687-.4835ZM16.69884,18.27605c-.55963.24247-1.15586.09211-1.53133-.42467-.39571-.54465-.92878-2.17478-.98878-2.35872-.05372-.16663.02523-.34374.17824-.41802M14.99397,15.82296c.20522.58759.51599,1.32257.73333,1.62172.17375.23915.37524.27428.54461.24376M16.83218,17.28108c.08103-.15149.10952-.35374-.06404-.59262-.08424-.11595-.24228-.27261-.43309-.44294M17.25921,17.86883c.40324-.45718.44447-1.07057.06903-1.58731-.39571-.54465-1.78104-1.55558-1.93773-1.66927-.155-.11205-.3708-.07743-.48364.07718-.11168.15473-.07745.37135.07776.4837.16493.11898.35203.22165.64788.45674M16.23041,17.04211c-.15488.11252-.18891.32921-.07683.48347l.56959.78397c.11253.15488.32865.18882.48353.0763.1543-.11211.18942-.32859.07689-.48347l-.56959-.78397c-.11208-.15427-.32929-.18841-.48359-.07631ZM19.02935,12.42032c.05767.60717-.26958,1.12776-.87709,1.32515-.64027.20804-2.35535.21128-2.54882.2115-.17507-.00041-.31912-.13022-.34248-.29869M16.16948,13.2837c.62225-.01361,1.41728-.08204,1.76896-.1963.28114-.09135.37681-.27212.40012-.44263M18.12427,11.98604c-.11904-.12388-.30258-.21347-.5834-.12223-.13631.04429-.33413.14618-.55509.27502M18.81522,11.76154c-.3102-.52479-.88082-.75354-1.48829-.55616-.64027.20804-2.02981,1.21317-2.18636,1.32706-.15447.11278-.18822.32872-.07605.48382.11264.15403.32924.18841.48405.07551.16412-.12009.31959-.26631.63459-.47503M17.71104,12.48452c.05916.18207.25472.2814.43607.22247l.92161-.29945c.18207-.05916.28114-.25422.22198-.43629-.05894-.18139-.25397-.28168-.43604-.22253l-.92161.29945c-.18135.05892-.28095.25495-.22201.43634ZM36.90783,8.39436c.59527.13278.98925.60488.98925,1.24365,0,.67322-.5269,2.30536-.58648,2.48943-.05449.16638-.22246.26326-.3899.23342M36.8452,11.38105c.17934-.596.35994-1.37327.35994-1.74304,0-.29561-.14236-.44246-.29732-.51732M36.21512,9.12094c-.1546.07493-.29653.22181-.29653.51708,0,.14332.03577.36295.09003.61291M36.21512,8.39443c-.59496.13285-.98884.60486-.98884,1.24358,0,.67322.52654,2.30536.58648,2.48943.05953.18176.25447.28059.43664.22183.1813-.05953.28093-.25491.2214-.43703-.0635-.1932-.15452-.38624-.25568-.75032M36.5615,9.66798c.19144,0,.34634-.1553.34634-.34598v-.96904c0-.19144-.1549-.34594-.34634-.34594-.19073,0-.34638.1545-.34638.34594v.96904c0,.19068.15565.34598.34638.34598ZM31.5805,11.76191c.31023-.52511.88097-.75392,1.48848-.55653.64027.20804,2.0297,1.21351,2.18636,1.32706.1414.10323.18163.29292.10151.44295M34.40166,12.74441c-.51141-.35474-1.19483-.76669-1.5465-.88096-.28114-.09135-.46479-.00133-.58388.12291M32.05745,12.64524c.02349.17019.11932.35056.40014.4418.13631.04429.35624.07814.61073.10378M31.36651,12.42073c-.05751.60689.26968,1.12736.87715,1.32473.64027.20804,2.35523.21162,2.54882.2115.19126-.00045.3455-.15531.3459-.34672-.00059-.19082-.15562-.34595-.34722-.34561-.20336.00069-.41508.0276-.79261.0113M32.68476,12.48486c.05916-.18207-.04067-.37737-.22202-.4363l-.92161-.29945c-.18207-.05916-.37687.04042-.43603.22248-.05894.18139.0399.37717.22197.43633l.92161.29945c.18135.05892.37715-.04112.43608-.22251ZM33.13699,17.86913c-.40354-.45731-.44478-1.07083-.06932-1.58761.39571-.54465,1.78133-1.55537,1.93773-1.66927.14188-.10258.33471-.08222.45264.04034M34.94319,15.48966c-.49541.37675-1.09839.89943-1.31573,1.19858-.17375.23915-.1449.44163-.06353.59328M34.12447,17.68848c.16912.03025.37027-.00515.54383-.24403.08424-.11595.1844-.31466.28742-.54877M33.69744,18.27624c.55942.24223,1.15552.09189,1.53095-.42485.39571-.54465.92907-2.17457.98878-2.35872.05867-.18204-.04094-.37658-.22286-.43612-.18167-.0584-.37711.0411-.43599.22343-.06219.19362-.10202.4033-.23418.75731M34.16579,17.04232c-.15488-.11252-.37147-.07793-.48355.07633l-.56959.78397c-.11253.15488-.07802.37092.07685.48344.1543.11211.37104.0786.48357-.07627l.56959-.78397c.11208-.15427.07743-.37139-.07687-.4835ZM39.42629,18.27605c-.55963.24247-1.15586.09211-1.53133-.42467-.39571-.54465-.92878-2.17478-.98878-2.35872-.05372-.16663.02523-.34374.17824-.41802M37.72142,15.82296c.20522.58759.51599,1.32257.73333,1.62172.17375.23915.37524.27428.54461.24376M39.55963,17.28108c.08103-.15149.10952-.35374-.06404-.59262-.08424-.11595-.24228-.27261-.43309-.44294M39.98666,17.86883c.40324-.45718.44447-1.07057.06903-1.58731-.39571-.54465-1.78104-1.55558-1.93773-1.66927-.155-.11205-.3708-.07743-.48364.07718-.11168.15473-.07745.37135.07776.4837.16493.11898.35203.22165.64788.45674M38.95786,17.04211c-.15488.11252-.18891.32921-.07683.48347l.56959.78397c.11253.15488.32865.18882.48353.0763.1543-.11211.18942-.32859.07689-.48347l-.56959-.78397c-.11208-.15427-.32929-.18841-.48359-.07631ZM41.75679,12.42032c.05767.60717-.26958,1.12776-.87709,1.32515-.64027.20804-2.35535.21128-2.54882.2115-.17507-.00041-.31912-.13022-.34248-.29869M38.89693,13.2837c.62225-.01361,1.41728-.08204,1.76896-.1963.28114-.09135.37681-.27212.40012-.44263M40.85172,11.98604c-.11904-.12388-.30258-.21347-.5834-.12223-.13631.04429-.33413.14618-.55509.27502M41.54267,11.76154c-.3102-.52479-.88082-.75354-1.48829-.55616-.64027.20804-2.02981,1.21317-2.18636,1.32706-.15447.11278-.18822.32872-.07605.48382.11264.15403.32924.18841.48405.07551.16412-.12009.31959-.26631.63459-.47503M40.43849,12.48452c.05916.18207.25472.2814.43607.22247l.92161-.29945c.18207-.05916.28114-.25422.22198-.43629-.05894-.18139-.25397-.28168-.43604-.22253l-.92161.29945c-.18135.05892-.28095.25495-.22201.43634ZM43.87256,18.17395c.59527.13278.98925.60488.98925,1.24365,0,.67322-.5269,2.30536-.58648,2.48943-.05449.16638-.22246.26326-.3899.23342M43.80994,21.16064c.17934-.596.35994-1.37327.35994-1.74304,0-.29561-.14236-.44246-.29732-.51732M43.17985,18.90052c-.1546.07493-.29653.22181-.29653.51708,0,.14332.03577.36295.09003.61291M43.17985,18.17402c-.59496.13285-.98884.60486-.98884,1.24358,0,.67322.52654,2.30536.58648,2.48943.05953.18176.25447.28059.43664.22183.1813-.05953.28093-.25491.2214-.43703-.0635-.1932-.15452-.38624-.25568-.75032M43.52623,19.44757c.19144,0,.34634-.1553.34634-.34598v-.96904c0-.19144-.1549-.34594-.34634-.34594-.19073,0-.34638.1545-.34638.34594v.96904c0,.19068.15565.34598.34638.34598ZM38.54523,21.5415c.31023-.52511.88097-.75392,1.48848-.55653.64027.20804,2.0297,1.21351,2.18636,1.32706.1414.10323.18163.29292.10151.44295M41.36639,22.524c-.51141-.35474-1.19483-.76669-1.5465-.88096-.28114-.09135-.46479-.00133-.58388.12291M39.02219,22.42483c.02349.17019.11932.35056.40014.4418.13631.04429.35624.07814.61073.10378M38.33124,22.20032c-.05751.60689.26968,1.12736.87715,1.32473.64027.20804,2.35523.21162,2.54882.2115.19126-.00045.3455-.15531.3459-.34672-.00059-.19082-.15562-.34595-.34722-.34561-.20336.00069-.41508.0276-.79261.0113M39.64949,22.26444c.05916-.18207-.04067-.37737-.22202-.4363l-.92161-.29945c-.18207-.05916-.37687.04042-.43603.22248-.05894.18139.0399.37717.22197.43633l.92161.29945c.18135.05892.37715-.04112.43608-.22251ZM40.10172,27.64872c-.40354-.45731-.44478-1.07083-.06932-1.58761.39571-.54465,1.78133-1.55537,1.93773-1.66927.14188-.10258.33471-.08222.45264.04034M41.90792,25.26925c-.49541.37675-1.09839.89943-1.31573,1.19858-.17375.23915-.1449.44163-.06353.59328M41.0892,27.46807c.16912.03025.37027-.00515.54383-.24403.08424-.11595.1844-.31466.28742-.54877M40.66218,28.05583c.55942.24223,1.15552.09189,1.53095-.42485.39571-.54465.92907-2.17457.98878-2.35872.05867-.18204-.04094-.37658-.22286-.43612-.18167-.0584-.37711.0411-.43599.22343-.06219.19362-.10202.4033-.23418.75731M41.13052,26.82191c-.15488-.11252-.37147-.07793-.48355.07633l-.56959.78397c-.11253.15488-.07802.37092.07685.48344.1543.11211.37104.0786.48357-.07627l.56959-.78397c.11208-.15427.07743-.37139-.07687-.4835ZM46.39102,28.05564c-.55963.24247-1.15586.09211-1.53133-.42467-.39571-.54465-.92878-2.17478-.98878-2.35872-.05372-.16663.02523-.34374.17824-.41802M44.68615,25.60255c.20522.58759.51599,1.32257.73333,1.62172.17375.23915.37524.27428.54461.24376M46.52436,27.06067c.08103-.15149.10952-.35374-.06404-.59262-.08424-.11595-.24228-.27261-.43309-.44294M46.95139,27.64842c.40324-.45718.44447-1.07057.06903-1.58731-.39571-.54465-1.78104-1.55558-1.93773-1.66927-.155-.11205-.3708-.07743-.48364.07718-.11168.15473-.07745.37135.07776.4837.16493.11898.35203.22165.64788.45674M45.92259,26.8217c-.15488.11252-.18891.32921-.07683.48347l.56959.78397c.11253.15488.32865.18882.48353.0763.1543-.11211.18942-.32859.07689-.48347l-.56959-.78397c-.11208-.15427-.32929-.18841-.48359-.07631ZM48.72153,22.19991c.05767.60717-.26958,1.12776-.87709,1.32515-.64027.20804-2.35535.21128-2.54882.2115-.17507-.00041-.31912-.13022-.34248-.29869M45.86166,23.06329c.62225-.01361,1.41728-.08204,1.76896-.1963.28114-.09135.37681-.27212.40012-.44263M47.81645,21.76563c-.11904-.12388-.30258-.21347-.5834-.12223-.13631.04429-.33413.14618-.55509.27502M48.5074,21.54113c-.3102-.52479-.88082-.75354-1.48829-.55616-.64027.20804-2.02981,1.21317-2.18636,1.32706-.15447.11278-.18822.32872-.07605.48382.11264.15403.32924.18841.48405.07551.16412-.12009.31959-.26631.63459-.47503M47.40322,22.26411c.05916.18207.25472.2814.43607.22247l.92161-.29945c.18207-.05916.28114-.25422.22198-.43629-.05894-.18139-.25397-.28168-.43604-.22253l-.92161.29945c-.18135.05892-.28095.25495-.22201.43634ZM41.63302,29.75919c.59527.13278.98925.60488.98925,1.24365,0,.67322-.5269,2.30536-.58648,2.48943-.05449.16638-.22246.26326-.3899.23342M41.5704,32.74588c.17934-.596.35994-1.37327.35994-1.74304,0-.29561-.14236-.44246-.29732-.51732M40.94032,30.48577c-.1546.07493-.29653.22181-.29653.51708,0,.14332.03577.36295.09003.61291M40.94032,29.75926c-.59496.13285-.98884.60486-.98884,1.24358,0,.67322.52654,2.30536.58648,2.48943.05953.18176.25447.28059.43664.22183.1813-.05953.28093-.25491.2214-.43703-.0635-.1932-.15452-.38624-.25568-.75032M41.2867,31.03281c.19144,0,.34634-.1553.34634-.34598v-.96904c0-.19144-.1549-.34594-.34634-.34594-.19073,0-.34638.1545-.34638.34594v.96904c0,.19068.15565.34598.34638.34598ZM36.30569,33.12674c.31023-.52511.88097-.75392,1.48848-.55653.64027.20804,2.0297,1.21351,2.18636,1.32706.1414.10323.18163.29292.10151.44295M39.12685,34.10924c-.51141-.35474-1.19483-.76669-1.5465-.88096-.28114-.09135-.46479-.00133-.58388.12291M36.78265,34.01007c.02349.17019.11932.35056.40014.4418.13631.04429.35624.07814.61073.10378M36.0917,33.78556c-.05751.60689.26968,1.12736.87715,1.32473.64027.20804,2.35523.21162,2.54882.2115.19126-.00045.3455-.15531.3459-.34672-.00059-.19082-.15562-.34595-.34722-.34561-.20336.00069-.41508.0276-.79261.0113M37.40995,33.84969c.05916-.18207-.04067-.37737-.22202-.4363l-.92161-.29945c-.18207-.05916-.37687.04042-.43603.22248-.05894.18139.0399.37717.22197.43633l.92161.29945c.18135.05892.37715-.04112.43608-.22251ZM37.86219,39.23396c-.40354-.45731-.44478-1.07083-.06932-1.58761.39571-.54465,1.78133-1.55537,1.93773-1.66927.14188-.10258.33471-.08222.45264.04034M39.66838,36.85449c-.49541.37675-1.09839.89943-1.31573,1.19858-.17375.23915-.1449.44163-.06353.59328M38.84967,39.05331c.16912.03025.37027-.00515.54383-.24403.08424-.11595.1844-.31466.28742-.54877M38.42264,39.64107c.55942.24223,1.15552.09189,1.53095-.42485.39571-.54465.92907-2.17457.98878-2.35872.05867-.18204-.04094-.37658-.22286-.43612-.18167-.0584-.37711.0411-.43599.22343-.06219.19362-.10202.4033-.23418.75731M38.89098,38.40715c-.15488-.11252-.37147-.07793-.48355.07633l-.56959.78397c-.11253.15488-.07802.37092.07685.48344.1543.11211.37104.0786.48357-.07627l.56959-.78397c.11208-.15427.07743-.37139-.07687-.4835ZM44.15148,39.64088c-.55963.24247-1.15586.09211-1.53133-.42467-.39571-.54465-.92878-2.17478-.98878-2.35872-.05372-.16663.02523-.34374.17824-.41802M42.44661,37.18779c.20522.58759.51599,1.32257.73333,1.62172.17375.23915.37524.27428.54461.24376M44.28482,38.64591c.08103-.15149.10952-.35374-.06404-.59262-.08424-.11595-.24228-.27261-.43309-.44294M44.71185,39.23366c.40324-.45718.44447-1.07057.06903-1.58731-.39571-.54465-1.78104-1.55558-1.93773-1.66927-.155-.11205-.3708-.07743-.48364.07718-.11168.15473-.07745.37135.07776.4837.16493.11898.35203.22165.64788.45674M43.68305,38.40694c-.15488.11252-.18891.32921-.07683.48347l.56959.78397c.11253.15488.32865.18882.48353.0763.1543-.11211.18942-.32859.07689-.48347l-.56959-.78397c-.11208-.15427-.32929-.18841-.48359-.07631ZM46.48199,33.78515c.05767.60717-.26958,1.12776-.87709,1.32515-.64027.20804-2.35535.21128-2.54882.2115-.17507-.00041-.31912-.13022-.34248-.29869M43.62212,34.64853c.62225-.01361,1.41728-.08204,1.76896-.1963.28114-.09135.37681-.27212.40012-.44263M45.57692,33.35087c-.11904-.12388-.30258-.21347-.5834-.12223-.13631.04429-.33413.14618-.55509.27502M46.26786,33.12637c-.3102-.52479-.88082-.75354-1.48829-.55616-.64027.20804-2.02981,1.21317-2.18636,1.32706-.15447.11278-.18822.32872-.07605.48382.11264.15403.32924.18841.48405.07551.16412-.12009.31959-.26631.63459-.47503M45.16368,33.84935c.05916.18207.25472.2814.43607.22247l.92161-.29945c.18207-.05916.28114-.25422.22198-.43629-.05894-.18139-.25397-.28168-.43604-.22253l-.92161.29945c-.18135.05892-.28095.25495-.22201.43634Z"/>
    </g>
  </g>
</svg>