<svg xmlns="http://www.w3.org/2000/svg" version="1.1" viewBox="0 0 44 50">

    <g id="stitch-1" fill="none" stroke="">
      <path d="M2,9.1h15c4.4,0,9.3,1.7,9.3,6.7s-3.9,7-8.4,7h-3M14.9,20h2.9c3.1,0,5.1-1.7,5.1-4.3s-3.4-3.9-6.3-3.9H2M37.8,49.2l-15.2-21.3c5.7-1.3,10.5-5.2,10.5-11.9S25.1,3.6,17.8,3.6H2M34,49.2l-16.8-23.6h.8c6,0,11.7-3.2,11.7-9.7s-6.5-9.6-12.3-9.6H2M30,49.2l-15.1-21.5M14.9,33.1l10.9,16.1M42,49.2l-14.4-20c5.1-2.3,9-6.6,9-13.3C36.5,5.6,27,.8,18.2.8H2M5.2.8v48.4M8.5.8v48.4M11.7.8v48.4M14.9.8v48.4M2,.8v48.4"/>
    </g>

</svg>