<?xml version="1.0" encoding="UTF-8"?>
<svg xmlns="http://www.w3.org/2000/svg" version="1.1" viewBox="0 0 200 130">
  <defs>
    <style>
      .cls-1 {
        fill: #f63e02;
      }
    </style>
  </defs>
  <!-- Generator: Adobe Illustrator 28.6.0, SVG Export Plug-In . SVG Version: 1.2.0 Build 709)  -->
  <g>
    <g id="Layer_1">
      <g>
        <path id="stitching" class="cls-1" d="M48.6,34.6h-.6c-4.3,0-7.6-1.4-9.7-4.2-1.9-2.5-2.9-6-2.9-10.5s1.1-8.1,3.4-10.7c2.3-2.6,5.5-4,9.8-4.3v2.9c-2.4.4-4.2,1.9-5.3,4.4-.9,2-1.3,4.5-1.3,7.4s.4,5.3,1.3,7.3c1.1,2.5,2.9,4,5.3,4.4v3.4ZM58.3,13.2h-2.4c-.6-3.7-2.6-5.6-6-5.6v-2.8h.3c-.6,0,2.1.1,8.1.4v7.9ZM59,28c-2.5,3.8-5.5,5.9-9.1,6.4v-3.1h0c2.8,0,5.3-1.5,7.4-4.6l1.7,1.4ZM72,34.4c-6.8-.1-10.2-3.7-10.2-10.8s.9-6.1,2.6-7.9c1.7-1.9,4.3-2.9,7.6-3v2.6c-2.7.3-4.1,3-4.1,8.1s1.4,8,4.1,8.3v2.6ZM83.1,23.4c0,7.1-3.3,10.8-9.8,11.1v-2.7c2.4-.5,3.6-3.2,3.6-8.1s-1.2-7.7-3.6-8.2v-2.7c3.4.1,5.8,1,7.4,2.8,1.6,1.7,2.4,4.4,2.4,7.9ZM96.3,34.1c-4.4-.1-8.1-.1-11.1,0v-1.9c1.8,0,2.7-1.2,2.7-3.6V8.2c0-1.1-.2-1.8-.5-2-.3-.2-1-.3-2.2-.4v-1.7c1.1,0,2.2,0,3.5,0,1.6,0,3.3-.2,5.2-.6-.2,1.6-.3,4.1-.3,7.4v19c0,1.1.2,1.7.5,2,.3.2,1,.4,2.2.4v1.9ZM108.5,34.4c-6.8-.1-10.2-3.7-10.2-10.8s.9-6.1,2.6-7.9c1.7-1.9,4.3-2.9,7.6-3v2.6c-2.7.3-4.1,3-4.1,8.1s1.4,8,4.1,8.3v2.6ZM119.6,23.4c0,7.1-3.3,10.8-9.8,11.1v-2.7c2.4-.5,3.6-3.2,3.6-8.1s-1.2-7.7-3.6-8.2v-2.7c3.4.1,5.8,1,7.4,2.8,1.6,1.7,2.4,4.4,2.4,7.9ZM137,31.1c-1.7,2.3-3.9,3.4-6.6,3.4s-3.7-.4-4.6-1.3c-.9-.9-1.4-2.4-1.4-4.6v-11c0-1.3-.1-2.1-.4-2.3-.2-.3-1-.5-2.3-.5v-1.7c1,0,2.2,0,3.5,0,1.5,0,3.3-.2,5.1-.6-.2,1.6-.3,4.1-.3,7.4v7.2c0,2.4.8,3.6,2.5,3.6s3.2-.9,4.3-2.7v3.2ZM146.6,34.1h-2.4c-.5,0-1.3,0-2.4,0-1.1,0-1.9,0-2.4,0s-.9-.6-1-1.9c0-.6-.1-1.8-.1-3.4v-11.3c0-1.3-.1-2.1-.4-2.3-.2-.3-1-.5-2.3-.5v-1.7c1,0,2.2,0,3.5,0,1.5,0,3.3-.2,5.1-.6-.2,1.6-.3,4.1-.3,7.4v9.6c0,1.3.1,2.1.4,2.4.2.3,1,.5,2.3.5v1.8ZM158.8,34.1c-4.4-.1-8.1-.1-11.1,0v-1.9c1.8,0,2.7-1.2,2.7-3.6v-11.4c0-1.1-.2-1.8-.5-2-.3-.2-1-.3-2.2-.4v-1.7c1.1,0,2.2,0,3.5,0,1.6,0,3.3-.2,5.2-.6-.2,1.7-.3,3.7-.3,5.9v11.4c0,1.1.2,1.7.5,2,.3.2,1,.4,2.2.4v1.9ZM164.5,19.2h-1.4c-.1-.4-.4-.8-.8-1.1-.4-.3-.9-.5-1.4-.5-1.4,0-2.6.7-3.5,2.1v-4.5c.9-1.7,2.4-2.5,4.3-2.5s2,.2,2.9.6v5.9Z"/>
        <path id="confident" d="M18.1,76h-.6c-4.3,0-7.6-1.4-9.7-4.2-1.9-2.5-2.9-6-2.9-10.5s1.1-8.1,3.4-10.7c2.3-2.6,5.5-4,9.8-4.3v2.9c-2.4.4-4.2,1.9-5.3,4.4-.9,2-1.3,4.5-1.3,7.4s.4,5.3,1.3,7.3c1.1,2.5,2.9,4,5.3,4.4v3.4ZM27.8,54.7h-2.4c-.6-3.7-2.6-5.6-6-5.6v-2.8h.3c-.6,0,2.1.1,8.1.4v7.9ZM28.5,69.4c-2.5,3.8-5.5,5.9-9.1,6.4v-3.1h0c2.8,0,5.3-1.5,7.4-4.6l1.7,1.4ZM41.5,75.8c-6.8-.1-10.2-3.7-10.2-10.8s.9-6.1,2.6-7.9c1.7-1.9,4.3-2.9,7.6-3v2.6c-2.7.3-4.1,3-4.1,8.1s1.4,8,4.1,8.3v2.6ZM52.6,64.8c0,7.1-3.3,10.8-9.8,11.1v-2.7c2.4-.5,3.6-3.2,3.6-8.1s-1.2-7.7-3.6-8.2v-2.7c3.4.1,5.8,1,7.4,2.8,1.6,1.7,2.4,4.4,2.4,7.9ZM65.8,75.5c-4.4-.1-8.1-.1-11.1,0v-1.9c1.8,0,2.7-1.2,2.7-3.6v-11c0-1.3-.1-2.1-.4-2.3-.3-.3-1-.5-2.3-.5v-1.7c1.1,0,2.2,0,3.5,0,1.7,0,3.4-.2,5.2-.6-.1,1.1-.2,2.2-.2,3.2v13.8c0,1.3.1,2.1.4,2.3.2.3,1,.5,2.2.5v1.9ZM79.9,75.5c-4.4-.1-8.1-.1-11.1,0v-1.9c1.8,0,2.7-1.2,2.7-3.6v-8.5c0-2.3-.8-3.5-2.5-3.5s-3.1.9-4.6,2.8v-3.2c1.8-2.3,4.1-3.5,7-3.5s3.2.5,4.3,1.4c1.1.9,1.6,2.2,1.6,3.9v11.3c0,1.3.1,2.1.4,2.3.2.3,1,.5,2.3.5v1.9ZM98.1,51.4h-2.6c0-1.1-.3-2-.8-2.7-.6-.9-1.4-1.3-2.3-1.3s-1.6.3-2,1c-.5.7-.7,1.5-.7,2.4v5.7s-8.4,0-8.4,0v-2h2.7v-1.7c0-5.1,2.7-7.7,8-7.7s3.5.1,6.2.3v6.1ZM92.3,75.5c-4.4-.1-8.1-.1-11.1,0v-1.9c1.8,0,2.7-1.2,2.7-3.6v-12.4h5.7v13.2c0,1.3.1,2.1.4,2.3.2.3,1,.5,2.3.5v1.9ZM105.4,75.5c-4.4-.1-8.1-.1-11.1,0v-1.9c1.8,0,2.7-1.2,2.7-3.6v-11.5c0-1.1-.2-1.8-.5-2-.3-.2-1-.3-2.2-.4v-1.7c1.1,0,2.2,0,3.5,0,1.6,0,3.3-.2,5.2-.5-.2,1.6-.3,4.1-.3,7.4v10c0,1.1.2,1.7.5,2,.3.2,1,.4,2.2.4v1.9ZM121.2,73.2c-1.9,1.8-3.8,2.7-5.9,2.7s-4.7-1.1-6-3.4c-1-1.8-1.6-4.2-1.6-7.1s.8-5.8,2.4-7.8c1.7-2.2,4.2-3.4,7.2-3.4s2.7.3,3.8.9v3.1c-.7-.9-1.6-1.3-2.9-1.3s-2.8,1-3.6,3c-.6,1.5-1,3.2-1,5.1,0,4.9,1.3,7.3,3.8,7.3s2.7-.8,3.6-2.4v3.4ZM130.9,75.5h-2.4c-.5,0-1.3,0-2.4,0-1.1,0-1.9,0-2.4,0s-.7-.6-.9-1.8c-.2-.9-.2-1.6-.2-2.2v-21.7c0-1.3-.1-2.1-.4-2.3-.2-.3-1-.4-2.3-.5v-1.7c1,0,2.2,0,3.5,0,1.5,0,3.3-.2,5.1-.6-.2,1.6-.3,4.1-.3,7.4v18.6c0,1.3.1,2.1.4,2.3s1,.5,2.3.5v1.8ZM151.8,64c0,.4,0,.6,0,.8h-11.9v-2.2h5.2c.7,0,1-.6,1-1.8s-.3-2-.9-2.9c-.6-.9-1.4-1.4-2.4-1.4-1.5,0-2.7,1.1-3.6,3.4-.3.9-.5,2.5-.5,4.8,0,5.3,1.9,8,5.6,8s3.9-1.2,5.6-3.6l1.5,1.4c-2.3,3.5-5.3,5.3-9,5.3-6.4,0-9.6-3.5-9.6-10.4s.8-6.2,2.5-8.2c1.8-2.1,4.4-3.2,7.8-3.2,5.9,0,8.8,3.3,8.8,9.9ZM165,75.5c-4.4-.1-8.1-.1-11.1,0v-1.9c1.8,0,2.7-1.2,2.7-3.6v-11c0-1.3-.1-2.1-.4-2.3-.3-.3-1-.5-2.3-.5v-1.7c1.1,0,2.2,0,3.5,0,1.7,0,3.4-.2,5.2-.6-.1,1.1-.2,2.2-.2,3.2v13.8c0,1.3.1,2.1.4,2.3.2.3,1,.5,2.2.5v1.9ZM179.2,75.5c-4.4-.1-8.1-.1-11.1,0v-1.9c1.8,0,2.7-1.2,2.7-3.6v-8.5c0-2.3-.8-3.5-2.5-3.5s-3.1.9-4.6,2.8v-3.2c1.8-2.3,4.1-3.5,7-3.5s3.2.5,4.3,1.4c1.1.9,1.6,2.2,1.6,3.9v11.3c0,1.3.1,2.1.4,2.3.2.3,1,.5,2.3.5v1.9ZM194.6,54.4l-.2,2h-13.9l.2-2c.9,0,1.7,0,2.2-.2,1-.3,1.8-1.1,2.4-2.3.5-1,.8-2.2.9-3.3l2.6-.6v6.5h5.9ZM195,72.2c-.7,2.5-2.8,3.8-6.4,3.8s-3.4-.5-4.2-1.4-1.3-2.4-1.4-4.4c0-3.3,0-7.4,0-12.5h5.7v11c0,1.3.1,2.3.3,2.9.4,1,1.1,1.5,2.2,1.5s1.9-.5,2.4-1.6l1.4.8Z"/>
        <path id="colour" d="M33.3,108.6c0,2.9-1,5.1-3.1,6.6-1.8,1.3-4.1,2-7.1,2.2v-2.6c1.4,0,2.5-.4,3.4-1,1-.7,1.5-1.8,1.5-3.1s-1.2-3-3.7-4.3c-2.3-1.2-4.5-2.3-6.8-3.5-2.5-1.7-3.7-3.9-3.7-6.5s1-4.8,2.9-6.3c1.7-1.4,4-2.1,6.8-2.2v2.7c-1.2,0-2.1.5-2.9,1.2-.8.7-1.2,1.6-1.2,2.7,0,1.6,1.2,3,3.6,4.2,4.4,2.1,6.6,3.2,6.8,3.3,2.4,1.7,3.6,3.9,3.6,6.8ZM21.8,117.4c-2.2,0-4.9-.3-8-.8v-8h2.6c0,1.7.6,3.1,1.5,4.2,1,1.1,2.3,1.7,3.9,1.9v2.6ZM31.9,96.1h-2.4c-.6-3.4-2.1-5.3-4.8-5.6v-2.7c1.6,0,4,.2,7.2.4v7.9ZM49.7,95.8l-.2,2h-13.9l.2-2c.9,0,1.7,0,2.2-.2,1-.3,1.8-1.1,2.4-2.3.5-1,.8-2.2.9-3.3l2.6-.6v6.5h5.9ZM50.1,113.6c-.7,2.5-2.8,3.8-6.4,3.8s-3.4-.5-4.2-1.4c-.9-1-1.3-2.4-1.4-4.4,0-3.3,0-7.4,0-12.5h5.7v11c0,1.3.1,2.3.3,2.9.4,1,1.1,1.5,2.2,1.5s1.9-.5,2.4-1.6l1.4.8ZM61.8,116.9c-4.4-.1-8.1-.1-11.1,0v-1.9c1.8,0,2.7-1.2,2.7-3.6v-11.5c0-1.1-.2-1.8-.5-2-.3-.2-1-.3-2.2-.4v-1.7c1.1,0,2.2,0,3.5,0,1.6,0,3.3-.2,5.2-.5-.2,1.6-.3,4.1-.3,7.4v10c0,1.1.2,1.7.5,2,.3.2,1,.4,2.2.4v1.9ZM59.8,90.4c0,.9-.4,1.7-1.3,2.4-.9.7-1.8,1-2.8,1s-1.5-.2-2.1-.7-.9-1.1-.9-1.9.4-1.7,1.3-2.4c.9-.7,1.8-1,2.8-1s1.6.2,2.1.7c.6.5.8,1.1.8,1.9ZM77.4,95.8l-.2,2h-13.9l.2-2c.9,0,1.7,0,2.2-.2,1-.3,1.8-1.1,2.4-2.3.5-1,.8-2.2.9-3.3l2.6-.6v6.5h5.9ZM77.8,113.6c-.7,2.5-2.8,3.8-6.4,3.8s-3.4-.5-4.2-1.4c-.9-1-1.3-2.4-1.4-4.4,0-3.3,0-7.4,0-12.5h5.7v11c0,1.3.1,2.3.3,2.9.4,1,1.1,1.5,2.2,1.5s1.9-.5,2.4-1.6l1.4.8ZM89.6,117.3h-.3c-6.6,0-9.9-3.4-9.9-10.3s3.4-11,10.2-11.3v2.4c-1.5.2-2.6,1.3-3.3,3-.6,1.4-.8,2.9-.8,4.8,0,4.6,1.4,7.2,4.1,8v3.4ZM96.5,102.1h-2.5c-.1-2.4-1.2-3.7-3.1-3.9v-2.4c1.2,0,3.1.1,5.6.3v6ZM98.2,112.1c-2,3-4.5,4.7-7.3,5.1v-3h.3c2.1,0,3.9-1.2,5.5-3.5l1.5,1.4ZM110,117c-4.4-.1-8.1-.1-11.1,0v-1.9c1.8,0,2.7-1.2,2.7-3.6v-20c0-1.3-.1-2.1-.4-2.3-.3-.3-1-.5-2.3-.5v-1.7c1.1,0,2.2,0,3.5,0,1.6,0,3.3-.2,5.2-.6-.2,1.6-.3,4.1-.3,7.4v18.5c0,1.3.1,2.1.4,2.3.2.3,1,.5,2.3.5v1.9ZM124.2,117c-4.4-.1-8.1-.1-11.1,0v-1.9c1.8,0,2.7-1.2,2.7-3.6v-8.5c0-2.3-.8-3.5-2.5-3.5s-3.2.9-4.7,2.8v-3.1c1.8-2.3,4.1-3.5,7-3.5s3.2.5,4.3,1.4c1.1.9,1.6,2.2,1.6,3.9v11.3c0,1.3.1,2.1.4,2.3.2.3,1,.5,2.3.5v1.9ZM136.3,116.9c-4.4-.1-8.1-.1-11.1,0v-1.9c1.8,0,2.7-1.2,2.7-3.6v-11.5c0-1.1-.2-1.8-.5-2-.3-.2-1-.3-2.2-.4v-1.7c1.1,0,2.2,0,3.5,0,1.6,0,3.3-.2,5.2-.5-.2,1.6-.3,4.1-.3,7.4v10c0,1.1.2,1.7.5,2,.3.2,1,.4,2.2.4v1.9ZM134.3,90.4c0,.9-.4,1.7-1.3,2.4-.9.7-1.8,1-2.8,1s-1.5-.2-2.1-.7c-.6-.5-.9-1.1-.9-1.9s.4-1.7,1.3-2.4,1.8-1,2.8-1,1.6.2,2.1.7c.6.5.8,1.1.8,1.9ZM148.7,117c-4.4-.1-8.1-.1-11.1,0v-1.9c1.8,0,2.7-1.2,2.7-3.6v-11c0-1.3-.1-2.1-.4-2.3-.3-.3-1-.5-2.3-.5v-1.7c1.1,0,2.2,0,3.5,0,1.7,0,3.4-.2,5.2-.6-.1,1.1-.2,2.2-.2,3.2v13.8c0,1.3.1,2.1.4,2.3.2.3,1,.5,2.2.5v1.9ZM162.9,117c-4.4-.1-8.1-.1-11.1,0v-1.9c1.8,0,2.7-1.2,2.7-3.6v-8.5c0-2.3-.8-3.5-2.5-3.5s-3.1.9-4.6,2.8v-3.2c1.8-2.3,4.1-3.5,7-3.5s3.2.5,4.3,1.4c1.1.9,1.6,2.2,1.6,3.9v11.3c0,1.3.1,2.1.4,2.3.2.3,1,.5,2.3.5v1.9ZM184.6,121.1c-.8,1.7-2.4,3-4.7,4-2.1.9-4.2,1.4-6.4,1.4s-3.9-.3-5.4-.9c-2.2-.8-3.2-2.1-3.2-3.8s.8-2.4,2.4-4.2l2.2.6c-.2.5-.2,1-.2,1.4,0,2.7,2.4,4,7.1,4s2-.2,2.8-.5c1.1-.5,1.7-1.1,1.8-2h3.6ZM185.1,118.8c0,.2,0,.6,0,1h-4.3c-.5-1.2-1.7-2-3.8-2.3-2-.2-3.9-.3-5.9-.5-1.4-.1-2.3-.3-2.9-.6-.7-.3-1.1-.8-1.1-1.4,0-.9.5-1.9,1.3-3,.7-.9,1.5-1.7,2.4-2.3-1.7-.3-3-1-4-2.2-1-1.2-1.5-2.6-1.5-4.3,0-2.5.9-4.4,2.7-5.7,1.6-1.2,3.7-1.8,6.3-1.8h.1v2.4c-1,.2-1.8.8-2.4,1.8-.6.9-.8,1.9-.8,3s.3,2.2.8,3.1c.6,1,1.4,1.5,2.4,1.7v2.4c-.5,0-.9,0-1.2,0-.3.4-.7.9-1.2,1.6,0,.2-.1.5-.1.6,0,.5.9.8,2.7,1,3.2.2,5.5.6,6.9,1.1,2.4.9,3.6,2.3,3.6,4.4ZM185.5,98.2l-2.4.9c.8,1.2,1.2,2.6,1.2,4.3s-.9,3.7-2.8,4.9c-1.5,1-3.4,1.6-5.8,1.8v-2.3c1-.2,1.7-.8,2.3-1.9.4-.9.7-1.9.7-3.1s-.2-2-.7-2.9c-.6-1-1.3-1.5-2.2-1.7v-2.4c1.1,0,2.9.3,5.6.8.2,0,.4,0,.6,0,1,0,2.2-.2,3.6-.6v2.2Z"/>
      </g>
    </g>
  </g>
</svg>