
<svg xmlns="http://www.w3.org/2000/svg" version="1.1" viewBox="0 0 300 300" width="300" height="300">
  <g>
      <path id="yellow-orange" class="cls-yellow-orange" d="M267.8,176.7c-14.7,0-26.7-11.9-26.7-26.7s12-26.7,26.7-26.7,26.7,11.9,26.7,26.7-12,26.7-26.7,26.7Z"/>
      <path id="yellow" class="cls-yellow" d="M252,235.6c-14.7,0-26.7-11.9-26.7-26.7s12-26.7,26.7-26.7,26.7,11.9,26.7,26.7-11.9,26.7-26.7,26.7Z"/>
      <path id="yellow-green" class="cls-yellow-green" d="M208.9,278.7c-14.7,0-26.7-11.9-26.7-26.7s12-26.7,26.7-26.7,26.7,11.9,26.7,26.7-11.9,26.7-26.7,26.7Z"/>
      <path id="green" class="cls-green" d="M150,294.5c-14.7,0-26.7-11.9-26.7-26.7s12-26.7,26.7-26.7,26.7,11.9,26.7,26.7-12,26.7-26.7,26.7Z"/>
      <path id="blue-green" class="cls-blue-green" d="M91.1,278.7c-14.7,0-26.7-11.9-26.7-26.7s12-26.7,26.7-26.7,26.7,11.9,26.7,26.7-12,26.7-26.7,26.7Z"/>
      <path id="blue" class="cls-blue" d="M48,235.6c-14.7,0-26.7-11.9-26.7-26.7s12-26.7,26.7-26.7,26.7,11.9,26.7,26.7-11.9,26.7-26.7,26.7Z"/>
      <path id="blue-violet" class="cls-blue-violet" d="M32.2,176.7c-14.7,0-26.7-11.9-26.7-26.7s12-26.7,26.7-26.7,26.7,11.9,26.7,26.7-12,26.7-26.7,26.7Z"/>
      <path id="violet" class="cls-violet" d="M48,117.8c-14.7,0-26.7-11.9-26.7-26.7s12-26.7,26.7-26.7,26.7,11.9,26.7,26.7-11.9,26.7-26.7,26.7Z"/>
      <path id="red-violet" class="cls-red-violet" d="M91.1,74.7c-14.7,0-26.7-11.9-26.7-26.7s12-26.7,26.7-26.7,26.7,11.9,26.7,26.7-11.9,26.7-26.7,26.7Z"/>
      <path id="red" class="cls-red" d="M150,58.9c-14.7,0-26.7-11.9-26.7-26.7s12-26.7,26.7-26.7,26.7,11.9,26.7,26.7-11.9,26.7-26.7,26.7Z"/>
      <path id="red-orange" class="cls-red-orange" d="M208.9,74.7c-14.7,0-26.7-11.9-26.7-26.7s12-26.7,26.7-26.7,26.7,11.9,26.7,26.7-11.9,26.7-26.7,26.7Z"/>
      <path id="orange" class="cls-orange" d="M252,117.8c-14.7,0-26.7-11.9-26.7-26.7s12-26.7,26.7-26.7,26.7,11.9,26.7,26.7-11.9,26.7-26.7,26.7Z"/>
      <path id="wheel-border" class="cls-wheel-border" d="M111.4,6.1l77.1,287.8M44.6,44.6l210.7,210.7M293.9,188.6L6.1,111.4M6.1,188.6l287.8-77.1M44.6,255.4L255.4,44.6M111.4,293.9L188.6,6.1M111.4,6.1C31.9,27.4-15.2,109.1,6.1,188.6c21.3,79.5,103,126.7,182.5,105.4s126.7-103,105.4-182.5C272.6,31.9,190.9-15.2,111.4,6.1Z"/>
  </g>
</svg>