
<svg xmlns="http://www.w3.org/2000/svg" version="1.1" viewBox="0 0 50 50">
  <defs>
    <style>
      .cls-2 {
        fill: none;
        stroke-linecap: round;
        stroke-miterlimit: 10;
        stroke-width: .7px;
      }
    </style>
  </defs>

  <g>
    <g id="stitch-2">
      <path class="cls-2" d="M34.96538,36.83776h1.22752M38.2795,31.15511l.11159,1.22752M37.05198,33.72173l.44637-.78115M37.49835,35.28403l1.4507-.33478M39.28383,33.05218l1.4507.33478M34.26217,39.18976l-.55796-1.11592M36.60561,37.73906l1.22752-.55796M40.69578,31.79913l-.40762-.9788M39.7302,29.14644l.33478-1.67389M39.28383,20.66542l1.33911-.22318M39.95338,22.11612l.33478,1.33911M38.72587,24.68275h1.22752M37.72154,17.65242l1.33911-.33478M39.84179,18.09879l.66955,1.22752M41.46947,17.9872l1.05054-.33478M42.52001,19.21472l.11159,1.22752M41.29249,21.78134l.44637-.78115M41.73886,23.34364l1.4507-.33478M43.52434,21.11179l1.4507.33478M38.97204,26.13345l-.46936,1.11592M40.84612,25.79867l1.22752-.55796M37.05198,15.19739l1.11592.66955M41.29249,15.0858l-1.00433.66955M33.8158,10.73369l1.00433.22318M34.93173,13.74669l-.11159-1.22752M36.94039,14.19306l-1.4507.33478M30.80281,9.39459l1.11592.66955M31.24918,8.39025l1.00433-.66955M36.8288,12.1844l.89274.89274M34.82013,10.28732l.33478-1.67389M47.60706,18.92918l-.99518-1.48141M48.43441,20.16325l.33478,1.22752M47.31848,19.94007h-1.4507M44.41708,18.043l1.00433.22318M44.17529,17.0708l1.22752-.78115M44.86345,13.91408l1.22752-.33478M48.14852,22.55606l-.33478,1.00433M44.47989,19.12649l.33478,1.11592M33.71018,4.44441l.99518,1.48141M34.25792,3.58894l1.33911-.33478M35.97908,4.81646l.44637,1.22752M37.04707,4.94308l1.33911-.22318M38.32252,6.04397l.33478,1.33911M35.53271,7.1599l.33478,1.22752M37.095,8.6106h1.22752M34.41678,6.93671h-1.4507M31.51538,5.03964l1.00433.22318M31.85016,3.70053l1.22752-.78115M40.108,7.27149l1.4507-.33478M34.08201,8.49901l-.33478,1.00433M31.06901,6.49034l.33478,1.11592M36.31386,10.0613l.55796,1.11592M39.21526,9.72652l1.22752-.55796M41.41368,13.23796l-.99518-1.48141M42.01784,10.90108l1.33911-.33478M42.6874,12.1286l.44637,1.22752M44.04306,11.95845l1.33911-.22318M45.03084,13.35612l.89274,1.33911M42.71268,16.20141l-.33478-1.22752M43.59704,15.42058h1.22752M41.1251,14.24886h-1.4507M39.22803,12.57497l-1.00433-.22318M38.55848,11.01268l1.22752-.78115M41.34829,8.11127l-.11159,1.33911M38.67007,8.22287l1.22752-.33478M42.79899,8.89242l.75289.25144M41.51568,16.20141l-1.06013.61407M38.11211,14.91841l-.33478-1.11592M46.47294,20.99691l.55796,1.11592M45.92358,17.03867l1.06013-1.00433M13.2828,14.08147l1.22752-.78115M15.98419,12.2411l.11159-1.33911M13.39439,11.29166l1.22752-.33478M17.96968,10.17573l-1.11592-.66955M9.45161,26.65414l.99518,1.48141M10.15821,33.61014l1.33911-.33478M11.27413,29.36963l.33478,1.22752M8.14954,30.03918l.33478,1.22752M10.15821,29.14644h-1.4507M6.02929,31.15511h-1.4507M7.25681,27.24937l1.00433.22318M8.8191,25.12912l-1.22752.78115M10.38139,23.00886l-.11159,1.33911M7.70318,24.01319l1.22752-.33478M4.24381,29.92759l1.22752-.33478M13.44319,35.02811l.66955,1.22752M7.25681,32.82899l.44637-.78115M9.82343,30.70874l-.33478,1.00433M7.14521,29.816l-.33478-1.11592M12.05528,32.27103l.55796,1.11592M11.27413,37.51587l1.00433-.66955M12.83643,35.95358l-.89274-.89274M5.53672,18.20382l-.99518-1.48141M6.14088,15.86695l1.33911-.33478M7.25681,18.32198l-.44637-1.22752M8.48432,16.87128l1.33911-.22318M9.48865,19.66109l-.33478-1.33911M6.36407,19.4379l.33478,1.22752M7.92636,20.8886h1.22752M5.24814,19.21472h-1.4507M3.35107,17.54083l-1.00433-.22318M2.68152,15.97854l1.22752-.78115M5.47133,13.07714l-.11159,1.33911M3.37041,13.76603l1.22752-.33478M6.92203,13.85828l1.33911-.33478M9.04228,14.30465l.66955,1.22752M10.71617,13.6351l1.00433.22318M11.7205,15.42058l.11159,1.22752M10.49299,17.9872l.44637-.78115M11.86909,18.69375l-1.4507.33478M7.92636,9.95255l1.4507.33478M4.24381,21.11179l-.33478,1.00433M1.90037,18.76835l.33478,1.11592M7.14521,22.33931l.55796,1.11592M10.04662,22.00453l1.22752-.55796M7.3684,12.0728l-1.11592-.66955M10.49299,11.29166l-1.00433.66955M13.1712,13.41191l.33478-1.67389M6.19668,9.67357l1.4507-.33478M5.30394,12.1286l1.22752-.55796M9.65604,8.89242l-.89274-.89274M22.6546,8.84005l-.99518-1.48141M27.60888,6.55511l1.33911-.22318M22.83774,6.71637h-1.4507M21.02349,5.18014l1.00433.22318M20.5363,3.48019l1.22752-.78115M21.2923,1.33478l1.22752-.33478M28.14257,3.60976l-.66955-1.22752M28.13749,1.04042l1.00433.22318M29.57529,2.92223l.11159,1.22752M28.34777,5.48885l.44637-.78115M30.24484,6.71637l-1.4507.33478M30.57962,4.8193l1.4507.33478M19.87699,9.28299l.33478-1.00433M20.08993,7.38592l-.33478-1.11592M29.12892,8.52616l-1.22752.55796M31.06854,2.07203l1.40816,1.40816M10.85184,4.90181l.99518,1.48141M12.61324,5.93522l-.44637-1.22752M13.84076,4.48452l1.33911-.22318M14.51031,5.93522l.33478,1.33911M12.05528,8.27866l-.33478-1.22752M13.2828,8.50185h1.22752M10.60458,6.82796h-1.4507M15.06827,3.14541l.96667-.82508M17.07694,3.03382l.11159,1.22752M15.84942,5.60044l.44637-.78115M17.85809,2.41973l.44637-.78115M16.29579,7.16274l1.4507-.33478M18.08127,4.93089l1.4507.33478M9.93502,9.39459l.33478-1.00433M12.50165,9.95255l.55796,1.11592M15.40305,9.61777l1.22752-.55796M19.0856,2.69904l.89274.89274M22.63476,4.33127l.44637-.78115M.89604,26.24504l1.33911-.22318M1.56559,27.69574l.33478,1.33911M1.27343,29.72234l.29216.54003M1.454,23.67841l.66955,1.22752M3.12789,23.00886l1.00433.22318M4.13222,24.79434l.11159,1.22752M2.9047,27.36096l.44637-.78115M3.35107,28.92326l1.4507-.33478M5.13655,26.69141l1.4507.33478M2.45833,31.37829l1.22752-.55796M2.9047,20.66542l-1.00433.66955M6.14088,24.45956l.89274.89274M5.58292,22.78568l.33478-1.67389M22.59423,41.44141l-1.33911.22318M18.97401,41.31002l.33478-1.00433M15.06827,37.51587l.33478,1.11592M20.31312,41.08683l.55796,1.11592M27.1948,43.16982l.99518,1.48141M30.13325,41.97957l-1.33911.33478M29.4637,43.54187l.44637,1.22752M32.47669,43.0955l-1.33911.22318M31.80714,44.76938l.33478,1.33911M29.01733,45.88531l.33478,1.22752M29.76948,47.80374h1.22752M27.89989,40.7942l-.11159,1.33911M30.065,40.18326l1.33911-.33478M31.69555,40.75205l.66955,1.22752M33.36943,40.0825l1.00433.22318M34.48536,43.0955l-.11159-1.22752M33.14625,44.4346l.44637-.78115M33.59262,45.9969l1.4507-.33478M35.37809,43.76505l1.4507.33478M27.76883,47.99567l-.33478,1.00433M36.38243,41.5332l.89274.89274M35.82446,39.85932l.33478-1.67389M33.76,47.72658l1.22752-.78115M36.43822,46.16429l.11159-1.33911M33.8716,44.93677l1.22752-.33478M38.44689,43.82085l-1.11592-.66955M39.79342,43.70925l1.00433-.66955M44.81725,29.92103l-.99518-1.48141M45.42141,27.58415l1.33911-.33478M46.09097,28.81167l.44637,1.22752M47.76485,28.58848l1.33911-.22318M47.62561,30.03918l.33478,1.33911M45.97937,32.38262l-.33478-1.22752M46.29514,33.13221h1.22752M44.52867,30.93192h-1.4507M41.62727,29.03485l1.00433.22318M41.96205,27.69574l1.22752-.78115M44.64027,26.13345l.11159-1.33911M42.07364,24.90593l1.22752-.33478M46.20256,25.57549l1.33911-.33478M48.32282,26.02186l.66955,1.22752M44.1939,32.49422l-.33478,1.00433M41.04699,30.03918l.85926,1.17172M46.42574,34.05651l.55796,1.11592M46.64893,23.79001l-1.11592-.66955M40.4743,39.48727l.99518,1.48141M42.07364,38.6318l1.33911-.33478M43.18956,41.08683l-.44637-1.22752M41.1809,41.97957h-1.4507M38.2795,40.0825l1.00433.22318M38.61428,38.74339l1.22752-.78115M41.29249,37.1811l.11159-1.33911M38.72587,35.95358l1.22752-.33478M42.85479,36.62314l1.33911-.33478M44.97504,37.06951l.66955,1.22752M37.83313,41.5332l.33478,1.11592M42.18523,34.1681l1.11592.66955M46.42574,34.05651l-1.00433.66955M4.02063,37.85065l1.33911-.22318M2.45833,34.83766l1.33911-.33478M4.57859,35.28403l.66955,1.22752M6.25247,34.61447l1.00433.22318M7.3684,37.62747l-.11159-1.22752M6.02929,38.96658l.44637-.78115M7.92636,40.19409l-1.4507.33478M8.26114,38.29702l1.4507.33478M1.78878,32.38262l1.11592.66955M5.02496,32.94059l1.00433-.66955M9.26547,36.06517l.89274.89274M8.70751,34.39129l.33478-1.67389M9.93502,43.43027l1.33911-.33478M11.05095,45.30547l-.44637-1.22752M13.61757,44.21142l-1.33911.22318M12.80505,45.31345l.33478,1.33911M9.26547,40.64046l-.11159,1.33911M7.00519,41.56848l1.22752-.33478M10.71617,41.42161l1.33911-.33478M13.50598,43.0955l-.66955-1.22752M14.51031,41.19842l1.00433.22318M15.51464,42.9839l.11159,1.22752M14.28713,45.55053l.44637-.78115M14.7335,47.11282l1.4507-.33478M17.96968,45.21575l-1.4507-.33478M10.04662,38.96658l1.11592.66955M13.2828,39.52454l1.00433-.66955M17.52331,42.64913l.89274.89274M16.96535,40.97524l.33478-1.67389M19.0856,47.89397l1.33911-.33478M21.42904,48.8983l1.33911-.22318M15.62624,48.00556l1.22752-.78115M18.41605,45.10416l-.11159,1.33911M15.73783,45.21575l1.22752-.33478M19.86675,45.88531l1.33911-.33478M21.987,46.33168l.66955,1.22752M19.19719,43.43027l1.11592.66955M21.43951,43.98824l1.00433-.66955M27.51197,46.27474l.89274.89274"/>
    </g>
  </g>
</svg>