
<svg xmlns="http://www.w3.org/2000/svg" version="1.1" viewBox="0 0 50 50">
  <defs>
    <style>
      .cls-stitch2 {
        fill: none;
        stroke-linecap: round;
        stroke-miterlimit: 10;
        stroke-width: .5px;
      }
    </style>
  </defs>

  <g>
    <g id="stitch-2">
      <path class="cls-stitch2" d="M19.17428,22.91456s.73979-.35283,1.29184-.35283.79957.30478.79957.64372-.24752.64371-.79957.64371-1.29184-.35283-1.29184-.35283M21.75962,23.48308s.19096.08775.45879.15834c.26698.06147.61423.13163.90265.08863.58065-.08412.77606-.43304.70463-.76952-.0695-.32632-.35987-.58146-.87223-.50695-.25745.03889-.55656.14162-.79461.25514-.23875.10438-.4181.1929-.4181.1929M24.36944,23.13561s.20634.04578.48569.04633c.28101.0121.63892-.01444.91323-.13552.2787-.10478.44119-.27252.50964-.44513.07026-.16966.04964-.34022-.03061-.48947-.17138-.30792-.49636-.43504-.96742-.25659-.23127.10336-.48561.28123-.69398.43171-.19206.15238-.35859.28451-.35859.28451M26.82088,22.11497s.20781-.02981.48698-.1077c.26202-.09985.60676-.2469.82339-.4647.21241-.22224.31502-.43113.31404-.61508-.00547-.1892-.09467-.33868-.22819-.44299-.1335-.10431-.29694-.15474-.4594-.13448-.16826.01678-.353.08737-.52005.26574-.1714.17383-.34925.41295-.47834.63482-.14621.19962-.24819.37193-.24819.37193M28.74991,20.25475s.17006-.11895.38338-.31575c.22808-.18846.42937-.49083.54941-.77298.20492-.58061-.04858-.91853-.37098-.98937-.33825-.0763-.67311.0804-.83512.53902-.0987.22422-.1092.53592-.16279.77398-.03802.24455-.051.44703-.051.44703M29.68924,17.74932s.11703-.17412.2461-.43162c.11005-.25677.20991-.59931.22556-.89624-.01882-.60736-.353-.84491-.6855-.80337-.33963.04159-.61989.29799-.60189.79278-.01543.25407.06416.55787.13262.80669.04994.2442.10938.43547.10938.43547M29.68778,15.08706s.0498-.20506.08086-.496c.01084-.28441-.03177-.65491-.1377-.94503-.28695-.55968-.67265-.64061-.96602-.44802-.27174.17938-.43665.54225-.21433.9621.07875.22883.26327.4654.41394.66769.12961.20731.2512.36512.2512.36512M28.61516,12.62665s-.03371-.21857-.1635-.47177c-.117-.2633-.30477-.5874-.54804-.77183-.2303-.20164-.45237-.27077-.63897-.24396-.18358.02032-.3238.12055-.4164.26245-.09262.1419-.12969.31052-.09511.47552.04005.16009.13854.32886.32335.49258.20003.14878.45661.29309.67895.40874.23358.10437.3972.20115.3972.20115M26.57911,10.89434s-.1249-.16615-.32342-.37049c-.19549-.20986-.48618-.40583-.75675-.52586-.55618-.20042-.89435.0206-.98761.34298-.09547.32828.04349.68576.52558.85868.23283.10556.55529.12253.80343.16143.25049.03305.45261.03979.45261.03979M24.1154,9.9338s-.16068-.13416-.39839-.28113c-.23897-.13317-.55553-.28857-.841-.33357-.57489-.07364-.85946.19419-.89055.53665-.03008.33247.17567.67024.69599.73599.25959.04112.57596.01687.83669-.02589.25625-.0296.45312-.06843.45312-.06843M21.52164,9.52928s-.18119-.10988-.43897-.20173c-.25372-.09255-.59928-.19574-.87135-.1929-.55205,0-.79957.30478-.79957.64372s.24752.64371.79957.64371c.28004-.0027.58005-.07631.83413-.16068.25025-.08502.43715-.15167.43715-.15167M18.92707,9.48749s-.73979-.35283-1.29185-.35283-.79957.30478-.79957.64372.24753.64371.79957.64371,1.29185-.35283,1.29185-.35283M16.35097,9.48749s-.73979-.35283-1.29185-.35283-.79957.30478-.79957.64372.24753.64371.79957.64371,1.29185-.35283,1.29185-.35283M13.77488,9.48749s-.73979-.35283-1.29184-.35283-.79958.30478-.79958.64372.24753.64371.79958.64371,1.29184-.35283,1.29184-.35283M11.19878,9.48749s-.73979-.35283-1.29184-.35283-.79958.30478-.79958.64372.24753.64371.79958.64371,1.29184-.35283,1.29184-.35283M8.62268,9.48749s-.73979-.35283-1.29184-.35283-.79958.30478-.79958.64372.24753.64371.79958.64371,1.29184-.35283,1.29184-.35283M19.2066,20.75211s.73979.35283,1.29184.35283c.54957.00116.80371-.30571.79951-.64746-.00409-.33609-.24493-.63882-.79951-.63996-.55205,0-1.29184.35283-1.29184.35283M21.83759,20.72456s.19738.06781.47919.12555c.27946.04205.64883.0676.9447-.02405.59952-.17794.72053-.59123.57105-.89474-.14848-.30428-.46708-.47737-.92692-.34252-.23205.07313-.50026.20802-.72105.33611-.22316.11225-.39355.21975-.39355.21975M24.4393,19.93809s.05565-.00875.14302-.02248c.09186-.0123.21228-.04821.3513-.09923.14111-.04772.29737-.11497.43996-.21155.14918-.08825.28703-.19927.388-.32669.42279-.50975.25893-.92895-.04187-1.07609-.30452-.15212-.65245-.09685-.93882.24199-.06971.09059-.13971.19457-.21155.30119-.06403.1137-.13421.22477-.19947.32574-.11997.21358-.23182.36943-.23182.36943M26.20345,17.83131s.15913-.15194.3087-.40775c.15663-.25048.30098-.61051.30849-.92405.02931-.30518-.09535-.56919-.21899-.69722-.12651-.13627-.31956-.16204-.47915-.1273-.17143.03672-.29551.12444-.41026.2507-.11771.13312-.15314.2666-.17759.51327-.00316.45611.14576,1.18161.12284,1.19144M26.23401,15.07052c-.00996.0062.02331-.23414-.07204-.52109-.07175-.2999-.25623-.656-.4905-.87651-.23307-.22498-.46491-.30003-.65091-.28436-.18531.01183-.32477.10941-.41781.25099-.09304.14158-.1325.31207-.10628.4781.03022.16413.12067.32553.28498.4855.16614.15687.40336.29826.58585.43817.20449.12689.32089.26041.33094.25588M24.29519,13.11925s-.13084-.16212-.33985-.36112c-.21128-.1861-.50598-.40521-.79117-.48903-.57153-.1827-.8984.07532-.96784.39909-.0736.33823.09274.67159.57252.82614.24507.07116.54693.10377.80244.11584.24789.02281.44981.02223.44981.02223M21.73794,12.28188s-.17243-.11583-.42493-.23935c-.25144-.1236-.58766-.23898-.88211-.25029-.59882-.02067-.81647.29722-.82521.63233-.00884.34232.26891.63544.77364.65406.25665.00989.56564-.05445.81698-.10882.25071-.0546.4438-.11445.4438-.11445M19.08868,12.1337s-.73979-.35283-1.29184-.35283-.79958.30478-.79958.64371.24753.64372.79958.64372,1.29184-.35283,1.29184-.35283M16.48026,12.1337s-.73979-.35283-1.29184-.35283-.79958.30478-.79958.64371.24753.64372.79958.64372,1.29184-.35283,1.29184-.35283M13.87184,12.1337s-.73979-.35283-1.29184-.35283-.79958.30478-.79958.64371.24753.64372.79958.64372,1.29184-.35283,1.29184-.35283M11.26342,12.1337s-.73979-.35283-1.29184-.35283-.79958.30478-.79958.64371.24753.64372.79958.64372,1.29184-.35283,1.29184-.35283M8.655,12.1337s-.73979-.35283-1.29184-.35283-.79958.30478-.79958.64371.24753.64372.79958.64372,1.29184-.35283,1.29184-.35283M26.1994,28.42521s.20228.03872.47748.05841c.27634.02624.62196.01336.89359-.07993.54989-.17165.681-.55279.55877-.87253-.11988-.31329-.4482-.50987-.95299-.35305-.2507.08652-.52271.2618-.74172.40288-.21644.14722-.3722.27883-.3722.27883M28.63821,27.64171s.20817.01355.48545-.00495c.27127-.03168.61333-.09727.87327-.2219.51584-.26431.5792-.67172.40926-.95863-.17495-.29649-.52565-.42807-.99195-.18939-.2381.11349-.47879.3265-.66573.51392-.19257.17403-.32914.32193-.32914.32193M30.93252,26.48889s.20294-.03017.47029-.10383c.2657-.07475.60451-.18374.82622-.37383.45808-.36396.45904-.7553.22829-1.01344-.221-.24692-.60739-.32998-1.01356-.00676-.19734.17126-.4073.40533-.56068.61727-.15393.21009-.25777.38656-.25777.38656M32.96977,24.91349s.19794-.06568.45275-.18588c.24626-.12757.53302-.33047.72832-.54828.38124-.44877.2643-.85734-.00561-1.04652-.28425-.20071-.64672-.17214-.98077.21916-.17399.19225-.30329.48465-.40976.72183-.11419.22881-.18497.4173-.18497.4173M34.64155,22.94576s.17051-.11399.38156-.29685c.20577-.18463.47585-.42866.58764-.70126.24885-.53597.07751-.88652-.24145-1.01158-.31183-.12217-.69705-.02591-.9121.43994-.09625.24099-.19144.53372-.23497.79115-.0479.25404-.0662.4581-.0662.4581M35.78474,20.628s.14547-.1489.31668-.37317c.18092-.22074.32208-.53705.39798-.81942.15113-.56985-.14991-.87971-.47569-.92817-.34426-.05198-.64357.14179-.77908.64002-.0685.24988-.02929.57602-.03535.82906.00401.25533.0277.4557.0277.4557M36.37208,18.11635s.12257-.17582.22889-.43097c.10013-.25469.20378-.58925.21647-.87911.02421-.28728-.08499-.50582-.20958-.63703-.1284-.13274-.29364-.18448-.46273-.17326s-.32522.0829-.43438.21122c-.113.12996-.15691.30962-.18049.57415-.01222.26163.06226.57233.13945.82503.06686.23565.12483.43998.12483.43998M36.40241,15.53317s.0175-.05269.04499-.13541c.03198-.08616.05532-.20505.0673-.3426.0305-.27523.04234-.63371-.02242-.9235-.15752-.57406-.56584-.70542-.8731-.58898-.32675.12209-.5025.43754-.36937.92624.05364.24942.20403.52183.34347.74269.15237.21802.22255.39065.23133.38945M35.74048,13.02673c.02927-.00613-.00722-.83518-.2777-1.3657-.29895-.50516-.71292-.5419-.98833-.35517-.28586.19284-.39301.54936-.13016.99269.22776.45449.88353.93474.85918.95196M34.47363,10.77741s-.02845-.2123-.1312-.46519c-.0962-.25703-.24314-.5757-.42731-.79968-.38497-.435-.79951-.38781-1.03417-.15311-.24499.24401-.2777.61278.06799,1.00396.16566.20307.42803.38408.6537.51995.23148.13091.39848.23345.39848.23345M32.77941,8.8437s-.02001-.05063-.05144-.13013c-.03149-.08309-.08414-.19167-.15623-.30679-.13994-.2343-.33947-.51897-.55923-.70463-.43799-.37719-.84845-.24965-1.03996.01587-.20561.28365-.16741.63997.23033.98513.20159.17101.49504.30367.74278.39754.12569.04468.23419.08474.30825.11702.07537.02834.12337.04639.12337.04639M30.78808,7.22919s-.10254-.18148-.26696-.40669c-.17426-.20862-.41555-.45558-.66129-.60298-.48896-.30403-.86565-.13788-1.02193.16235-.15667.30095-.07883.66699.36984.94771.22755.13677.54103.22075.80139.27479.24907.06974.44767.10305.44767.10305M28.58258,5.92974s-.51619-.67098-1.06093-.86819c-.53319-.21504-.8726-.0252-.98598.2969-.11163.31722.00661.69624.49732.89418.49662.17725,1.2904.19795,1.2904.19795M26.21693,4.95292s-.15115-.14025-.37444-.30311c-.22208-.16499-.51819-.3517-.80094-.40625-.56219-.12849-.87137.11411-.93509.44692s.10977.68544.62406.80236c.26067.04908.57992.059.84097.05141.2611-.01005.4627-.03901.4627-.03901M23.73288,4.32551s-.17124-.11305-.41812-.2366c-.24696-.11808-.56843-.2695-.85683-.28444-.57975-.0285-.84587.2645-.85316.60327-.00729.33877.22107.65538.74417.67954.26289.0128.57787-.01426.83495-.07298.25615-.05335.45125-.11529.45125-.11529M21.17521,4.09705s-.73979-.35283-1.29184-.35283-.79957.30477-.79957.64371.24752.64371.79957.64371,1.29184-.35283,1.29184-.35283M18.65378,4.09705s-.73979-.35283-1.29184-.35283-.79958.30477-.79958.64371.24753.64371.79958.64371,1.29184-.35283,1.29184-.35283M16.13233,4.09705s-.73979-.35283-1.29184-.35283-.79957.30477-.79957.64371.24752.64371.79957.64371,1.29184-.35283,1.29184-.35283M13.6109,4.09705s-.73979-.35283-1.29185-.35283-.79957.30477-.79957.64371.24753.64371.79957.64371,1.29185-.35283,1.29185-.35283M11.08946,4.09705s-.73979-.35283-1.29184-.35283-.79957.30477-.79957.64371.24752.64371.79957.64371,1.29184-.35283,1.29184-.35283M8.56802,4.09705s-.73979-.35283-1.29185-.35283-.79957.30477-.79957.64371.24753.64371.79957.64371,1.29185-.35283,1.29185-.35283M26.00677,28.86201s.14253.80713.46321,1.2565c.32067.44937.71254.47381.98842.27693.2759-.19689.38019-.5754.05953-1.02477-.32068-.44937-1.03761-.8466-1.03761-.8466M27.47238,30.91578s.14253.80713.46319,1.2565c.32068.44936.71255.47381.98844.27693.27589-.19689.38019-.5754.05951-1.02477-.32067-.44937-1.03759-.8466-1.03759-.8466M28.93799,32.96956s.14251.80713.46319,1.2565c.32067.44936.71254.47381.98842.27693.2759-.19689.38019-.57541.05953-1.02477-.32068-.44937-1.03759-.8466-1.03759-.8466M30.40358,35.02333s.14253.80713.46319,1.2565c.32068.44936.71255.47381.98844.27693.27589-.19689.38019-.57541.05953-1.02477-.32068-.44937-1.03761-.8466-1.03761-.8466M31.86919,37.0771s.14253.80713.46319,1.2565c.32068.44936.71254.47381.98844.27692.27589-.19688.38019-.5754.05951-1.02476-.32067-.44937-1.03759-.8466-1.03759-.8466M33.33478,39.13087s.14253.80713.46321,1.2565c.32067.44936.71254.47381.98842.27692.27589-.19688.38019-.5754.05953-1.02476-.32068-.44937-1.03761-.8466-1.03761-.8466M34.80039,41.18464s.14253.80713.46319,1.25649c.32068.44937.71254.47382.98844.27693.27589-.19688.38019-.5754.05951-1.02477-.32067-.44936-1.03759-.84659-1.03759-.84659M36.26598,43.23841s.14253.80713.46321,1.25649c.32067.44937.71254.47382.98842.27693.2759-.19688.38019-.5754.05953-1.02477-.32068-.44936-1.03761-.8466-1.03761-.8466M37.73159,45.29218s.14253.80713.46319,1.25649c.32068.44937.71254.47382.98844.27693.27589-.19688.38019-.5754.05951-1.02477-.32067-.44936-1.03759-.8466-1.03759-.8466M39.1972,47.34594s.14251.80714.46319,1.2565c.32067.44937.71254.47381.98842.27693.2759-.19688.38019-.5754.05953-1.02477-.32068-.44936-1.03759-.8466-1.03759-.8466M19.27241,26.24055s.73979.35283,1.29184.35283.79957-.30477.79957-.64371-.24752-.64371-.79957-.64371-1.29184.35283-1.29184.35283M21.8098,26.22651s.77162.34254,1.34899.26463c.57603-.04936.77951-.41286.72427-.74353-.05623-.33783-.33549-.58023-.86048-.53667-.51848.07193-1.22764.434-1.22764.434M24.36947,25.95833s.20323.06329.47701.08671c.27301.02279.62275.0262.90309-.04447.55653-.17072.6981-.55054.58393-.86634-.11588-.32163-.43825-.52546-.93638-.37191-.25517.06345-.53199.2238-.75167.37-.20575.13625-.38414.25439-.38414.25439M26.85227,25.258s.20555.00795.48313-.01519c.2782-.01961.62864-.0755.88238-.22369.52168-.27305.58348-.66937.39879-.96152-.17765-.28041-.53743-.41826-.99491-.17959-.22331.13224-.46573.33254-.65728.507-.18917.17717-.32354.331-.32354.331M29.14525,24.05458s.20878-.02992.47922-.11158c.2581-.09784.581-.24947.80844-.43825.43472-.40824.38359-.81925.13635-1.04291-.25448-.23153-.62771-.26256-.99607.08461-.1984.16254-.37374.42196-.50743.64734-.1457.2088-.24783.37984-.24783.37984M31.08575,22.32403s.18423-.09362.41864-.25286c.11639-.07996.24801-.17431.36807-.28267.1086-.11627.21052-.24318.28689-.371.32145-.51005.13962-.89114-.16855-1.03397-.30638-.1419-.66186-.05653-.93303.36765-.06513.10918-.11675.23941-.15884.37555-.05367.12836-.1028.25928-.14034.38119-.07616.24265-.11811.44171-.11811.44171M32.43661,20.09362s.04008-.03787.10302-.09733c.06109-.06294.15811-.14893.23267-.26441.16078-.22581.34592-.53383.43057-.81901.12372-.58313-.14792-.89219-.47884-.93947-.33953-.04932-.66785.13599-.77123.63163-.07454.24342-.07566.55388-.06133.81441.01317.13206.00236.23973.00511.32119.00166.07939.00272.12995.00272.12995M33.08134,17.57142s.09854-.17961.20143-.43928c.09268-.25941.23244-.59869.20167-.89538-.03634-.59612-.35776-.82545-.69394-.78425-.33619.0412-.62642.30594-.59319.81172.02985.25417.06789.56006.1528.8077.07476.24746.1528.43717.1528.43717M33.01444,14.97243s.05068-.20114.08481-.48343c.01522-.1405.0341-.30306.02659-.46408-.01829-.15833-.04907-.31857-.09712-.45996-.09714-.28287-.23627-.46185-.39449-.54456-.17055-.07839-.34519-.06841-.49974.0011-.15453.06951-.27413.19033-.32823.34638-.06575.16172-.08195.36366.0006.60264.04089.11992.10659.2432.18303.36317.06574.12301.12831.24668.1962.35437.13212.21607.25415.37788.25415.37788M32.19763,12.49479s-.00032-.21513-.05731-.4933c-.07203-.2677-.19252-.60725-.35956-.85484-.36792-.47269-.78345-.45598-1.02815-.23061-.25428.23265-.31578.60091-.00602.99739.1399.21129.37851.40862.58886.56309.19364.1624.34553.28571.34553.28571M30.66409,10.38747s-.07632-.19123-.21233-.43736c-.1321-.24965-.33188-.54855-.57404-.71512-.46996-.35966-.8535-.24949-1.04075.04123-.17934.27903-.15291.66568.25408.97789.2151.14589.49387.28033.72783.38369.23669.09892.4318.15898.4318.15898M28.61286,8.79877s-.1156-.17394-.29883-.38848c-.19007-.19903-.45615-.42556-.71612-.55541-.52559-.25296-.88806-.03887-1.00778.26887-.12674.32347-.00669.67018.46167.89699.23345.11751.54971.17132.80955.20721.25036.04999.45053.06869.45053.06869M26.28151,7.68752s-.147-.14653-.37004-.30742c-.22285-.15823-.51656-.35722-.79633-.42473-.56218-.1343-.87528.105-.94336.43695-.06809.33195.10041.68586.61233.80719.25695.0615.57213.08268.83605.06862.26265-.01182.46356-.0335.46356-.0335M23.79365,7.02358s-.16923-.1178-.41347-.24798c-.24269-.13757-.56535-.26236-.85168-.28713-.57351-.06439-.84621.2326-.86241.57456-.01573.33502.20648.64645.73067.70611.264.02252.58314-.03117.83941-.0701.25671-.04645.45232-.10327.45232-.10327M21.23527,6.75766s-.18558-.09475-.44638-.19081c-.25395-.08821-.57691-.17642-.85294-.17642-.55204,0-.79957.30478-.79957.64371s.24753.64371.79957.64371c.27603,0,.59899-.08821.85294-.17642.24684-.08038.43094-.16222.43094-.16222M18.69759,6.74327s-.73979-.35283-1.29184-.35283-.79957.30478-.79957.64371.24752.64371.79957.64371,1.29184-.35283,1.29184-.35283M16.16739,6.74327s-.73979-.35283-1.29184-.35283-.79958.30478-.79958.64371.24753.64371.79958.64371,1.29184-.35283,1.29184-.35283M13.63719,6.74327s-.73979-.35283-1.29184-.35283-.79958.30478-.79958.64371.24753.64371.79958.64371,1.29184-.35283,1.29184-.35283M11.10699,6.74327s-.73979-.35283-1.29185-.35283-.79957.30478-.79957.64371.24753.64371.79957.64371,1.29185-.35283,1.29185-.35283M8.57678,6.74327s-.73979-.35283-1.29184-.35283-.79957.30478-.79957.64371.24752.64371.79957.64371,1.29184-.35283,1.29184-.35283M20.87255,26.83126s.14159.80729.46174,1.25703.71199.47464.98811.27808c.27612-.19656.38086-.57496.06071-1.02469-.32015-.44974-1.03661-.8478-1.03661-.8478M22.33306,28.88292s.14159.80729.46174,1.25703.71199.47464.98811.27808c.27612-.19656.38086-.57496.06071-1.02469s-1.03662-.8478-1.03662-.8478M23.79356,30.93459s.14159.8073.46174,1.25703c.32015.44974.71198.47464.98811.27808.27612-.19656.38086-.57496.0607-1.02469-.32015-.44974-1.03661-.8478-1.03661-.8478M25.25407,32.98625s.14159.8073.46174,1.25704c.32015.44973.71199.47464.9881.27807.27613-.19656.38087-.57496.06072-1.02469s-1.03663-.8478-1.03663-.8478M26.71458,35.03792s.14158.8073.46173,1.25704.71199.47464.98812.27807c.27611-.19656.38085-.57496.0607-1.02469s-1.03661-.8478-1.03661-.8478M28.17509,37.08958s.14158.8073.46173,1.25704.71199.47464.98812.27807c.27611-.19656.38085-.57496.0607-1.02469s-1.03661-.8478-1.03661-.8478M29.63558,39.14124s.14159.8073.46174,1.25704.71199.47464.98812.27807c.27611-.19656.38085-.57496.0607-1.02469s-1.03661-.84779-1.03661-.84779M31.09609,41.19291s.14159.8073.46174,1.25704.71199.47464.9881.27807c.27613-.19656.38087-.57496.06072-1.02469s-1.03661-.84779-1.03661-.84779M32.5566,43.24457s.14159.8073.46174,1.25704.71199.47464.9881.27808c.27613-.19656.38087-.57496.06072-1.0247s-1.03663-.84779-1.03663-.84779M34.01711,45.29624s.14159.80729.46174,1.25703.71197.47464.9881.27808c.27613-.19656.38087-.57496.06072-1.0247-.32017-.44973-1.03663-.84779-1.03663-.84779M35.47762,47.34791s.14158.80729.46173,1.25703.71199.47464.98812.27808c.27611-.19656.38085-.57496.0607-1.02469-.32015-.44974-1.03661-.8478-1.03661-.8478M19.0584,29.52565s.13645.80819.45373,1.25994c.31729.45176.70896.47916.98632.28436.27737-.1948.38451-.57253.06723-1.02429-.31729-.45176-1.03121-.85437-1.03121-.85437M20.60921,31.73377s.13645.80819.45373,1.25995c.31729.45176.70896.47915.98632.28435.27737-.1948.38451-.57253.06723-1.02429s-1.0312-.85437-1.0312-.85437M22.16003,33.94189s.13645.80819.45374,1.25995c.31728.45176.70895.47915.98632.28435.27737-.1948.38451-.57253.06723-1.02429-.31728-.45176-1.0312-.85437-1.0312-.85437M23.71086,36.15001s.13645.80819.45373,1.25995.70896.47916.98632.28435c.27736-.1948.38451-.57253.06723-1.02429-.31729-.45176-1.03121-.85437-1.03121-.85437M25.26167,38.35813s.13645.80819.45373,1.25995c.31729.45176.70897.47916.98632.28435.27737-.1948.38452-.57253.06723-1.02429s-1.03121-.85437-1.03121-.85437M26.8125,40.56625s.13645.80819.45373,1.25995.70895.47916.98632.28435.38451-.57253.06723-1.02429c-.31729-.45176-1.03121-.85437-1.03121-.85437M28.36331,42.77438s.13646.80818.45373,1.25994c.31729.45176.70897.47916.98633.28435s.38451-.57253.06722-1.02428c-.31729-.45176-1.03119-.85438-1.03119-.85438M29.91414,44.9825s.13645.80818.45373,1.25994.70895.47916.98632.28435c.27737-.19479.38452-.57252.06723-1.02428s-1.03121-.85438-1.03121-.85438M31.46496,47.19062s.13645.80818.45373,1.25994.70895.47916.98632.28435c.27737-.19479.38451-.57252.06723-1.02428-.31729-.45176-1.03121-.85437-1.03121-.85437M18.95653,34.71818s.12257.81041.43206,1.26754c.30949.45714.70063.49124.9813.30123s.39428-.56584.08478-1.02298c-.30949-.45714-1.0164-.87194-1.0164-.87194M20.37617,36.81507s.12257.81041.43206,1.26754c.30949.45714.70063.49124.9813.30123s.39428-.56584.08478-1.02298c-.30949-.45714-1.0164-.87194-1.0164-.87194M21.7958,38.91196s.12257.81041.43207,1.26754c.30949.45714.70063.49124.9813.30123.28066-.19001.39427-.56584.08478-1.02298-.30949-.45714-1.0164-.87194-1.0164-.87194M23.21544,41.00886s.12257.81041.43206,1.26754c.30949.45714.70064.49124.98131.30123.28066-.19001.39427-.56584.08478-1.02298-.30949-.45714-1.0164-.87194-1.0164-.87194M24.63508,43.10575s.12257.81041.43206,1.26754c.30949.45714.70064.49124.98131.30123.28066-.19001.39427-.56584.08478-1.02298-.3095-.45714-1.0164-.87194-1.0164-.87194M26.05472,45.20265s.12257.81041.43207,1.26754c.30949.45714.70063.49124.9813.30123.28066-.19002.39427-.56585.08478-1.02299-.3095-.45714-1.01641-.87193-1.01641-.87193M27.47436,47.29955s.12257.8104.43205,1.26753c.3095.45714.70063.49124.98131.30123.28066-.19002.39427-.56585.08478-1.02299-.3095-.45714-1.01641-.87193-1.01641-.87193M31.16032,29.62443s.20608-.00152.47957-.03572c.27592-.02786.60892-.11362.85917-.25268.50664-.27104.55648-.68018.37844-.96524-.18089-.28987-.53498-.40987-1.00282-.16065-.23238.1291-.46239.36023-.65003.54128-.18386.1867-.31085.34607-.31085.34607M33.4212,28.37198s.21172-.01858.47122-.10317c.2613-.0806.58899-.20221.81876-.37518.44778-.36686.44724-.76145.22445-1.01676-.22281-.25531-.60596-.33578-1.01154-.00205-.21127.15864-.41335.40714-.56289.62504-.13814.20615-.2579.38489-.2579.38489M35.47019,26.78757s.19664-.0638.44913-.1805c.25871-.10918.54363-.30515.7416-.51617.40242-.42056.3022-.83528.04317-1.03986-.27236-.21599-.63295-.20242-.99605.17414-.18.19111-.31579.48697-.44071.71226-.11735.2314-.19009.42111-.19009.42111M37.21932,24.86932s.18986-.09293.40513-.26391c.21526-.16957.49226-.39486.6358-.64743.28798-.50816.14428-.8749-.15744-1.02907-.30172-.15417-.68901-.08994-.94433.36307-.1286.22772-.23937.52148-.30003.77799-.05593.24109-.10442.45015-.10442.45015M38.5623,22.64447s.15898-.13304.35041-.33697c.2021-.19879.38272-.49262.48836-.76287.2125-.54424-.04129-.88742-.35925-.9772-.33402-.09495-.66087.05802-.85259.54258-.09603.24326-.10026.57145-.13346.82448-.02205.25694-.01856.45952-.01856.45952M39.44551,20.20111s.03404-.04248.08747-.10918c.05644-.06856.12334-.16853.18954-.28824.13608-.23802.287-.55381.3414-.83781.07705-.57415-.20572-.86196-.54056-.89409-.33973-.03288-.66222.17365-.7311.69326-.05036.25803-.02202.57641.01766.83707.03847.24388.07183.45534.07183.45534M39.86251,17.64084s.09503-.1814.19282-.43927c.09247-.25718.21-.59288.19617-.88066-.03786-.57806-.35975-.81451-.69769-.7897-.33796.02481-.62639.28227-.58963.80579.01348.26318.07296.57349.15745.82371.07917.2497.16064.43794.16064.43794M39.8126,15.04941s.07507-.19609.14441-.46857c.04533-.26905.06501-.61466.01222-.89886-.10912-.57069-.45423-.75015-.78247-.66602-.32823.08412-.58053.39093-.48262.90476.04787.25843.19786.54611.3257.77759.10367.23427.20371.40723.20371.40723M39.3395,12.50036s.02693-.20342.02982-.48067c.00314-.27655-.01877-.62888-.10904-.90441-.24111-.53106-.63179-.63445-.93631-.48891-.30698.14652-.47908.48799-.26162.96055.07999.24961.25726.51172.41704.71831.15954.2059.30054.35435.30054.35435M38.38953,10.08237s.00481-.2143-.04361-.488c-.06255-.26503-.16778-.59781-.3229-.84317-.30659-.49707-.70226-.52616-.98094-.31802-.26405.19763-.37312.57113-.10119,1.01549.13962.22142.37925.4348.58786.59923.19363.17173.34278.2993.34278.2993M36.98366,7.90018s-.04943-.20084-.14793-.46165c-.09826-.26003-.2396-.58869-.45621-.78116-.41412-.4069-.80686-.36422-1.03658-.11513-.22972.24908-.2689.63828.10547,1.00425.19919.17433.45012.36071.6727.49436.22184.13333.40572.21953.40572.21953M35.20939,6.00619s-.36504-.74028-.82193-1.10098c-.45505-.35638-.86039-.20979-1.04004.06373-.19318.29242-.13841.64564.2745.97137.40868.32473,1.20356.503,1.20356.503M33.11961,4.4765s-.11094-.17626-.28578-.39327c-.17214-.22092-.43538-.43545-.68609-.57328-.50929-.26565-.86661-.10787-1.01006.19915-.14344.30703-.06183.69375.40781.93874.2325.12822.56216.17764.81239.23973.25229.05781.45243.08168.45243.08168M30.84009,3.26052s-.55479-.61848-1.08805-.83382c-.54255-.1788-.87908.03171-.98289.35431-.10381.3226.03001.68756.53644.85322.48965.19907,1.29757.15762,1.29757.15762M28.42162,2.36079s-.15001-.15067-.37715-.30053c-.22736-.14729-.52788-.31271-.80383-.38095-.55283-.14056-.86163.10507-.92883.4428-.06495.32707.10996.67661.6273.80882.25993.0644.5864.05419.85206.02894.26447-.02292.46137-.04243.46137-.04243M25.91618,1.75847s-.16823-.11867-.40929-.24985c-.24126-.1263-.55373-.28717-.83729-.30631-.56612-.05838-.84661.21944-.87651.55702s.18207.6659.71429.72015c.26836.01723.58763.00075.84816-.0486.25941-.04459.45566-.10019.45566-.10019M23.36211,1.42284s-.17929-.10844-.43359-.20071c-.25357-.09699-.58207-.19651-.86567-.20605-.57082-.02377-.80999.29082-.81193.62763-.002.34096.2542.63624.78667.65955.26813.00926.58517-.06826.83922-.14796.23697-.08155.44243-.15227.44243-.15227M20.79615,1.35283s-.73979-.35283-1.29184-.35283-.79958.30478-.79958.64371.24753.64372.79958.64372,1.29184-.35283,1.29184-.35283M18.24996,1.35283s-.73979-.35283-1.29184-.35283-.79957.30478-.79957.64371.24752.64372.79957.64372,1.29184-.35283,1.29184-.35283M15.70378,1.35283s-.73979-.35283-1.29184-.35283-.79958.30478-.79958.64371.24753.64372.79958.64372,1.29184-.35283,1.29184-.35283M13.15759,1.35283s-.73979-.35283-1.29184-.35283-.79957.30478-.79957.64371.24752.64372.79957.64372,1.29184-.35283,1.29184-.35283M10.61141,1.35283s-.73979-.35283-1.29184-.35283-.79958.30478-.79958.64371.24753.64372.79958.64372,1.29184-.35283,1.29184-.35283M8.06523,1.35283s-.73979-.35283-1.29185-.35283-.79957.30478-.79957.64371.24753.64372.79957.64372,1.29185-.35283,1.29185-.35283M30.78343,29.95992s.14592.80653.46848,1.25454.71453.4708.9896.27276c.27505-.19804.37777-.577.0552-1.02501s-1.04116-.84221-1.04116-.84221M32.33865,32.11996s.14594.80652.4685,1.25453.71453.4708.9896.27276c.27505-.19804.37775-.577.05519-1.02501s-1.04115-.8422-1.04115-.8422M33.89388,34.27999s.14592.80653.4685,1.25454c.32256.448.71453.4708.98958.27276.27507-.19804.37777-.577.0552-1.02501s-1.04116-.84221-1.04116-.84221M35.44912,36.44003s.14592.80653.46848,1.25454.71453.4708.9896.27276c.27505-.19804.37777-.577.0552-1.02501-.32258-.44801-1.04116-.84221-1.04116-.84221M37.00433,38.60007s.14594.80652.4685,1.25453.71453.4708.98958.27276c.27507-.19804.37777-.577.0552-1.025-.32256-.44801-1.04116-.84221-1.04116-.84221M38.55957,40.76011s.14592.80653.4685,1.25454c.32256.44801.71453.4708.98958.27276.27507-.19804.37777-.577.0552-1.02501s-1.04116-.84221-1.04116-.84221M40.1148,42.92015s.14592.80652.46848,1.25453.71453.4708.9896.27276c.27505-.19804.37777-.577.0552-1.02501-.32258-.44801-1.04116-.84221-1.04116-.84221M41.67002,45.08018s.14594.80652.4685,1.25453.71453.4708.98958.27276c.27507-.19804.37777-.577.0552-1.02501s-1.04116-.84221-1.04116-.84221M43.22525,47.24022s.14592.80653.46848,1.25454c.32258.44801.71453.4708.9896.27276s.37777-.577.0552-1.02501-1.04116-.84221-1.04116-.84221M8.5502,2.36261s-.35283.73979-.35283,1.29184.30477.79958.64371.79958.64371-.24753.64371-.79958-.35283-1.29184-.35283-1.29184M8.5502,4.83117s-.35283.73979-.35283,1.29184.30477.79958.64371.79958.64371-.24753.64371-.79958-.35283-1.29184-.35283-1.29184M8.5502,7.29974s-.35283.73979-.35283,1.29184.30477.79958.64371.79958.64371-.24753.64371-.79958-.35283-1.29184-.35283-1.29184M8.5502,9.7683s-.35283.73979-.35283,1.29184.30477.79958.64371.79958.64371-.24753.64371-.79958-.35283-1.29184-.35283-1.29184M8.5502,12.23687s-.35283.73979-.35283,1.29184.30477.79957.64371.79957.64371-.24752.64371-.79957-.35283-1.29184-.35283-1.29184M8.5502,14.70543s-.35283.73979-.35283,1.29184.30477.79957.64371.79957.64371-.24752.64371-.79957-.35283-1.29184-.35283-1.29184M8.5502,17.17399s-.35283.73979-.35283,1.29184.30477.79957.64371.79957.64371-.24752.64371-.79957-.35283-1.29184-.35283-1.29184M8.5502,19.64255s-.35283.73979-.35283,1.29185.30477.79957.64371.79957.64371-.24753.64371-.79957-.35283-1.29185-.35283-1.29185M8.5502,22.11111s-.35283.73979-.35283,1.29184.30477.79958.64371.79958.64371-.24753.64371-.79958-.35283-1.29184-.35283-1.29184M8.5502,24.57968s-.35283.73979-.35283,1.29184.30477.79958.64371.79958.64371-.24753.64371-.79958-.35283-1.29184-.35283-1.29184M8.5502,27.04824s-.35283.73979-.35283,1.29184.30477.79958.64371.79958.64371-.24753.64371-.79958-.35283-1.29184-.35283-1.29184M8.5502,29.51681s-.35283.73979-.35283,1.29184.30477.79958.64371.79958.64371-.24753.64371-.79958-.35283-1.29184-.35283-1.29184M8.5502,31.98537s-.35283.73979-.35283,1.29184.30477.79957.64371.79957.64371-.24752.64371-.79957-.35283-1.29184-.35283-1.29184M8.5502,34.45394s-.35283.73979-.35283,1.29184.30477.79957.64371.79957.64371-.24752.64371-.79957-.35283-1.29184-.35283-1.29184M8.5502,36.9225s-.35283.73979-.35283,1.29184.30477.79957.64371.79957.64371-.24752.64371-.79957-.35283-1.29184-.35283-1.29184M8.5502,39.39106s-.35283.73979-.35283,1.29185.30477.79957.64371.79957.64371-.24753.64371-.79957-.35283-1.29185-.35283-1.29185M8.5502,41.85962s-.35283.73979-.35283,1.29184.30477.79958.64371.79958.64371-.24753.64371-.79958-.35283-1.29184-.35283-1.29184M8.5502,44.32818s-.35283.73979-.35283,1.29184.30477.79958.64371.79958.64371-.24753.64371-.79958-.35283-1.29184-.35283-1.29184M8.5502,46.79675s-.35283.73979-.35283,1.29184.30477.79958.64371.79958.64371-.24753.64371-.79958-.35283-1.29184-.35283-1.29184M11.78446,2.36261s-.35283.73979-.35283,1.29184.30478.79958.64371.79958.64372-.24753.64372-.79958-.35283-1.29184-.35283-1.29184M11.78446,4.83117s-.35283.73979-.35283,1.29184.30478.79958.64371.79958.64372-.24753.64372-.79958-.35283-1.29184-.35283-1.29184M11.78446,7.29974s-.35283.73979-.35283,1.29184.30478.79958.64371.79958.64372-.24753.64372-.79958-.35283-1.29184-.35283-1.29184M11.78446,9.7683s-.35283.73979-.35283,1.29184.30478.79958.64371.79958.64372-.24753.64372-.79958-.35283-1.29184-.35283-1.29184M11.78446,12.23687s-.35283.73979-.35283,1.29184.30478.79957.64371.79957.64372-.24752.64372-.79957-.35283-1.29184-.35283-1.29184M11.78446,14.70543s-.35283.73979-.35283,1.29184.30478.79957.64371.79957.64372-.24752.64372-.79957-.35283-1.29184-.35283-1.29184M11.78446,17.17399s-.35283.73979-.35283,1.29184.30478.79957.64371.79957.64372-.24752.64372-.79957-.35283-1.29184-.35283-1.29184M11.78446,19.64255s-.35283.73979-.35283,1.29185.30478.79957.64371.79957.64372-.24753.64372-.79957-.35283-1.29185-.35283-1.29185M11.78446,22.11111s-.35283.73979-.35283,1.29184.30478.79958.64371.79958.64372-.24753.64372-.79958-.35283-1.29184-.35283-1.29184M11.78446,24.57968s-.35283.73979-.35283,1.29184.30478.79958.64371.79958.64372-.24753.64372-.79958-.35283-1.29184-.35283-1.29184M11.78446,27.04824s-.35283.73979-.35283,1.29184.30478.79958.64371.79958.64372-.24753.64372-.79958-.35283-1.29184-.35283-1.29184M11.78446,29.51681s-.35283.73979-.35283,1.29184.30478.79958.64371.79958.64372-.24753.64372-.79958-.35283-1.29184-.35283-1.29184M11.78446,31.98537s-.35283.73979-.35283,1.29184.30478.79957.64371.79957.64372-.24752.64372-.79957-.35283-1.29184-.35283-1.29184M11.78446,34.45394s-.35283.73979-.35283,1.29184.30478.79957.64371.79957.64372-.24752.64372-.79957-.35283-1.29184-.35283-1.29184M11.78446,36.9225s-.35283.73979-.35283,1.29184.30478.79957.64371.79957.64372-.24752.64372-.79957-.35283-1.29184-.35283-1.29184M11.78446,39.39106s-.35283.73979-.35283,1.29185.30478.79957.64371.79957.64372-.24753.64372-.79957-.35283-1.29185-.35283-1.29185M11.78446,41.85962s-.35283.73979-.35283,1.29184.30478.79958.64371.79958.64372-.24753.64372-.79958-.35283-1.29184-.35283-1.29184M11.78446,44.32818s-.35283.73979-.35283,1.29184.30478.79958.64371.79958.64372-.24753.64372-.79958-.35283-1.29184-.35283-1.29184M11.78446,46.79675s-.35283.73979-.35283,1.29184.30478.79958.64371.79958.64372-.24753.64372-.79958-.35283-1.29184-.35283-1.29184M14.92071,2.36261s-.35283.73979-.35283,1.29184.30477.79958.64371.79958.64371-.24753.64371-.79958-.35283-1.29184-.35283-1.29184M14.92071,4.83117s-.35283.73979-.35283,1.29184.30477.79958.64371.79958.64371-.24753.64371-.79958-.35283-1.29184-.35283-1.29184M14.92071,7.29974s-.35283.73979-.35283,1.29184.30477.79958.64371.79958.64371-.24753.64371-.79958-.35283-1.29184-.35283-1.29184M14.92071,9.7683s-.35283.73979-.35283,1.29184.30477.79958.64371.79958.64371-.24753.64371-.79958-.35283-1.29184-.35283-1.29184M14.92071,12.23687s-.35283.73979-.35283,1.29184.30477.79957.64371.79957.64371-.24752.64371-.79957-.35283-1.29184-.35283-1.29184M14.92071,14.70543s-.35283.73979-.35283,1.29184.30477.79957.64371.79957.64371-.24752.64371-.79957-.35283-1.29184-.35283-1.29184M14.92071,17.17399s-.35283.73979-.35283,1.29184.30477.79957.64371.79957.64371-.24752.64371-.79957-.35283-1.29184-.35283-1.29184M14.92071,19.64255s-.35283.73979-.35283,1.29185.30477.79957.64371.79957.64371-.24753.64371-.79957-.35283-1.29185-.35283-1.29185M14.92071,22.11111s-.35283.73979-.35283,1.29184.30477.79958.64371.79958.64371-.24753.64371-.79958-.35283-1.29184-.35283-1.29184M14.92071,24.57968s-.35283.73979-.35283,1.29184.30477.79958.64371.79958.64371-.24753.64371-.79958-.35283-1.29184-.35283-1.29184M14.92071,27.04824s-.35283.73979-.35283,1.29184.30477.79958.64371.79958.64371-.24753.64371-.79958-.35283-1.29184-.35283-1.29184M14.92071,29.51681s-.35283.73979-.35283,1.29184.30477.79958.64371.79958.64371-.24753.64371-.79958-.35283-1.29184-.35283-1.29184M14.92071,31.98537s-.35283.73979-.35283,1.29184.30477.79957.64371.79957.64371-.24752.64371-.79957-.35283-1.29184-.35283-1.29184M14.92071,34.45394s-.35283.73979-.35283,1.29184.30477.79957.64371.79957.64371-.24752.64371-.79957-.35283-1.29184-.35283-1.29184M14.92071,36.9225s-.35283.73979-.35283,1.29184.30477.79957.64371.79957.64371-.24752.64371-.79957-.35283-1.29184-.35283-1.29184M14.92071,39.39106s-.35283.73979-.35283,1.29185.30477.79957.64371.79957.64371-.24753.64371-.79957-.35283-1.29185-.35283-1.29185M14.92071,41.85962s-.35283.73979-.35283,1.29184.30477.79958.64371.79958.64371-.24753.64371-.79958-.35283-1.29184-.35283-1.29184M14.92071,44.32818s-.35283.73979-.35283,1.29184.30477.79958.64371.79958.64371-.24753.64371-.79958-.35283-1.29184-.35283-1.29184M14.92071,46.79675s-.35283.73979-.35283,1.29184.30477.79958.64371.79958.64371-.24753.64371-.79958-.35283-1.29184-.35283-1.29184M18.05696,2.36261s-.35283.73979-.35283,1.29184.30477.79958.64371.79958.64371-.24753.64371-.79958-.35283-1.29184-.35283-1.29184M18.05696,4.83117s-.35283.73979-.35283,1.29184.30477.79958.64371.79958.64371-.24753.64371-.79958-.35283-1.29184-.35283-1.29184M18.05696,7.29974s-.35283.73979-.35283,1.29184.30477.79958.64371.79958.64371-.24753.64371-.79958-.35283-1.29184-.35283-1.29184M18.05696,9.7683s-.35283.73979-.35283,1.29184.30477.79958.64371.79958.64371-.24753.64371-.79958-.35283-1.29184-.35283-1.29184M18.05696,12.23687s-.35283.73979-.35283,1.29184.30477.79957.64371.79957.64371-.24752.64371-.79957-.35283-1.29184-.35283-1.29184M18.05696,14.70543s-.35283.73979-.35283,1.29184.30477.79957.64371.79957.64371-.24752.64371-.79957-.35283-1.29184-.35283-1.29184M18.05696,17.17399s-.35283.73979-.35283,1.29184.30477.79957.64371.79957.64371-.24752.64371-.79957-.35283-1.29184-.35283-1.29184M18.05696,19.64255s-.35283.73979-.35283,1.29185.30477.79957.64371.79957.64371-.24753.64371-.79957-.35283-1.29185-.35283-1.29185M18.05696,22.11111s-.35283.73979-.35283,1.29184.30477.79958.64371.79958.64371-.24753.64371-.79958-.35283-1.29184-.35283-1.29184M18.05696,24.57968s-.35283.73979-.35283,1.29184.30477.79958.64371.79958.64371-.24753.64371-.79958-.35283-1.29184-.35283-1.29184M18.05696,27.04824s-.35283.73979-.35283,1.29184.30477.79958.64371.79958.64371-.24753.64371-.79958-.35283-1.29184-.35283-1.29184M18.05696,29.51681s-.35283.73979-.35283,1.29184.30477.79958.64371.79958.64371-.24753.64371-.79958-.35283-1.29184-.35283-1.29184M18.05696,31.98537s-.35283.73979-.35283,1.29184.30477.79957.64371.79957.64371-.24752.64371-.79957-.35283-1.29184-.35283-1.29184M18.05696,34.45394s-.35283.73979-.35283,1.29184.30477.79957.64371.79957.64371-.24752.64371-.79957-.35283-1.29184-.35283-1.29184M18.05696,36.9225s-.35283.73979-.35283,1.29184.30477.79957.64371.79957.64371-.24752.64371-.79957-.35283-1.29184-.35283-1.29184M18.05696,39.39106s-.35283.73979-.35283,1.29185.30477.79957.64371.79957.64371-.24753.64371-.79957-.35283-1.29185-.35283-1.29185M18.05696,41.85962s-.35283.73979-.35283,1.29184.30477.79958.64371.79958.64371-.24753.64371-.79958-.35283-1.29184-.35283-1.29184M18.05696,44.32818s-.35283.73979-.35283,1.29184.30477.79958.64371.79958.64371-.24753.64371-.79958-.35283-1.29184-.35283-1.29184M18.05696,46.79675s-.35283.73979-.35283,1.29184.30477.79958.64371.79958.64371-.24753.64371-.79958-.35283-1.29184-.35283-1.29184M5.41395,1.86145s-.35283.73979-.35283,1.29184.30478.79958.64371.79958.64372-.24753.64372-.79958-.35283-1.29184-.35283-1.29184M5.41395,4.35639s-.35283.73979-.35283,1.29184.30478.79957.64371.79957.64372-.24752.64372-.79957-.35283-1.29184-.35283-1.29184M5.41395,6.85133s-.35283.73979-.35283,1.29184.30478.79958.64371.79958.64372-.24753.64372-.79958-.35283-1.29184-.35283-1.29184M5.41395,9.34627s-.35283.73979-.35283,1.29184.30478.79958.64371.79958.64372-.24753.64372-.79958-.35283-1.29184-.35283-1.29184M5.41395,11.84121s-.35283.73979-.35283,1.29184.30478.79957.64371.79957.64372-.24752.64372-.79957-.35283-1.29184-.35283-1.29184M5.41395,14.33615s-.35283.73979-.35283,1.29184.30478.79958.64371.79958.64372-.24753.64372-.79958-.35283-1.29184-.35283-1.29184M5.41395,16.83109s-.35283.73979-.35283,1.29184.30478.79957.64371.79957.64372-.24752.64372-.79957-.35283-1.29184-.35283-1.29184M5.41395,19.32603s-.35283.73979-.35283,1.29185.30478.79957.64371.79957.64372-.24753.64372-.79957-.35283-1.29185-.35283-1.29185M5.41395,21.82097s-.35283.73979-.35283,1.29184.30478.79958.64371.79958.64372-.24753.64372-.79958-.35283-1.29184-.35283-1.29184M5.41395,24.31591s-.35283.73979-.35283,1.29184.30478.79957.64371.79957.64372-.24752.64372-.79957-.35283-1.29184-.35283-1.29184M5.41395,26.81085s-.35283.73979-.35283,1.29184.30478.79958.64371.79958.64372-.24753.64372-.79958-.35283-1.29184-.35283-1.29184M5.41395,29.30579s-.35283.73979-.35283,1.29184.30478.79958.64371.79958.64372-.24753.64372-.79958-.35283-1.29184-.35283-1.29184M5.41395,31.80073s-.35283.73979-.35283,1.29184.30478.79957.64371.79957.64372-.24752.64372-.79957-.35283-1.29184-.35283-1.29184M5.41395,34.29567s-.35283.73979-.35283,1.29184.30478.79958.64371.79958.64372-.24753.64372-.79958-.35283-1.29184-.35283-1.29184M5.41395,36.79061s-.35283.73979-.35283,1.29184.30478.79957.64371.79957.64372-.24752.64372-.79957-.35283-1.29184-.35283-1.29184M5.41395,39.28555s-.35283.73979-.35283,1.29185.30478.79957.64371.79957.64372-.24753.64372-.79957-.35283-1.29185-.35283-1.29185M5.41395,41.78049s-.35283.73979-.35283,1.29184.30478.79958.64371.79958.64372-.24753.64372-.79958-.35283-1.29184-.35283-1.29184M5.41395,44.27543s-.35283.73979-.35283,1.29184.30478.79957.64371.79957.64372-.24752.64372-.79957-.35283-1.29184-.35283-1.29184M5.41395,46.77037s-.35283.73979-.35283,1.29184.30478.79958.64371.79958.64372-.24753.64372-.79958-.35283-1.29184-.35283-1.29184"/>
    </g>
  </g>
</svg>