
<svg xmlns="http://www.w3.org/2000/svg" version="1.1" viewBox="0 0 46 50">
  <defs>
    <style>
      .cls-1 {
        fill: none;
        stroke-linecap: round;
        stroke-miterlimit: 10;
        stroke-width: .25px;
      }
    </style>
  </defs>
  <g>
    <g>
      <g id="stitch-3">
        <path class="cls-1" d="M10.08766,41.87898c-.07669.07669-.40282-.12509-.72842-.45069s-.52738-.65173-.45069-.72842.40282.12509.72842.45069.52738.65173.45069.72842ZM11.53151,43.32282c-.07669.07669-.40282-.12509-.72842-.45069s-.52738-.65173-.45069-.72842.40282.12509.72842.45069.52738.65173.45069.72842ZM10.08766,42.14371c.07669.07669-.12509.40282-.45069.72842s-.65173.52738-.72842.45069.12509-.40282.45069-.72842.65173-.52738.72842-.45069ZM11.53151,40.69987c.07669.07669-.12509.40282-.45069.72842s-.65173.52738-.72842.45069.12509-.40282.45069-.72842.65173-.52738.72842-.45069ZM12.91811,41.87898c-.07669.07669-.40282-.12509-.72842-.45069s-.52738-.65173-.45069-.72842.40282.12509.72842.45069.52738.65173.45069.72842ZM14.36196,43.32282c-.07669.07669-.40282-.12509-.72842-.45069s-.52738-.65173-.45069-.72842.40282.12509.72842.45069.52738.65173.45069.72842ZM12.91811,42.14371c.07669.07669-.12509.40282-.45069.72842s-.65173.52738-.72842.45069.12509-.40282.45069-.72842.65173-.52738.72842-.45069ZM14.36196,40.69987c.07669.07669-.12509.40282-.45069.72842s-.65173.52738-.72842.45069.12509-.40282.45069-.72842.65173-.52738.72842-.45069ZM15.74857,41.87898c-.07669.07669-.40282-.12509-.72842-.45069s-.52738-.65173-.45069-.72842.40282.12509.72842.45069.52738.65173.45069.72842ZM17.19241,43.32282c-.07669.07669-.40282-.12509-.72842-.45069s-.52738-.65173-.45069-.72842.40282.12509.72842.45069.52738.65173.45069.72842ZM15.74857,42.14371c.07669.07669-.12509.40282-.45069.72842s-.65173.52738-.72842.45069.12509-.40282.45069-.72842.65173-.52738.72842-.45069ZM17.19241,40.69987c.07669.07669-.12509.40282-.45069.72842s-.65173.52738-.72842.45069.12509-.40282.45069-.72842.65173-.52738.72842-.45069ZM10.08766,44.70943c-.07669.07669-.40282-.12509-.72842-.45069s-.52738-.65173-.45069-.72842.40282.12509.72842.45069.52738.65173.45069.72842ZM11.53151,46.15328c-.07669.07669-.40282-.12509-.72842-.45069s-.52738-.65173-.45069-.72842.40282.12509.72842.45069.52738.65173.45069.72842ZM10.08766,44.97417c.07669.07669-.12509.40282-.45069.72842s-.65173.52738-.72842.45069.12509-.40282.45069-.72842.65173-.52738.72842-.45069ZM11.53151,43.53032c.07669.07669-.12509.40282-.45069.72842s-.65173.52738-.72842.45069.12509-.40282.45069-.72842.65173-.52738.72842-.45069ZM12.91811,44.70943c-.07669.07669-.40282-.12509-.72842-.45069s-.52738-.65173-.45069-.72842.40282.12509.72842.45069.52738.65173.45069.72842ZM14.36196,46.15328c-.07669.07669-.40282-.12509-.72842-.45069s-.52738-.65173-.45069-.72842.40282.12509.72842.45069.52738.65173.45069.72842ZM12.91811,44.97417c.07669.07669-.12509.40282-.45069.72842s-.65173.52738-.72842.45069.12509-.40282.45069-.72842.65173-.52738.72842-.45069ZM14.36196,43.53032c.07669.07669-.12509.40282-.45069.72842s-.65173.52738-.72842.45069.12509-.40282.45069-.72842.65173-.52738.72842-.45069ZM15.74857,44.70943c-.07669.07669-.40282-.12509-.72842-.45069s-.52738-.65173-.45069-.72842.40282.12509.72842.45069.52738.65173.45069.72842ZM17.19241,46.15328c-.07669.07669-.40282-.12509-.72842-.45069s-.52738-.65173-.45069-.72842.40282.12509.72842.45069.52738.65173.45069.72842ZM15.74857,44.97417c.07669.07669-.12509.40282-.45069.72842s-.65173.52738-.72842.45069.12509-.40282.45069-.72842.65173-.52738.72842-.45069ZM17.19241,43.53032c.07669.07669-.12509.40282-.45069.72842s-.65173.52738-.72842.45069.12509-.40282.45069-.72842.65173-.52738.72842-.45069ZM10.08766,47.53988c-.07669.07669-.40282-.12509-.72842-.45069s-.52738-.65173-.45069-.72842.40282.12509.72842.45069.52738.65173.45069.72842ZM11.53151,48.98373c-.07669.07669-.40282-.12509-.72842-.45069s-.52738-.65173-.45069-.72842.40282.12509.72842.45069.52738.65173.45069.72842ZM10.08766,47.80462c.07669.07669-.12509.40282-.45069.72842s-.65173.52738-.72842.45069.12509-.40282.45069-.72842.65173-.52738.72842-.45069ZM11.53151,46.36077c.07669.07669-.12509.40282-.45069.72842s-.65173.52738-.72842.45069.12509-.40282.45069-.72842.65173-.52738.72842-.45069ZM12.91811,47.53988c-.07669.07669-.40282-.12509-.72842-.45069s-.52738-.65173-.45069-.72842.40282.12509.72842.45069.52738.65173.45069.72842ZM14.36196,48.98373c-.07669.07669-.40282-.12509-.72842-.45069s-.52738-.65173-.45069-.72842.40282.12509.72842.45069.52738.65173.45069.72842ZM12.91811,47.80462c.07669.07669-.12509.40282-.45069.72842s-.65173.52738-.72842.45069.12509-.40282.45069-.72842.65173-.52738.72842-.45069ZM14.36196,46.36077c.07669.07669-.12509.40282-.45069.72842s-.65173.52738-.72842.45069.12509-.40282.45069-.72842.65173-.52738.72842-.45069ZM4.39813,41.87898c-.07669.07669-.40282-.12509-.72842-.45069s-.52738-.65173-.45069-.72842.40282.12509.72842.45069c.3256.3256.52738.65173.45069.72842ZM5.84198,43.32282c-.07669.07669-.40282-.12509-.72842-.45069s-.52738-.65173-.45069-.72842.40282.12509.72842.45069.52738.65173.45069.72842ZM4.39813,42.14371c.07669.07669-.12509.40282-.45069.72842s-.65173.52738-.72842.45069.12509-.40282.45069-.72842.65173-.52738.72842-.45069ZM5.84198,40.69987c.07669.07669-.12509.40282-.45069.72842s-.65173.52738-.72842.45069.12509-.40282.45069-.72842.65173-.52738.72842-.45069ZM7.22859,41.87898c-.07669.07669-.40282-.12509-.72842-.45069s-.52738-.65173-.45069-.72842.40282.12509.72842.45069.52738.65173.45069.72842ZM8.67243,43.32282c-.07669.07669-.40282-.12509-.72842-.45069s-.52738-.65173-.45069-.72842.40282.12509.72842.45069.52738.65173.45069.72842ZM7.22859,42.14371c.07669.07669-.12509.40282-.45069.72842s-.65173.52738-.72842.45069.12509-.40282.45069-.72842.65173-.52738.72842-.45069ZM8.67243,40.69987c.07669.07669-.12509.40282-.45069.72842s-.65173.52738-.72842.45069.12509-.40282.45069-.72842.65173-.52738.72842-.45069ZM4.39813,44.70943c-.07669.07669-.40282-.12509-.72842-.45069s-.52738-.65173-.45069-.72842.40282.12509.72842.45069c.3256.3256.52738.65173.45069.72842ZM5.84198,46.15328c-.07669.07669-.40282-.12509-.72842-.45069s-.52738-.65173-.45069-.72842.40282.12509.72842.45069.52738.65173.45069.72842ZM4.39813,44.97417c.07669.07669-.12509.40282-.45069.72842s-.65173.52738-.72842.45069.12509-.40282.45069-.72842.65173-.52738.72842-.45069ZM5.84198,43.53032c.07669.07669-.12509.40282-.45069.72842s-.65173.52738-.72842.45069.12509-.40282.45069-.72842.65173-.52738.72842-.45069ZM7.22859,44.70943c-.07669.07669-.40282-.12509-.72842-.45069s-.52738-.65173-.45069-.72842.40282.12509.72842.45069.52738.65173.45069.72842ZM8.67243,46.15328c-.07669.07669-.40282-.12509-.72842-.45069s-.52738-.65173-.45069-.72842.40282.12509.72842.45069.52738.65173.45069.72842ZM7.22859,44.97417c.07669.07669-.12509.40282-.45069.72842s-.65173.52738-.72842.45069.12509-.40282.45069-.72842.65173-.52738.72842-.45069ZM8.67243,43.53032c.07669.07669-.12509.40282-.45069.72842s-.65173.52738-.72842.45069.12509-.40282.45069-.72842.65173-.52738.72842-.45069ZM4.39813,47.53988c-.07669.07669-.40282-.12509-.72842-.45069s-.52738-.65173-.45069-.72842.40282.12509.72842.45069c.3256.3256.52738.65173.45069.72842ZM5.84198,48.98373c-.07669.07669-.40282-.12509-.72842-.45069s-.52738-.65173-.45069-.72842.40282.12509.72842.45069.52738.65173.45069.72842ZM4.39813,47.80462c.07669.07669-.12509.40282-.45069.72842s-.65173.52738-.72842.45069.12509-.40282.45069-.72842.65173-.52738.72842-.45069ZM5.84198,46.36077c.07669.07669-.12509.40282-.45069.72842s-.65173.52738-.72842.45069.12509-.40282.45069-.72842.65173-.52738.72842-.45069ZM7.22859,47.53988c-.07669.07669-.40282-.12509-.72842-.45069s-.52738-.65173-.45069-.72842.40282.12509.72842.45069.52738.65173.45069.72842ZM8.67243,48.98373c-.07669.07669-.40282-.12509-.72842-.45069s-.52738-.65173-.45069-.72842.40282.12509.72842.45069.52738.65173.45069.72842ZM7.22859,47.80462c.07669.07669-.12509.40282-.45069.72842s-.65173.52738-.72842.45069.12509-.40282.45069-.72842.65173-.52738.72842-.45069ZM8.67243,46.36077c.07669.07669-.12509.40282-.45069.72842s-.65173.52738-.72842.45069.12509-.40282.45069-.72842.65173-.52738.72842-.45069ZM15.74857,47.53988c-.07669.07669-.40282-.12509-.72842-.45069s-.52738-.65173-.45069-.72842.40282.12509.72842.45069.52738.65173.45069.72842ZM17.19241,48.98373c-.07669.07669-.40282-.12509-.72842-.45069s-.52738-.65173-.45069-.72842.40282.12509.72842.45069.52738.65173.45069.72842ZM15.74857,47.80462c.07669.07669-.12509.40282-.45069.72842s-.65173.52738-.72842.45069.12509-.40282.45069-.72842.65173-.52738.72842-.45069ZM17.19241,46.36077c.07669.07669-.12509.40282-.45069.72842s-.65173.52738-.72842.45069.12509-.40282.45069-.72842.65173-.52738.72842-.45069ZM24.29717,41.86467c-.07669.07669-.40282-.12509-.72842-.45069s-.52738-.65173-.45069-.72842.40282.12509.72842.45069.52738.65173.45069.72842ZM25.74102,43.30851c-.07669.07669-.40282-.12509-.72842-.45069s-.52738-.65173-.45069-.72842.40282.12509.72842.45069.52738.65173.45069.72842ZM24.29717,42.1294c.07669.07669-.12509.40282-.45069.72842s-.65173.52738-.72842.45069.12509-.40282.45069-.72842.65173-.52738.72842-.45069ZM25.74102,40.68556c.07669.07669-.12509.40282-.45069.72842s-.65173.52738-.72842.45069.12509-.40282.45069-.72842.65173-.52738.72842-.45069ZM27.12762,41.86467c-.07669.07669-.40282-.12509-.72842-.45069s-.52738-.65173-.45069-.72842.40282.12509.72842.45069.52738.65173.45069.72842ZM28.57147,43.30851c-.07669.07669-.40282-.12509-.72842-.45069s-.52738-.65173-.45069-.72842.40282.12509.72842.45069.52738.65173.45069.72842ZM27.12762,42.1294c.07669.07669-.12509.40282-.45069.72842s-.65173.52738-.72842.45069.12509-.40282.45069-.72842.65173-.52738.72842-.45069ZM28.57147,40.68556c.07669.07669-.12509.40282-.45069.72842s-.65173.52738-.72842.45069.12509-.40282.45069-.72842.65173-.52738.72842-.45069ZM29.95808,41.86467c-.07669.07669-.40282-.12509-.72842-.45069s-.52738-.65173-.45069-.72842.40282.12509.72842.45069.52738.65173.45069.72842ZM31.40192,43.30851c-.07669.07669-.40282-.12509-.72842-.45069s-.52738-.65173-.45069-.72842.40282.12509.72842.45069.52738.65173.45069.72842ZM29.95808,42.1294c.07669.07669-.12509.40282-.45069.72842s-.65173.52738-.72842.45069.12509-.40282.45069-.72842.65173-.52738.72842-.45069ZM31.40192,40.68556c.07669.07669-.12509.40282-.45069.72842s-.65173.52738-.72842.45069.12509-.40282.45069-.72842.65173-.52738.72842-.45069ZM24.29717,44.69512c-.07669.07669-.40282-.12509-.72842-.45069s-.52738-.65173-.45069-.72842.40282.12509.72842.45069.52738.65173.45069.72842ZM25.74102,46.13897c-.07669.07669-.40282-.12509-.72842-.45069s-.52738-.65173-.45069-.72842.40282.12509.72842.45069.52738.65173.45069.72842ZM24.29717,44.95986c.07669.07669-.12509.40282-.45069.72842s-.65173.52738-.72842.45069.12509-.40282.45069-.72842.65173-.52738.72842-.45069ZM25.74102,43.51601c.07669.07669-.12509.40282-.45069.72842s-.65173.52738-.72842.45069.12509-.40282.45069-.72842.65173-.52738.72842-.45069ZM27.12762,44.69512c-.07669.07669-.40282-.12509-.72842-.45069s-.52738-.65173-.45069-.72842.40282.12509.72842.45069.52738.65173.45069.72842ZM28.57147,46.13897c-.07669.07669-.40282-.12509-.72842-.45069s-.52738-.65173-.45069-.72842.40282.12509.72842.45069.52738.65173.45069.72842ZM27.12762,44.95986c.07669.07669-.12509.40282-.45069.72842s-.65173.52738-.72842.45069.12509-.40282.45069-.72842.65173-.52738.72842-.45069ZM28.57147,43.51601c.07669.07669-.12509.40282-.45069.72842s-.65173.52738-.72842.45069.12509-.40282.45069-.72842.65173-.52738.72842-.45069ZM29.95808,44.69512c-.07669.07669-.40282-.12509-.72842-.45069s-.52738-.65173-.45069-.72842.40282.12509.72842.45069.52738.65173.45069.72842ZM31.40192,46.13897c-.07669.07669-.40282-.12509-.72842-.45069s-.52738-.65173-.45069-.72842.40282.12509.72842.45069.52738.65173.45069.72842ZM29.95808,44.95986c.07669.07669-.12509.40282-.45069.72842s-.65173.52738-.72842.45069.12509-.40282.45069-.72842.65173-.52738.72842-.45069ZM31.40192,43.51601c.07669.07669-.12509.40282-.45069.72842s-.65173.52738-.72842.45069.12509-.40282.45069-.72842.65173-.52738.72842-.45069ZM24.29717,47.52557c-.07669.07669-.40282-.12509-.72842-.45069s-.52738-.65173-.45069-.72842.40282.12509.72842.45069.52738.65173.45069.72842ZM25.74102,48.96942c-.07669.07669-.40282-.12509-.72842-.45069s-.52738-.65173-.45069-.72842.40282.12509.72842.45069.52738.65173.45069.72842ZM24.29717,47.79031c.07669.07669-.12509.40282-.45069.72842s-.65173.52738-.72842.45069.12509-.40282.45069-.72842.65173-.52738.72842-.45069ZM25.74102,46.34646c.07669.07669-.12509.40282-.45069.72842s-.65173.52738-.72842.45069.12509-.40282.45069-.72842.65173-.52738.72842-.45069ZM27.12762,47.52557c-.07669.07669-.40282-.12509-.72842-.45069s-.52738-.65173-.45069-.72842.40282.12509.72842.45069.52738.65173.45069.72842ZM28.57147,48.96942c-.07669.07669-.40282-.12509-.72842-.45069s-.52738-.65173-.45069-.72842.40282.12509.72842.45069.52738.65173.45069.72842ZM27.12762,47.79031c.07669.07669-.12509.40282-.45069.72842s-.65173.52738-.72842.45069.12509-.40282.45069-.72842.65173-.52738.72842-.45069ZM28.57147,46.34646c.07669.07669-.12509.40282-.45069.72842s-.65173.52738-.72842.45069.12509-.40282.45069-.72842.65173-.52738.72842-.45069ZM18.60764,41.86467c-.07669.07669-.40282-.12509-.72842-.45069s-.52738-.65173-.45069-.72842.40282.12509.72842.45069.52738.65173.45069.72842ZM20.05149,43.30851c-.07669.07669-.40282-.12509-.72842-.45069s-.52738-.65173-.45069-.72842.40282.12509.72842.45069.52738.65173.45069.72842ZM18.60764,42.1294c.07669.07669-.12509.40282-.45069.72842s-.65173.52738-.72842.45069.12509-.40282.45069-.72842.65173-.52738.72842-.45069ZM20.05149,40.68556c.07669.07669-.12509.40282-.45069.72842s-.65173.52738-.72842.45069.12509-.40282.45069-.72842.65173-.52738.72842-.45069ZM21.4381,41.86467c-.07669.07669-.40282-.12509-.72842-.45069s-.52738-.65173-.45069-.72842.40282.12509.72842.45069.52738.65173.45069.72842ZM22.88194,43.30851c-.07669.07669-.40282-.12509-.72842-.45069s-.52738-.65173-.45069-.72842.40282.12509.72842.45069.52738.65173.45069.72842ZM21.4381,42.1294c.07669.07669-.12509.40282-.45069.72842s-.65173.52738-.72842.45069.12509-.40282.45069-.72842.65173-.52738.72842-.45069ZM22.88194,40.68556c.07669.07669-.12509.40282-.45069.72842s-.65173.52738-.72842.45069.12509-.40282.45069-.72842.65173-.52738.72842-.45069ZM18.60764,44.69512c-.07669.07669-.40282-.12509-.72842-.45069s-.52738-.65173-.45069-.72842.40282.12509.72842.45069.52738.65173.45069.72842ZM20.05149,46.13897c-.07669.07669-.40282-.12509-.72842-.45069s-.52738-.65173-.45069-.72842.40282.12509.72842.45069.52738.65173.45069.72842ZM18.60764,44.95986c.07669.07669-.12509.40282-.45069.72842s-.65173.52738-.72842.45069.12509-.40282.45069-.72842.65173-.52738.72842-.45069ZM20.05149,43.51601c.07669.07669-.12509.40282-.45069.72842s-.65173.52738-.72842.45069.12509-.40282.45069-.72842.65173-.52738.72842-.45069ZM21.4381,44.69512c-.07669.07669-.40282-.12509-.72842-.45069s-.52738-.65173-.45069-.72842.40282.12509.72842.45069.52738.65173.45069.72842ZM22.88194,46.13897c-.07669.07669-.40282-.12509-.72842-.45069s-.52738-.65173-.45069-.72842.40282.12509.72842.45069.52738.65173.45069.72842ZM21.4381,44.95986c.07669.07669-.12509.40282-.45069.72842s-.65173.52738-.72842.45069.12509-.40282.45069-.72842.65173-.52738.72842-.45069ZM22.88194,43.51601c.07669.07669-.12509.40282-.45069.72842s-.65173.52738-.72842.45069.12509-.40282.45069-.72842.65173-.52738.72842-.45069ZM18.60764,47.52557c-.07669.07669-.40282-.12509-.72842-.45069s-.52738-.65173-.45069-.72842.40282.12509.72842.45069.52738.65173.45069.72842ZM20.05149,48.96942c-.07669.07669-.40282-.12509-.72842-.45069s-.52738-.65173-.45069-.72842.40282.12509.72842.45069.52738.65173.45069.72842ZM18.60764,47.79031c.07669.07669-.12509.40282-.45069.72842s-.65173.52738-.72842.45069.12509-.40282.45069-.72842.65173-.52738.72842-.45069ZM20.05149,46.34646c.07669.07669-.12509.40282-.45069.72842s-.65173.52738-.72842.45069.12509-.40282.45069-.72842.65173-.52738.72842-.45069ZM21.4381,47.52557c-.07669.07669-.40282-.12509-.72842-.45069s-.52738-.65173-.45069-.72842.40282.12509.72842.45069.52738.65173.45069.72842ZM22.88194,48.96942c-.07669.07669-.40282-.12509-.72842-.45069s-.52738-.65173-.45069-.72842.40282.12509.72842.45069.52738.65173.45069.72842ZM21.4381,47.79031c.07669.07669-.12509.40282-.45069.72842s-.65173.52738-.72842.45069.12509-.40282.45069-.72842.65173-.52738.72842-.45069ZM22.88194,46.34646c.07669.07669-.12509.40282-.45069.72842s-.65173.52738-.72842.45069.12509-.40282.45069-.72842.65173-.52738.72842-.45069ZM29.95808,47.52557c-.07669.07669-.40282-.12509-.72842-.45069s-.52738-.65173-.45069-.72842.40282.12509.72842.45069.52738.65173.45069.72842ZM31.40192,48.96942c-.07669.07669-.40282-.12509-.72842-.45069s-.52738-.65173-.45069-.72842.40282.12509.72842.45069.52738.65173.45069.72842ZM29.95808,47.79031c.07669.07669-.12509.40282-.45069.72842s-.65173.52738-.72842.45069.12509-.40282.45069-.72842.65173-.52738.72842-.45069ZM31.40192,46.34646c.07669.07669-.12509.40282-.45069.72842s-.65173.52738-.72842.45069.12509-.40282.45069-.72842.65173-.52738.72842-.45069ZM35.67622,41.77881c-.07669.07669-.40282-.12509-.72842-.45069s-.52738-.65173-.45069-.72842.40282.12509.72842.45069.52738.65173.45069.72842ZM37.12007,43.22266c-.07669.07669-.40282-.12509-.72842-.45069s-.52738-.65173-.45069-.72842.40282.12509.72842.45069.52738.65173.45069.72842ZM35.67622,42.04354c.07669.07669-.12509.40282-.45069.72842s-.65173.52738-.72842.45069.12509-.40282.45069-.72842.65173-.52738.72842-.45069ZM37.12007,40.5997c.07669.07669-.12509.40282-.45069.72842s-.65173.52738-.72842.45069.12509-.40282.45069-.72842.65173-.52738.72842-.45069ZM38.50668,41.77881c-.07669.07669-.40282-.12509-.72842-.45069s-.52738-.65173-.45069-.72842.40282.12509.72842.45069.52738.65173.45069.72842ZM39.95052,43.22266c-.07669.07669-.40282-.12509-.72842-.45069s-.52738-.65173-.45069-.72842.40282.12509.72842.45069.52738.65173.45069.72842ZM38.50668,42.04354c.07669.07669-.12509.40282-.45069.72842s-.65173.52738-.72842.45069.12509-.40282.45069-.72842.65173-.52738.72842-.45069ZM39.95052,40.5997c.07669.07669-.12509.40282-.45069.72842s-.65173.52738-.72842.45069.12509-.40282.45069-.72842.65173-.52738.72842-.45069ZM41.33713,41.77881c-.07669.07669-.40282-.12509-.72842-.45069s-.52738-.65173-.45069-.72842.40282.12509.72842.45069.52738.65173.45069.72842ZM42.78098,43.22266c-.07669.07669-.40282-.12509-.72842-.45069s-.52738-.65173-.45069-.72842.40282.12509.72842.45069.52738.65173.45069.72842ZM41.33713,42.04354c.07669.07669-.12509.40282-.45069.72842s-.65173.52738-.72842.45069.12509-.40282.45069-.72842.65173-.52738.72842-.45069ZM42.78098,40.5997c.07669.07669-.12509.40282-.45069.72842s-.65173.52738-.72842.45069.12509-.40282.45069-.72842.65173-.52738.72842-.45069ZM35.67622,44.60926c-.07669.07669-.40282-.12509-.72842-.45069s-.52738-.65173-.45069-.72842.40282.12509.72842.45069.52738.65173.45069.72842ZM37.12007,46.05311c-.07669.07669-.40282-.12509-.72842-.45069s-.52738-.65173-.45069-.72842.40282.12509.72842.45069.52738.65173.45069.72842ZM35.67622,44.874c.07669.07669-.12509.40282-.45069.72842s-.65173.52738-.72842.45069.12509-.40282.45069-.72842.65173-.52738.72842-.45069ZM37.12007,43.43015c.07669.07669-.12509.40282-.45069.72842s-.65173.52738-.72842.45069.12509-.40282.45069-.72842.65173-.52738.72842-.45069ZM38.50668,44.60926c-.07669.07669-.40282-.12509-.72842-.45069s-.52738-.65173-.45069-.72842.40282.12509.72842.45069.52738.65173.45069.72842ZM39.95052,46.05311c-.07669.07669-.40282-.12509-.72842-.45069s-.52738-.65173-.45069-.72842.40282.12509.72842.45069.52738.65173.45069.72842ZM38.50668,44.874c.07669.07669-.12509.40282-.45069.72842s-.65173.52738-.72842.45069.12509-.40282.45069-.72842.65173-.52738.72842-.45069ZM39.95052,43.43015c.07669.07669-.12509.40282-.45069.72842s-.65173.52738-.72842.45069.12509-.40282.45069-.72842.65173-.52738.72842-.45069ZM41.33713,44.60926c-.07669.07669-.40282-.12509-.72842-.45069s-.52738-.65173-.45069-.72842.40282.12509.72842.45069.52738.65173.45069.72842ZM42.78098,46.05311c-.07669.07669-.40282-.12509-.72842-.45069s-.52738-.65173-.45069-.72842.40282.12509.72842.45069.52738.65173.45069.72842ZM41.33713,44.874c.07669.07669-.12509.40282-.45069.72842s-.65173.52738-.72842.45069.12509-.40282.45069-.72842.65173-.52738.72842-.45069ZM42.78098,43.43015c.07669.07669-.12509.40282-.45069.72842s-.65173.52738-.72842.45069.12509-.40282.45069-.72842.65173-.52738.72842-.45069ZM35.67622,47.43972c-.07669.07669-.40282-.12509-.72842-.45069s-.52738-.65173-.45069-.72842.40282.12509.72842.45069.52738.65173.45069.72842ZM37.12007,48.88356c-.07669.07669-.40282-.12509-.72842-.45069s-.52738-.65173-.45069-.72842.40282.12509.72842.45069.52738.65173.45069.72842ZM35.67622,47.70445c.07669.07669-.12509.40282-.45069.72842s-.65173.52738-.72842.45069.12509-.40282.45069-.72842.65173-.52738.72842-.45069ZM37.12007,46.26061c.07669.07669-.12509.40282-.45069.72842s-.65173.52738-.72842.45069.12509-.40282.45069-.72842.65173-.52738.72842-.45069ZM38.50668,47.43972c-.07669.07669-.40282-.12509-.72842-.45069s-.52738-.65173-.45069-.72842.40282.12509.72842.45069.52738.65173.45069.72842ZM39.95052,48.88356c-.07669.07669-.40282-.12509-.72842-.45069s-.52738-.65173-.45069-.72842.40282.12509.72842.45069.52738.65173.45069.72842ZM38.50668,47.70445c.07669.07669-.12509.40282-.45069.72842s-.65173.52738-.72842.45069.12509-.40282.45069-.72842.65173-.52738.72842-.45069ZM39.95052,46.26061c.07669.07669-.12509.40282-.45069.72842s-.65173.52738-.72842.45069.12509-.40282.45069-.72842.65173-.52738.72842-.45069ZM32.81715,41.77881c-.07669.07669-.40282-.12509-.72842-.45069s-.52738-.65173-.45069-.72842.40282.12509.72842.45069.52738.65173.45069.72842ZM34.261,43.22265c-.07669.07669-.40282-.12509-.72842-.45069s-.52738-.65173-.45069-.72842.40282.12509.72842.45069c.3256.3256.52738.65173.45069.72842ZM32.81715,42.04354c.07669.07669-.12509.40282-.45069.72842s-.65173.52738-.72842.45069.12509-.40282.45069-.72842.65173-.52738.72842-.45069ZM34.261,40.5997c.07669.07669-.12509.40282-.45069.72842s-.65173.52738-.72842.45069.12509-.40282.45069-.72842.65173-.52738.72842-.45069ZM32.81715,44.60926c-.07669.07669-.40282-.12509-.72842-.45069s-.52738-.65173-.45069-.72842.40282.12509.72842.45069.52738.65173.45069.72842ZM34.261,46.05311c-.07669.07669-.40282-.12509-.72842-.45069s-.52738-.65173-.45069-.72842.40282.12509.72842.45069c.3256.3256.52738.65173.45069.72842ZM32.81715,44.874c.07669.07669-.12509.40282-.45069.72842s-.65173.52738-.72842.45069.12509-.40282.45069-.72842.65173-.52738.72842-.45069ZM34.261,43.43015c.07669.07669-.12509.40282-.45069.72842s-.65173.52738-.72842.45069.12509-.40282.45069-.72842.65173-.52738.72842-.45069ZM32.81715,47.43972c-.07669.07669-.40282-.12509-.72842-.45069s-.52738-.65173-.45069-.72842.40282.12509.72842.45069.52738.65173.45069.72842ZM34.261,48.88356c-.07669.07669-.40282-.12509-.72842-.45069s-.52738-.65173-.45069-.72842.40282.12509.72842.45069c.3256.3256.52738.65173.45069.72842ZM32.81715,47.70445c.07669.07669-.12509.40282-.45069.72842s-.65173.52738-.72842.45069.12509-.40282.45069-.72842.65173-.52738.72842-.45069ZM34.261,46.26061c.07669.07669-.12509.40282-.45069.72842s-.65173.52738-.72842.45069.12509-.40282.45069-.72842.65173-.52738.72842-.45069ZM41.33713,47.43972c-.07669.07669-.40282-.12509-.72842-.45069s-.52738-.65173-.45069-.72842.40282.12509.72842.45069.52738.65173.45069.72842ZM42.78098,48.88356c-.07669.07669-.40282-.12509-.72842-.45069s-.52738-.65173-.45069-.72842.40282.12509.72842.45069.52738.65173.45069.72842ZM41.33713,47.70445c.07669.07669-.12509.40282-.45069.72842s-.65173.52738-.72842.45069.12509-.40282.45069-.72842.65173-.52738.72842-.45069ZM42.78098,46.26061c.07669.07669-.12509.40282-.45069.72842s-.65173.52738-.72842.45069.12509-.40282.45069-.72842.65173-.52738.72842-.45069ZM35.67622,33.25883c-.07669.07669-.40282-.12509-.72842-.45069s-.52738-.65173-.45069-.72842.40282.12509.72842.45069.52738.65173.45069.72842ZM37.12007,34.70267c-.07669.07669-.40282-.12509-.72842-.45069s-.52738-.65173-.45069-.72842.40282.12509.72842.45069.52738.65173.45069.72842ZM35.67622,33.52356c.07669.07669-.12509.40282-.45069.72842s-.65173.52738-.72842.45069.12509-.40282.45069-.72842.65173-.52738.72842-.45069ZM37.12007,32.07972c.07669.07669-.12509.40282-.45069.72842s-.65173.52738-.72842.45069.12509-.40282.45069-.72842.65173-.52738.72842-.45069ZM38.50668,33.25883c-.07669.07669-.40282-.12509-.72842-.45069s-.52738-.65173-.45069-.72842.40282.12509.72842.45069.52738.65173.45069.72842ZM39.95052,34.70267c-.07669.07669-.40282-.12509-.72842-.45069s-.52738-.65173-.45069-.72842.40282.12509.72842.45069.52738.65173.45069.72842ZM38.50668,33.52356c.07669.07669-.12509.40282-.45069.72842s-.65173.52738-.72842.45069.12509-.40282.45069-.72842.65173-.52738.72842-.45069ZM39.95052,32.07972c.07669.07669-.12509.40282-.45069.72842s-.65173.52738-.72842.45069.12509-.40282.45069-.72842.65173-.52738.72842-.45069ZM41.33713,33.25883c-.07669.07669-.40282-.12509-.72842-.45069s-.52738-.65173-.45069-.72842.40282.12509.72842.45069.52738.65173.45069.72842ZM42.78098,34.70267c-.07669.07669-.40282-.12509-.72842-.45069s-.52738-.65173-.45069-.72842.40282.12509.72842.45069.52738.65173.45069.72842ZM41.33713,33.52356c.07669.07669-.12509.40282-.45069.72842s-.65173.52738-.72842.45069.12509-.40282.45069-.72842.65173-.52738.72842-.45069ZM42.78098,32.07972c.07669.07669-.12509.40282-.45069.72842s-.65173.52738-.72842.45069.12509-.40282.45069-.72842.65173-.52738.72842-.45069ZM35.67622,36.08928c-.07669.07669-.40282-.12509-.72842-.45069s-.52738-.65173-.45069-.72842.40282.12509.72842.45069.52738.65173.45069.72842ZM37.12007,37.53313c-.07669.07669-.40282-.12509-.72842-.45069s-.52738-.65173-.45069-.72842.40282.12509.72842.45069.52738.65173.45069.72842ZM35.67622,36.35402c.07669.07669-.12509.40282-.45069.72842s-.65173.52738-.72842.45069.12509-.40282.45069-.72842.65173-.52738.72842-.45069ZM37.12007,34.91017c.07669.07669-.12509.40282-.45069.72842s-.65173.52738-.72842.45069.12509-.40282.45069-.72842.65173-.52738.72842-.45069ZM38.50668,36.08928c-.07669.07669-.40282-.12509-.72842-.45069s-.52738-.65173-.45069-.72842.40282.12509.72842.45069.52738.65173.45069.72842ZM39.95052,37.53313c-.07669.07669-.40282-.12509-.72842-.45069s-.52738-.65173-.45069-.72842.40282.12509.72842.45069.52738.65173.45069.72842ZM38.50668,36.35402c.07669.07669-.12509.40282-.45069.72842s-.65173.52738-.72842.45069.12509-.40282.45069-.72842.65173-.52738.72842-.45069ZM39.95052,34.91017c.07669.07669-.12509.40282-.45069.72842s-.65173.52738-.72842.45069.12509-.40282.45069-.72842.65173-.52738.72842-.45069ZM41.33713,36.08928c-.07669.07669-.40282-.12509-.72842-.45069s-.52738-.65173-.45069-.72842.40282.12509.72842.45069.52738.65173.45069.72842ZM42.78098,37.53313c-.07669.07669-.40282-.12509-.72842-.45069s-.52738-.65173-.45069-.72842.40282.12509.72842.45069.52738.65173.45069.72842ZM41.33713,36.35402c.07669.07669-.12509.40282-.45069.72842s-.65173.52738-.72842.45069.12509-.40282.45069-.72842.65173-.52738.72842-.45069ZM42.78098,34.91017c.07669.07669-.12509.40282-.45069.72842s-.65173.52738-.72842.45069.12509-.40282.45069-.72842.65173-.52738.72842-.45069ZM35.67622,38.91974c-.07669.07669-.40282-.12509-.72842-.45069s-.52738-.65173-.45069-.72842.40282.12509.72842.45069.52738.65173.45069.72842ZM37.12007,40.36358c-.07669.07669-.40282-.12509-.72842-.45069s-.52738-.65173-.45069-.72842.40282.12509.72842.45069.52738.65173.45069.72842ZM35.67622,39.18447c.07669.07669-.12509.40282-.45069.72842s-.65173.52738-.72842.45069.12509-.40282.45069-.72842.65173-.52738.72842-.45069ZM37.12007,37.74062c.07669.07669-.12509.40282-.45069.72842s-.65173.52738-.72842.45069.12509-.40282.45069-.72842.65173-.52738.72842-.45069ZM38.50668,38.91974c-.07669.07669-.40282-.12509-.72842-.45069s-.52738-.65173-.45069-.72842.40282.12509.72842.45069.52738.65173.45069.72842ZM39.95052,40.36358c-.07669.07669-.40282-.12509-.72842-.45069s-.52738-.65173-.45069-.72842.40282.12509.72842.45069.52738.65173.45069.72842ZM38.50668,39.18447c.07669.07669-.12509.40282-.45069.72842s-.65173.52738-.72842.45069.12509-.40282.45069-.72842.65173-.52738.72842-.45069ZM39.95052,37.74062c.07669.07669-.12509.40282-.45069.72842s-.65173.52738-.72842.45069.12509-.40282.45069-.72842.65173-.52738.72842-.45069ZM41.33713,38.91974c-.07669.07669-.40282-.12509-.72842-.45069s-.52738-.65173-.45069-.72842.40282.12509.72842.45069.52738.65173.45069.72842ZM42.78098,40.36358c-.07669.07669-.40282-.12509-.72842-.45069s-.52738-.65173-.45069-.72842.40282.12509.72842.45069.52738.65173.45069.72842ZM41.33713,39.18447c.07669.07669-.12509.40282-.45069.72842s-.65173.52738-.72842.45069.12509-.40282.45069-.72842.65173-.52738.72842-.45069ZM42.78098,37.74062c.07669.07669-.12509.40282-.45069.72842s-.65173.52738-.72842.45069.12509-.40282.45069-.72842.65173-.52738.72842-.45069ZM4.56985,2.19538c-.07669.07669-.40282-.12509-.72842-.45069s-.52738-.65173-.45069-.72842.40282.12509.72842.45069c.3256.3256.52738.65173.45069.72842ZM6.01369,3.63923c-.07669.07669-.40282-.12509-.72842-.45069s-.52738-.65173-.45069-.72842.40282.12509.72842.45069.52738.65173.45069.72842ZM4.56985,2.46012c.07669.07669-.12509.40282-.45069.72842s-.65173.52738-.72842.45069.12509-.40282.45069-.72842c.3256-.3256.65173-.52738.72842-.45069ZM6.01369,1.01627c.07669.07669-.12509.40282-.45069.72842s-.65173.52738-.72842.45069.12509-.40282.45069-.72842.65173-.52738.72842-.45069ZM7.4003,2.19538c-.07669.07669-.40282-.12509-.72842-.45069s-.52738-.65173-.45069-.72842.40282.12509.72842.45069.52738.65173.45069.72842ZM8.84415,3.63923c-.07669.07669-.40282-.12509-.72842-.45069s-.52738-.65173-.45069-.72842.40282.12509.72842.45069.52738.65173.45069.72842ZM7.4003,2.46012c.07669.07669-.12509.40282-.45069.72842s-.65173.52738-.72842.45069.12509-.40282.45069-.72842.65173-.52738.72842-.45069ZM8.84415,1.01627c.07669.07669-.12509.40282-.45069.72842s-.65173.52738-.72842.45069.12509-.40282.45069-.72842.65173-.52738.72842-.45069ZM10.23076,2.19538c-.07669.07669-.40282-.12509-.72842-.45069s-.52738-.65173-.45069-.72842.40282.12509.72842.45069.52738.65173.45069.72842ZM11.6746,3.63923c-.07669.07669-.40282-.12509-.72842-.45069s-.52738-.65173-.45069-.72842.40282.12509.72842.45069.52738.65173.45069.72842ZM10.23076,2.46012c.07669.07669-.12509.40282-.45069.72842s-.65173.52738-.72842.45069.12509-.40282.45069-.72842.65173-.52738.72842-.45069ZM11.6746,1.01627c.07669.07669-.12509.40282-.45069.72842s-.65173.52738-.72842.45069.12509-.40282.45069-.72842.65173-.52738.72842-.45069ZM13.06121,2.19538c-.07669.07669-.40282-.12509-.72842-.45069s-.52738-.65173-.45069-.72842.40282.12509.72842.45069.52738.65173.45069.72842ZM14.50506,3.63923c-.07669.07669-.40282-.12509-.72842-.45069s-.52738-.65173-.45069-.72842.40282.12509.72842.45069.52738.65173.45069.72842ZM13.06121,2.46012c.07669.07669-.12509.40282-.45069.72842s-.65173.52738-.72842.45069.12509-.40282.45069-.72842.65173-.52738.72842-.45069ZM14.50506,1.01627c.07669.07669-.12509.40282-.45069.72842s-.65173.52738-.72842.45069.12509-.40282.45069-.72842.65173-.52738.72842-.45069ZM15.89166,2.19538c-.07669.07669-.40282-.12509-.72842-.45069s-.52738-.65173-.45069-.72842.40282.12509.72842.45069.52738.65173.45069.72842ZM17.33551,3.63923c-.07669.07669-.40282-.12509-.72842-.45069s-.52738-.65173-.45069-.72842.40282.12509.72842.45069.52738.65173.45069.72842ZM15.89166,2.46012c.07669.07669-.12509.40282-.45069.72842s-.65173.52738-.72842.45069.12509-.40282.45069-.72842.65173-.52738.72842-.45069ZM17.33551,1.01627c.07669.07669-.12509.40282-.45069.72842s-.65173.52738-.72842.45069.12509-.40282.45069-.72842.65173-.52738.72842-.45069ZM18.72212,2.19538c-.07669.07669-.40282-.12509-.72842-.45069s-.52738-.65173-.45069-.72842.40282.12509.72842.45069.52738.65173.45069.72842ZM20.16596,3.63923c-.07669.07669-.40282-.12509-.72842-.45069s-.52738-.65173-.45069-.72842.40282.12509.72842.45069.52738.65173.45069.72842ZM18.72212,2.46012c.07669.07669-.12509.40282-.45069.72842s-.65173.52738-.72842.45069.12509-.40282.45069-.72842.65173-.52738.72842-.45069ZM20.16596,1.01627c.07669.07669-.12509.40282-.45069.72842s-.65173.52738-.72842.45069.12509-.40282.45069-.72842.65173-.52738.72842-.45069ZM4.54123,5.02583c-.07669.07669-.40282-.12509-.72842-.45069s-.52738-.65173-.45069-.72842.40282.12509.72842.45069c.3256.3256.52738.65173.45069.72842ZM5.98508,6.46968c-.07669.07669-.40282-.12509-.72842-.45069s-.52738-.65173-.45069-.72842.40282.12509.72842.45069.52738.65173.45069.72842ZM4.54123,5.29057c.07669.07669-.12509.40282-.45069.72842s-.65173.52738-.72842.45069.12509-.40282.45069-.72842c.3256-.3256.65173-.52738.72842-.45069ZM5.98508,3.84672c.07669.07669-.12509.40282-.45069.72842s-.65173.52738-.72842.45069.12509-.40282.45069-.72842.65173-.52738.72842-.45069ZM7.37168,5.02583c-.07669.07669-.40282-.12509-.72842-.45069s-.52738-.65173-.45069-.72842.40282.12509.72842.45069.52738.65173.45069.72842ZM8.81553,6.46968c-.07669.07669-.40282-.12509-.72842-.45069s-.52738-.65173-.45069-.72842.40282.12509.72842.45069.52738.65173.45069.72842ZM7.37168,5.29057c.07669.07669-.12509.40282-.45069.72842s-.65173.52738-.72842.45069.12509-.40282.45069-.72842.65173-.52738.72842-.45069ZM8.81553,3.84672c.07669.07669-.12509.40282-.45069.72842s-.65173.52738-.72842.45069.12509-.40282.45069-.72842.65173-.52738.72842-.45069ZM10.20214,5.02583c-.07669.07669-.40282-.12509-.72842-.45069s-.52738-.65173-.45069-.72842.40282.12509.72842.45069.52738.65173.45069.72842ZM11.64598,6.46968c-.07669.07669-.40282-.12509-.72842-.45069s-.52738-.65173-.45069-.72842.40282.12509.72842.45069.52738.65173.45069.72842ZM10.20214,5.29057c.07669.07669-.12509.40282-.45069.72842s-.65173.52738-.72842.45069.12509-.40282.45069-.72842.65173-.52738.72842-.45069ZM11.64598,3.84672c.07669.07669-.12509.40282-.45069.72842s-.65173.52738-.72842.45069.12509-.40282.45069-.72842.65173-.52738.72842-.45069ZM13.03259,5.02583c-.07669.07669-.40282-.12509-.72842-.45069s-.52738-.65173-.45069-.72842.40282.12509.72842.45069.52738.65173.45069.72842ZM14.47644,6.46968c-.07669.07669-.40282-.12509-.72842-.45069s-.52738-.65173-.45069-.72842.40282.12509.72842.45069.52738.65173.45069.72842ZM13.03259,5.29057c.07669.07669-.12509.40282-.45069.72842s-.65173.52738-.72842.45069.12509-.40282.45069-.72842.65173-.52738.72842-.45069ZM14.47644,3.84672c.07669.07669-.12509.40282-.45069.72842s-.65173.52738-.72842.45069.12509-.40282.45069-.72842.65173-.52738.72842-.45069ZM15.86305,5.02583c-.07669.07669-.40282-.12509-.72842-.45069s-.52738-.65173-.45069-.72842.40282.12509.72842.45069.52738.65173.45069.72842ZM17.30689,6.46968c-.07669.07669-.40282-.12509-.72842-.45069s-.52738-.65173-.45069-.72842.40282.12509.72842.45069.52738.65173.45069.72842ZM15.86305,5.29057c.07669.07669-.12509.40282-.45069.72842s-.65173.52738-.72842.45069.12509-.40282.45069-.72842.65173-.52738.72842-.45069ZM17.30689,3.84672c.07669.07669-.12509.40282-.45069.72842s-.65173.52738-.72842.45069.12509-.40282.45069-.72842.65173-.52738.72842-.45069ZM18.6935,5.02583c-.07669.07669-.40282-.12509-.72842-.45069s-.52738-.65173-.45069-.72842.40282.12509.72842.45069.52738.65173.45069.72842ZM20.13735,6.46968c-.07669.07669-.40282-.12509-.72842-.45069s-.52738-.65173-.45069-.72842.40282.12509.72842.45069.52738.65173.45069.72842ZM18.6935,5.29057c.07669.07669-.12509.40282-.45069.72842s-.65173.52738-.72842.45069.12509-.40282.45069-.72842.65173-.52738.72842-.45069ZM20.13735,3.84672c.07669.07669-.12509.40282-.45069.72842s-.65173.52738-.72842.45069.12509-.40282.45069-.72842.65173-.52738.72842-.45069ZM4.51261,7.85629c-.07669.07669-.40282-.12509-.72842-.45069s-.52738-.65173-.45069-.72842.40282.12509.72842.45069c.3256.3256.52738.65173.45069.72842ZM5.95646,9.30013c-.07669.07669-.40282-.12509-.72842-.45069s-.52738-.65173-.45069-.72842.40282.12509.72842.45069.52738.65173.45069.72842ZM4.51261,8.12102c.07669.07669-.12509.40282-.45069.72842s-.65173.52738-.72842.45069.12509-.40282.45069-.72842c.3256-.3256.65173-.52738.72842-.45069ZM5.95646,6.67718c.07669.07669-.12509.40282-.45069.72842s-.65173.52738-.72842.45069.12509-.40282.45069-.72842.65173-.52738.72842-.45069ZM7.34306,7.85629c-.07669.07669-.40282-.12509-.72842-.45069s-.52738-.65173-.45069-.72842.40282.12509.72842.45069.52738.65173.45069.72842ZM8.78691,9.30013c-.07669.07669-.40282-.12509-.72842-.45069s-.52738-.65173-.45069-.72842.40282.12509.72842.45069.52738.65173.45069.72842ZM7.34306,8.12102c.07669.07669-.12509.40282-.45069.72842s-.65173.52738-.72842.45069.12509-.40282.45069-.72842.65173-.52738.72842-.45069ZM8.78691,6.67718c.07669.07669-.12509.40282-.45069.72842s-.65173.52738-.72842.45069.12509-.40282.45069-.72842.65173-.52738.72842-.45069ZM10.17352,7.85629c-.07669.07669-.40282-.12509-.72842-.45069s-.52738-.65173-.45069-.72842.40282.12509.72842.45069.52738.65173.45069.72842ZM11.61736,9.30013c-.07669.07669-.40282-.12509-.72842-.45069s-.52738-.65173-.45069-.72842.40282.12509.72842.45069.52738.65173.45069.72842ZM10.17352,8.12102c.07669.07669-.12509.40282-.45069.72842s-.65173.52738-.72842.45069.12509-.40282.45069-.72842.65173-.52738.72842-.45069ZM11.61736,6.67718c.07669.07669-.12509.40282-.45069.72842s-.65173.52738-.72842.45069.12509-.40282.45069-.72842.65173-.52738.72842-.45069ZM13.00397,7.85629c-.07669.07669-.40282-.12509-.72842-.45069s-.52738-.65173-.45069-.72842.40282.12509.72842.45069.52738.65173.45069.72842ZM14.44782,9.30013c-.07669.07669-.40282-.12509-.72842-.45069s-.52738-.65173-.45069-.72842.40282.12509.72842.45069.52738.65173.45069.72842ZM13.00397,8.12102c.07669.07669-.12509.40282-.45069.72842s-.65173.52738-.72842.45069.12509-.40282.45069-.72842.65173-.52738.72842-.45069ZM14.44782,6.67718c.07669.07669-.12509.40282-.45069.72842s-.65173.52738-.72842.45069.12509-.40282.45069-.72842.65173-.52738.72842-.45069ZM15.83443,7.85629c-.07669.07669-.40282-.12509-.72842-.45069s-.52738-.65173-.45069-.72842.40282.12509.72842.45069.52738.65173.45069.72842ZM17.27827,9.30013c-.07669.07669-.40282-.12509-.72842-.45069s-.52738-.65173-.45069-.72842.40282.12509.72842.45069.52738.65173.45069.72842ZM15.83443,8.12102c.07669.07669-.12509.40282-.45069.72842s-.65173.52738-.72842.45069.12509-.40282.45069-.72842.65173-.52738.72842-.45069ZM17.27827,6.67718c.07669.07669-.12509.40282-.45069.72842s-.65173.52738-.72842.45069.12509-.40282.45069-.72842.65173-.52738.72842-.45069ZM10.20214,10.65812c-.07669.07669-.40282-.12509-.72842-.45069s-.52738-.65173-.45069-.72842.40282.12509.72842.45069.52738.65173.45069.72842ZM11.64598,12.10197c-.07669.07669-.40282-.12509-.72842-.45069s-.52738-.65173-.45069-.72842.40282.12509.72842.45069.52738.65173.45069.72842ZM10.20214,10.92286c.07669.07669-.12509.40282-.45069.72842s-.65173.52738-.72842.45069.12509-.40282.45069-.72842.65173-.52738.72842-.45069ZM11.64598,9.47901c.07669.07669-.12509.40282-.45069.72842s-.65173.52738-.72842.45069.12509-.40282.45069-.72842.65173-.52738.72842-.45069ZM13.03259,10.65812c-.07669.07669-.40282-.12509-.72842-.45069s-.52738-.65173-.45069-.72842.40282.12509.72842.45069.52738.65173.45069.72842ZM14.47644,12.10197c-.07669.07669-.40282-.12509-.72842-.45069s-.52738-.65173-.45069-.72842.40282.12509.72842.45069.52738.65173.45069.72842ZM13.03259,10.92286c.07669.07669-.12509.40282-.45069.72842s-.65173.52738-.72842.45069.12509-.40282.45069-.72842.65173-.52738.72842-.45069ZM14.47644,9.47901c.07669.07669-.12509.40282-.45069.72842s-.65173.52738-.72842.45069.12509-.40282.45069-.72842.65173-.52738.72842-.45069ZM15.86305,10.65812c-.07669.07669-.40282-.12509-.72842-.45069s-.52738-.65173-.45069-.72842.40282.12509.72842.45069.52738.65173.45069.72842ZM17.30689,12.10197c-.07669.07669-.40282-.12509-.72842-.45069s-.52738-.65173-.45069-.72842.40282.12509.72842.45069.52738.65173.45069.72842ZM15.86305,10.92286c.07669.07669-.12509.40282-.45069.72842s-.65173.52738-.72842.45069.12509-.40282.45069-.72842.65173-.52738.72842-.45069ZM17.30689,9.47901c.07669.07669-.12509.40282-.45069.72842s-.65173.52738-.72842.45069.12509-.40282.45069-.72842.65173-.52738.72842-.45069ZM10.17352,13.48858c-.07669.07669-.40282-.12509-.72842-.45069s-.52738-.65173-.45069-.72842.40282.12509.72842.45069.52738.65173.45069.72842ZM11.61736,14.93242c-.07669.07669-.40282-.12509-.72842-.45069s-.52738-.65173-.45069-.72842.40282.12509.72842.45069.52738.65173.45069.72842ZM10.17352,13.75331c.07669.07669-.12509.40282-.45069.72842s-.65173.52738-.72842.45069.12509-.40282.45069-.72842.65173-.52738.72842-.45069ZM11.61736,12.30947c.07669.07669-.12509.40282-.45069.72842s-.65173.52738-.72842.45069.12509-.40282.45069-.72842.65173-.52738.72842-.45069ZM13.00397,13.48858c-.07669.07669-.40282-.12509-.72842-.45069s-.52738-.65173-.45069-.72842.40282.12509.72842.45069.52738.65173.45069.72842ZM14.44782,14.93242c-.07669.07669-.40282-.12509-.72842-.45069s-.52738-.65173-.45069-.72842.40282.12509.72842.45069.52738.65173.45069.72842ZM13.00397,13.75331c.07669.07669-.12509.40282-.45069.72842s-.65173.52738-.72842.45069.12509-.40282.45069-.72842.65173-.52738.72842-.45069ZM14.44782,12.30947c.07669.07669-.12509.40282-.45069.72842s-.65173.52738-.72842.45069.12509-.40282.45069-.72842.65173-.52738.72842-.45069ZM15.83443,13.48858c-.07669.07669-.40282-.12509-.72842-.45069s-.52738-.65173-.45069-.72842.40282.12509.72842.45069.52738.65173.45069.72842ZM17.27827,14.93242c-.07669.07669-.40282-.12509-.72842-.45069s-.52738-.65173-.45069-.72842.40282.12509.72842.45069.52738.65173.45069.72842ZM15.83443,13.75331c.07669.07669-.12509.40282-.45069.72842s-.65173.52738-.72842.45069.12509-.40282.45069-.72842.65173-.52738.72842-.45069ZM17.27827,12.30947c.07669.07669-.12509.40282-.45069.72842s-.65173.52738-.72842.45069.12509-.40282.45069-.72842.65173-.52738.72842-.45069ZM10.1449,16.31903c-.07669.07669-.40282-.12509-.72842-.45069s-.52738-.65173-.45069-.72842.40282.12509.72842.45069.52738.65173.45069.72842ZM11.58874,17.76288c-.07669.07669-.40282-.12509-.72842-.45069s-.52738-.65173-.45069-.72842.40282.12509.72842.45069.52738.65173.45069.72842ZM10.1449,16.58377c.07669.07669-.12509.40282-.45069.72842s-.65173.52738-.72842.45069.12509-.40282.45069-.72842.65173-.52738.72842-.45069ZM11.58874,15.13992c.07669.07669-.12509.40282-.45069.72842s-.65173.52738-.72842.45069.12509-.40282.45069-.72842.65173-.52738.72842-.45069ZM12.97535,16.31903c-.07669.07669-.40282-.12509-.72842-.45069s-.52738-.65173-.45069-.72842.40282.12509.72842.45069.52738.65173.45069.72842ZM14.4192,17.76288c-.07669.07669-.40282-.12509-.72842-.45069s-.52738-.65173-.45069-.72842.40282.12509.72842.45069.52738.65173.45069.72842ZM12.97535,16.58377c.07669.07669-.12509.40282-.45069.72842s-.65173.52738-.72842.45069.12509-.40282.45069-.72842.65173-.52738.72842-.45069ZM14.4192,15.13992c.07669.07669-.12509.40282-.45069.72842s-.65173.52738-.72842.45069.12509-.40282.45069-.72842.65173-.52738.72842-.45069ZM15.80581,16.31903c-.07669.07669-.40282-.12509-.72842-.45069s-.52738-.65173-.45069-.72842.40282.12509.72842.45069.52738.65173.45069.72842ZM17.24965,17.76288c-.07669.07669-.40282-.12509-.72842-.45069s-.52738-.65173-.45069-.72842.40282.12509.72842.45069.52738.65173.45069.72842ZM15.80581,16.58377c.07669.07669-.12509.40282-.45069.72842s-.65173.52738-.72842.45069.12509-.40282.45069-.72842.65173-.52738.72842-.45069ZM17.24965,15.13992c.07669.07669-.12509.40282-.45069.72842s-.65173.52738-.72842.45069.12509-.40282.45069-.72842.65173-.52738.72842-.45069ZM10.17352,19.14949c-.07669.07669-.40282-.12509-.72842-.45069s-.52738-.65173-.45069-.72842.40282.12509.72842.45069.52738.65173.45069.72842ZM11.61736,20.59333c-.07669.07669-.40282-.12509-.72842-.45069s-.52738-.65173-.45069-.72842.40282.12509.72842.45069.52738.65173.45069.72842ZM10.17352,19.41422c.07669.07669-.12509.40282-.45069.72842s-.65173.52738-.72842.45069.12509-.40282.45069-.72842.65173-.52738.72842-.45069ZM11.61736,17.97037c.07669.07669-.12509.40282-.45069.72842s-.65173.52738-.72842.45069.12509-.40282.45069-.72842.65173-.52738.72842-.45069ZM13.00397,19.14949c-.07669.07669-.40282-.12509-.72842-.45069s-.52738-.65173-.45069-.72842.40282.12509.72842.45069.52738.65173.45069.72842ZM14.44782,20.59333c-.07669.07669-.40282-.12509-.72842-.45069s-.52738-.65173-.45069-.72842.40282.12509.72842.45069.52738.65173.45069.72842ZM13.00397,19.41422c.07669.07669-.12509.40282-.45069.72842s-.65173.52738-.72842.45069.12509-.40282.45069-.72842.65173-.52738.72842-.45069ZM14.44782,17.97037c.07669.07669-.12509.40282-.45069.72842s-.65173.52738-.72842.45069.12509-.40282.45069-.72842.65173-.52738.72842-.45069ZM15.83443,19.14949c-.07669.07669-.40282-.12509-.72842-.45069s-.52738-.65173-.45069-.72842.40282.12509.72842.45069.52738.65173.45069.72842ZM17.27827,20.59333c-.07669.07669-.40282-.12509-.72842-.45069s-.52738-.65173-.45069-.72842.40282.12509.72842.45069.52738.65173.45069.72842ZM15.83443,19.41422c.07669.07669-.12509.40282-.45069.72842s-.65173.52738-.72842.45069.12509-.40282.45069-.72842.65173-.52738.72842-.45069ZM17.27827,17.97037c.07669.07669-.12509.40282-.45069.72842s-.65173.52738-.72842.45069.12509-.40282.45069-.72842.65173-.52738.72842-.45069ZM10.1449,21.97994c-.07669.07669-.40282-.12509-.72842-.45069s-.52738-.65173-.45069-.72842.40282.12509.72842.45069.52738.65173.45069.72842ZM11.58874,23.42379c-.07669.07669-.40282-.12509-.72842-.45069s-.52738-.65173-.45069-.72842.40282.12509.72842.45069.52738.65173.45069.72842ZM10.1449,22.24468c.07669.07669-.12509.40282-.45069.72842s-.65173.52738-.72842.45069.12509-.40282.45069-.72842.65173-.52738.72842-.45069ZM11.58874,20.80083c.07669.07669-.12509.40282-.45069.72842s-.65173.52738-.72842.45069.12509-.40282.45069-.72842.65173-.52738.72842-.45069ZM12.97535,21.97994c-.07669.07669-.40282-.12509-.72842-.45069s-.52738-.65173-.45069-.72842.40282.12509.72842.45069.52738.65173.45069.72842ZM14.4192,23.42379c-.07669.07669-.40282-.12509-.72842-.45069s-.52738-.65173-.45069-.72842.40282.12509.72842.45069.52738.65173.45069.72842ZM12.97535,22.24468c.07669.07669-.12509.40282-.45069.72842s-.65173.52738-.72842.45069.12509-.40282.45069-.72842.65173-.52738.72842-.45069ZM14.4192,20.80083c.07669.07669-.12509.40282-.45069.72842s-.65173.52738-.72842.45069.12509-.40282.45069-.72842.65173-.52738.72842-.45069ZM15.80581,21.97994c-.07669.07669-.40282-.12509-.72842-.45069s-.52738-.65173-.45069-.72842.40282.12509.72842.45069.52738.65173.45069.72842ZM17.24965,23.42379c-.07669.07669-.40282-.12509-.72842-.45069s-.52738-.65173-.45069-.72842.40282.12509.72842.45069.52738.65173.45069.72842ZM15.80581,22.24468c.07669.07669-.12509.40282-.45069.72842s-.65173.52738-.72842.45069.12509-.40282.45069-.72842.65173-.52738.72842-.45069ZM17.24965,20.80083c.07669.07669-.12509.40282-.45069.72842s-.65173.52738-.72842.45069.12509-.40282.45069-.72842.65173-.52738.72842-.45069ZM10.11628,24.81039c-.07669.07669-.40282-.12509-.72842-.45069s-.52738-.65173-.45069-.72842.40282.12509.72842.45069.52738.65173.45069.72842ZM11.56013,26.25424c-.07669.07669-.40282-.12509-.72842-.45069s-.52738-.65173-.45069-.72842.40282.12509.72842.45069.52738.65173.45069.72842ZM10.11628,25.07513c.07669.07669-.12509.40282-.45069.72842s-.65173.52738-.72842.45069.12509-.40282.45069-.72842.65173-.52738.72842-.45069ZM11.56013,23.63128c.07669.07669-.12509.40282-.45069.72842s-.65173.52738-.72842.45069.12509-.40282.45069-.72842.65173-.52738.72842-.45069ZM12.94673,24.81039c-.07669.07669-.40282-.12509-.72842-.45069s-.52738-.65173-.45069-.72842.40282.12509.72842.45069.52738.65173.45069.72842ZM14.39058,26.25424c-.07669.07669-.40282-.12509-.72842-.45069s-.52738-.65173-.45069-.72842.40282.12509.72842.45069.52738.65173.45069.72842ZM12.94673,25.07513c.07669.07669-.12509.40282-.45069.72842s-.65173.52738-.72842.45069.12509-.40282.45069-.72842.65173-.52738.72842-.45069ZM14.39058,23.63128c.07669.07669-.12509.40282-.45069.72842s-.65173.52738-.72842.45069.12509-.40282.45069-.72842.65173-.52738.72842-.45069ZM15.77719,24.81039c-.07669.07669-.40282-.12509-.72842-.45069s-.52738-.65173-.45069-.72842.40282.12509.72842.45069.52738.65173.45069.72842ZM17.22103,26.25424c-.07669.07669-.40282-.12509-.72842-.45069s-.52738-.65173-.45069-.72842.40282.12509.72842.45069.52738.65173.45069.72842ZM15.77719,25.07513c.07669.07669-.12509.40282-.45069.72842s-.65173.52738-.72842.45069.12509-.40282.45069-.72842.65173-.52738.72842-.45069ZM17.22103,23.63128c.07669.07669-.12509.40282-.45069.72842s-.65173.52738-.72842.45069.12509-.40282.45069-.72842.65173-.52738.72842-.45069ZM10.1449,27.69809c-.07669.07669-.40282-.12509-.72842-.45069s-.52738-.65173-.45069-.72842.40282.12509.72842.45069.52738.65173.45069.72842ZM11.58874,29.14193c-.07669.07669-.40282-.12509-.72842-.45069s-.52738-.65173-.45069-.72842.40282.12509.72842.45069.52738.65173.45069.72842ZM10.1449,27.96282c.07669.07669-.12509.40282-.45069.72842s-.65173.52738-.72842.45069.12509-.40282.45069-.72842.65173-.52738.72842-.45069ZM11.58874,26.51898c.07669.07669-.12509.40282-.45069.72842s-.65173.52738-.72842.45069.12509-.40282.45069-.72842.65173-.52738.72842-.45069ZM12.97535,27.69809c-.07669.07669-.40282-.12509-.72842-.45069s-.52738-.65173-.45069-.72842.40282.12509.72842.45069.52738.65173.45069.72842ZM14.4192,29.14193c-.07669.07669-.40282-.12509-.72842-.45069s-.52738-.65173-.45069-.72842.40282.12509.72842.45069.52738.65173.45069.72842ZM12.97535,27.96282c.07669.07669-.12509.40282-.45069.72842s-.65173.52738-.72842.45069.12509-.40282.45069-.72842.65173-.52738.72842-.45069ZM14.4192,26.51898c.07669.07669-.12509.40282-.45069.72842s-.65173.52738-.72842.45069.12509-.40282.45069-.72842.65173-.52738.72842-.45069ZM15.80581,27.69809c-.07669.07669-.40282-.12509-.72842-.45069s-.52738-.65173-.45069-.72842.40282.12509.72842.45069.52738.65173.45069.72842ZM17.24965,29.14193c-.07669.07669-.40282-.12509-.72842-.45069s-.52738-.65173-.45069-.72842.40282.12509.72842.45069.52738.65173.45069.72842ZM15.80581,27.96282c.07669.07669-.12509.40282-.45069.72842s-.65173.52738-.72842.45069.12509-.40282.45069-.72842.65173-.52738.72842-.45069ZM17.24965,26.51898c.07669.07669-.12509.40282-.45069.72842s-.65173.52738-.72842.45069.12509-.40282.45069-.72842.65173-.52738.72842-.45069ZM10.11628,30.52854c-.07669.07669-.40282-.12509-.72842-.45069s-.52738-.65173-.45069-.72842.40282.12509.72842.45069.52738.65173.45069.72842ZM11.56013,31.97239c-.07669.07669-.40282-.12509-.72842-.45069s-.52738-.65173-.45069-.72842.40282.12509.72842.45069.52738.65173.45069.72842ZM10.11628,30.79328c.07669.07669-.12509.40282-.45069.72842s-.65173.52738-.72842.45069.12509-.40282.45069-.72842.65173-.52738.72842-.45069ZM11.56013,29.34943c.07669.07669-.12509.40282-.45069.72842s-.65173.52738-.72842.45069.12509-.40282.45069-.72842.65173-.52738.72842-.45069ZM12.94673,30.52854c-.07669.07669-.40282-.12509-.72842-.45069s-.52738-.65173-.45069-.72842.40282.12509.72842.45069.52738.65173.45069.72842ZM14.39058,31.97239c-.07669.07669-.40282-.12509-.72842-.45069s-.52738-.65173-.45069-.72842.40282.12509.72842.45069.52738.65173.45069.72842ZM12.94673,30.79328c.07669.07669-.12509.40282-.45069.72842s-.65173.52738-.72842.45069.12509-.40282.45069-.72842.65173-.52738.72842-.45069ZM14.39058,29.34943c.07669.07669-.12509.40282-.45069.72842s-.65173.52738-.72842.45069.12509-.40282.45069-.72842.65173-.52738.72842-.45069ZM15.77719,30.52854c-.07669.07669-.40282-.12509-.72842-.45069s-.52738-.65173-.45069-.72842.40282.12509.72842.45069.52738.65173.45069.72842ZM17.22103,31.97239c-.07669.07669-.40282-.12509-.72842-.45069s-.52738-.65173-.45069-.72842.40282.12509.72842.45069.52738.65173.45069.72842ZM15.77719,30.79328c.07669.07669-.12509.40282-.45069.72842s-.65173.52738-.72842.45069.12509-.40282.45069-.72842.65173-.52738.72842-.45069ZM17.22103,29.34943c.07669.07669-.12509.40282-.45069.72842s-.65173.52738-.72842.45069.12509-.40282.45069-.72842.65173-.52738.72842-.45069ZM10.11628,33.35899c-.07669.07669-.40282-.12509-.72842-.45069s-.52738-.65173-.45069-.72842.40282.12509.72842.45069.52738.65173.45069.72842ZM11.56013,34.80284c-.07669.07669-.40282-.12509-.72842-.45069s-.52738-.65173-.45069-.72842.40282.12509.72842.45069.52738.65173.45069.72842ZM10.11628,33.62373c.07669.07669-.12509.40282-.45069.72842s-.65173.52738-.72842.45069.12509-.40282.45069-.72842.65173-.52738.72842-.45069ZM11.56013,32.17988c.07669.07669-.12509.40282-.45069.72842s-.65173.52738-.72842.45069.12509-.40282.45069-.72842.65173-.52738.72842-.45069ZM12.94673,33.35899c-.07669.07669-.40282-.12509-.72842-.45069s-.52738-.65173-.45069-.72842.40282.12509.72842.45069.52738.65173.45069.72842ZM14.39058,34.80284c-.07669.07669-.40282-.12509-.72842-.45069s-.52738-.65173-.45069-.72842.40282.12509.72842.45069.52738.65173.45069.72842ZM12.94673,33.62373c.07669.07669-.12509.40282-.45069.72842s-.65173.52738-.72842.45069.12509-.40282.45069-.72842.65173-.52738.72842-.45069ZM14.39058,32.17988c.07669.07669-.12509.40282-.45069.72842s-.65173.52738-.72842.45069.12509-.40282.45069-.72842.65173-.52738.72842-.45069ZM15.77719,33.35899c-.07669.07669-.40282-.12509-.72842-.45069s-.52738-.65173-.45069-.72842.40282.12509.72842.45069.52738.65173.45069.72842ZM17.22103,34.80284c-.07669.07669-.40282-.12509-.72842-.45069s-.52738-.65173-.45069-.72842.40282.12509.72842.45069.52738.65173.45069.72842ZM15.77719,33.62373c.07669.07669-.12509.40282-.45069.72842s-.65173.52738-.72842.45069.12509-.40282.45069-.72842.65173-.52738.72842-.45069ZM17.22103,32.17988c.07669.07669-.12509.40282-.45069.72842s-.65173.52738-.72842.45069.12509-.40282.45069-.72842.65173-.52738.72842-.45069ZM18.66488,7.85629c-.07669.07669-.40282-.12509-.72842-.45069s-.52738-.65173-.45069-.72842.40282.12509.72842.45069.52738.65173.45069.72842ZM20.10873,9.30013c-.07669.07669-.40282-.12509-.72842-.45069s-.52738-.65173-.45069-.72842.40282.12509.72842.45069.52738.65173.45069.72842ZM18.66488,8.12102c.07669.07669-.12509.40282-.45069.72842s-.65173.52738-.72842.45069.12509-.40282.45069-.72842.65173-.52738.72842-.45069ZM20.10873,6.67718c.07669.07669-.12509.40282-.45069.72842s-.65173.52738-.72842.45069.12509-.40282.45069-.72842.65173-.52738.72842-.45069ZM21.55257,2.19538c-.07669.07669-.40282-.12509-.72842-.45069s-.52738-.65173-.45069-.72842.40282.12509.72842.45069.52738.65173.45069.72842ZM22.99642,3.63923c-.07669.07669-.40282-.12509-.72842-.45069s-.52738-.65173-.45069-.72842.40282.12509.72842.45069.52738.65173.45069.72842ZM21.55257,2.46012c.07669.07669-.12509.40282-.45069.72842s-.65173.52738-.72842.45069.12509-.40282.45069-.72842.65173-.52738.72842-.45069ZM22.99642,1.01627c.07669.07669-.12509.40282-.45069.72842s-.65173.52738-.72842.45069.12509-.40282.45069-.72842.65173-.52738.72842-.45069ZM24.38303,2.19538c-.07669.07669-.40282-.12509-.72842-.45069s-.52738-.65173-.45069-.72842.40282.12509.72842.45069.52738.65173.45069.72842ZM25.82687,3.63923c-.07669.07669-.40282-.12509-.72842-.45069s-.52738-.65173-.45069-.72842.40282.12509.72842.45069.52738.65173.45069.72842ZM24.38303,2.46012c.07669.07669-.12509.40282-.45069.72842s-.65173.52738-.72842.45069.12509-.40282.45069-.72842.65173-.52738.72842-.45069ZM25.82687,1.01627c.07669.07669-.12509.40282-.45069.72842s-.65173.52738-.72842.45069.12509-.40282.45069-.72842.65173-.52738.72842-.45069ZM21.52395,5.02583c-.07669.07669-.40282-.12509-.72842-.45069s-.52738-.65173-.45069-.72842.40282.12509.72842.45069.52738.65173.45069.72842ZM22.9678,6.46968c-.07669.07669-.40282-.12509-.72842-.45069s-.52738-.65173-.45069-.72842.40282.12509.72842.45069.52738.65173.45069.72842ZM21.52395,5.29057c.07669.07669-.12509.40282-.45069.72842s-.65173.52738-.72842.45069.12509-.40282.45069-.72842.65173-.52738.72842-.45069ZM22.9678,3.84672c.07669.07669-.12509.40282-.45069.72842s-.65173.52738-.72842.45069.12509-.40282.45069-.72842.65173-.52738.72842-.45069ZM24.35441,5.02583c-.07669.07669-.40282-.12509-.72842-.45069s-.52738-.65173-.45069-.72842.40282.12509.72842.45069.52738.65173.45069.72842ZM25.79825,6.46968c-.07669.07669-.40282-.12509-.72842-.45069s-.52738-.65173-.45069-.72842.40282.12509.72842.45069.52738.65173.45069.72842ZM24.35441,5.29057c.07669.07669-.12509.40282-.45069.72842s-.65173.52738-.72842.45069.12509-.40282.45069-.72842.65173-.52738.72842-.45069ZM25.79825,3.84672c.07669.07669-.12509.40282-.45069.72842s-.65173.52738-.72842.45069.12509-.40282.45069-.72842.65173-.52738.72842-.45069ZM21.49533,7.85629c-.07669.07669-.40282-.12509-.72842-.45069s-.52738-.65173-.45069-.72842.40282.12509.72842.45069.52738.65173.45069.72842ZM22.93918,9.30013c-.07669.07669-.40282-.12509-.72842-.45069s-.52738-.65173-.45069-.72842.40282.12509.72842.45069.52738.65173.45069.72842ZM21.49533,8.12102c.07669.07669-.12509.40282-.45069.72842s-.65173.52738-.72842.45069.12509-.40282.45069-.72842.65173-.52738.72842-.45069ZM22.93918,6.67718c.07669.07669-.12509.40282-.45069.72842s-.65173.52738-.72842.45069.12509-.40282.45069-.72842.65173-.52738.72842-.45069ZM24.32579,7.85629c-.07669.07669-.40282-.12509-.72842-.45069s-.52738-.65173-.45069-.72842.40282.12509.72842.45069.52738.65173.45069.72842ZM25.76963,9.30013c-.07669.07669-.40282-.12509-.72842-.45069s-.52738-.65173-.45069-.72842.40282.12509.72842.45069.52738.65173.45069.72842ZM24.32579,8.12102c.07669.07669-.12509.40282-.45069.72842s-.65173.52738-.72842.45069.12509-.40282.45069-.72842.65173-.52738.72842-.45069ZM25.76963,6.67718c.07669.07669-.12509.40282-.45069.72842s-.65173.52738-.72842.45069.12509-.40282.45069-.72842.65173-.52738.72842-.45069Z"/>
      </g>
    </g>
  </g>
</svg>