
<svg xmlns="http://www.w3.org/2000/svg" version="1.1" viewBox="0 0 50 50">
  <defs>
    <style>
      .cls-4 {
        fill: none;
        stroke-linecap: round;
        stroke-miterlimit: 10;
        stroke-width: .35px;
      }
    </style>
  </defs>

  <g>
    <g id="stitch-4">
      <path class="cls-4" d="M21.77157,48.8974s-.20041-.31592-.37317-.73927c-.17532-.41558-.31426-.97195-.24557-1.40613.13786-.85367.65867-1.18949,1.17229-1.14512.51251.04997.94736.48951.89113,1.36655-.0297.4384-.28652.92976-.55102,1.31011-.26299.3805-.52911.65008-.52911.65008M22.2339,46.41988l.15886-1.41583M18.93829,48.41181s-.03707-.08319-.09854-.22114c-.05783-.13454-.12947-.33206-.18913-.5643-.12221-.45809-.19782-1.01772-.07913-1.44079.24449-.85767.77761-1.05995,1.28653-.9842.50282.09759.88637.57504.73581,1.4409-.07696.43261-.38644.89592-.69276,1.2478-.30469.3522-.60135.59355-.60135.59355M19.67645,45.99908l.31625-1.38918M16.16619,47.58269s-.12032-.3677-.18579-.83244c-.06721-.46542-.07462-1.02542.09601-1.43035.34477-.80839.92028-.99624,1.3885-.79949.48576.15278.81326.657.56128,1.50083-.12739.42053-.49093.84804-.83922,1.16487-.34661.31741-.67284.52534-.67284.52534M17.18805,45.29025l.48215-1.34066M13.51427,46.38909s-.07525-.37538-.08292-.83959c-.00939-.46512.0535-1.01588.27572-1.39494.44794-.75611,1.04908-.87984,1.49386-.63776.43575.26032.70504.7806.34967,1.58455-.17935.40112-.5963.78432-.98491,1.05925-.37904.25846-.72306.40565-.72306.40565M14.82683,44.24437l.65151-1.26704M11.02774,44.86587s-.02852-.37675.02205-.8323c.04357-.44956.19524-1.00659.46572-1.35121.27358-.34998.55129-.51097.82764-.57701.27578-.06413.53303-.0083.74364.13557.41752.2852.58562.87947.1276,1.62953-.23071.37394-.68626.68506-1.10026.89203-.41235.20807-.77809.31465-.77809.31465M12.61869,42.9119l.81515-1.1685M8.75356,43.03495s.03313-.3876.15516-.8427c.12074-.45657.33412-.97624.64958-1.28212.63902-.61464,1.22103-.54211,1.5942-.20163.38698.32542.48377.92463-.07137,1.60594-.27915.33934-.77727.59141-1.22025.74586-.44147.15575-.82304.21726-.82304.21726M10.59797,41.30997l.96574-1.04746M6.78176,40.88678s.07895-.37496.25484-.8052c.17469-.43175.44932-.91407.80252-1.17547.70874-.51967,1.30907-.39614,1.62195.0026.29672.41319.35037.98566-.29774,1.59144-.32233.29863-.85523.48633-1.32014.58493-.23552.05297-.4363.07098-.58688.08271-.15173.00706-.24326.01131-.24326.01131M8.8311,39.43071l1.09707-.90903M5.09657,38.51736s.12113-.35727.34525-.75724c.21573-.39736.5719-.85236.95359-1.0655.38668-.21684.70822-.25929.98623-.211.27888.0485.49436.20106.63271.4166.2744.42754.19812,1.04125-.51747,1.55145-.35888.25352-.90009.36163-1.36172.39113-.46058.03107-.83814-.01228-.83814-.01228M7.32201,37.33608l1.20569-.75903M3.71241,35.9711s.17761-.3434.46214-.71757c.28381-.37575.67618-.77747,1.08302-.94343.82126-.33168,1.33837-.04394,1.55551.41715.23453.45232.09607,1.04546-.67832,1.46102-.38804.20614-.94477.24827-1.41233.22304-.46677-.0236-.8416-.11006-.8416-.11006M6.07185,35.07347l1.29086-.60293M2.68818,33.27434s.211-.31771.53155-.65404c.32007-.33791.75074-.68972,1.17407-.80751.84759-.23233,1.36193.10355,1.50981.59424.12904.49778-.03069,1.05235-.8592,1.37488-.41009.15778-.97368.13487-1.4404.05655-.23652-.03738-.4366-.09088-.57813-.13506-.14358-.04791-.2302-.07683-.2302-.07683M5.12669,32.66341l1.35296-.44651M1.96632,30.49388s.23992-.29036.59067-.58762c.35145-.29899.80992-.59959,1.24817-.67096.86338-.13721,1.35248.25168,1.45746.75477.10588.50294-.18176,1.05459-1.03199,1.27698-.42552.10962-.96971.01945-1.41103-.11331-.44096-.13123-.77767-.30063-.77767-.30063M4.46191,30.158l1.3944-.29245M1.53959,27.66378s.06746-.06138.17932-.16316c.1125-.09777.27145-.22743.47174-.35717.39339-.26035.89762-.51273,1.3363-.53813.88598-.04871,1.26523.39709,1.34746.90668.06397.51142-.26979,1.02865-1.1391,1.15773-.43485.06299-.97122-.08468-1.40065-.26295-.42929-.17675-.75074-.37973-.75074-.37973M4.06043,27.59393l1.41756-.14267M1.41452,24.81405s.30382-.23327.71749-.45157c.4137-.21979.93689-.4203,1.37586-.4013.87789.04102,1.25199.52262,1.22882,1.03849.01808.51628-.35392.99732-1.23283,1.03619-.43903.01793-.96183-.18377-1.37511-.40431-.41328-.21908-.71665-.45272-.71665-.45272M3.91859,24.99889l1.42472.00135M1.59228,21.96355s.32272-.2022.75314-.37751c.43061-.17685.968-.32237,1.40261-.25758.86874.13273,1.19955.65062,1.13258,1.16098-.08665.50826-.46025.95366-1.34857.90233-.43861-.02654-.94233-.28032-1.33518-.54193-.19969-.13035-.36279-.26083-.47264-.35891-.11129-.10221-.17839-.16386-.17839-.16386M4.06686,22.40488l1.41711.14726M2.06456,19.13573s.33866-.16777.78134-.29642c.44301-.13025.98855-.21688,1.41335-.10454.84876.22791,1.13134.78036,1.0205,1.2814-.10979.50119-.60557.88636-1.45851.74719-.43846-.07347-.90698-.37796-1.25037-.67778-.3482-.29895-.5855-.59073-.5855-.59073M4.47996,19.84394l1.3928.29993M2.84099,16.36441s.35088-.13037.80041-.20938c.46521-.07546,1.0335-.09219,1.44145.06861.81344.32443.99387.88953.85565,1.38376-.1545.48785-.67417.81868-1.52022.58085-.42252-.12059-.84939-.47487-1.16564-.81485-.31676-.33838-.52397-.65762-.52397-.65762M5.16358,17.34513l1.3495.45673M3.93842,13.69223s.37748-.08223.8463-.10075c.46963-.02013,1.02781.02797,1.41398.23758.77153.42298.89762,1.01352.65858,1.46318-.19731.47085-.74024.74228-1.55256.40684-.40543-.16938-.79274-.57378-1.07162-.95153-.27963-.37614-.45251-.72076-.45251-.72076M6.11912,14.9395l1.28548.61429M5.38207,11.17873s.37979-.03868.84202-.00235c.46325.03478,1.00555.14872,1.36232.40523.71132.51609.77785,1.1276.49476,1.54977-.29889.41245-.84834.62776-1.61247.19627-.38169-.21767-.72206-.66961-.95774-1.08216-.21873-.40061-.33493-.75751-.33493-.75751M7.39262,12.68956l1.1991.76942M7.11976,8.85134s.3766.00549.82514.09616c.4461.08587.99387.29093,1.31024.58733.32175.30017.46846.60065.49674.87023.03966.28089-.03881.5333-.20074.73147-.32118.39308-.92711.50911-1.63175-.01608-.35118-.26412-.62028-.74692-.79006-1.17811-.17096-.42974-.24563-.80327-.24563-.80327M8.9247,10.61035l1.09093.91634M9.13738,6.75613s.38232.06494.82481.22379c.44397.1576.94357.41233,1.22248.75187.55713.68412.44719,1.27093.06463,1.60322-.35681.36064-.96135.40839-1.59222-.20347-.31408-.3073-.52331-.82591-.64059-1.28062-.11869-.45339-.14902-.83865-.14902-.83865M10.69645,8.73197l.96279,1.05018M11.43238,4.96818s.36673.10836.78104.31762c.41584.20819.8744.51985,1.10688.8927.46175.74777.29115,1.33777-.13088,1.61957-.43395.26599-1.0187.26162-1.56523-.42823-.27136-.34561-.41563-.89257-.47709-1.3642-.05368-.45787-.02359-.82966-.02359-.82966M12.71973,7.12822l.81795,1.16653M13.92562,3.4771s.34646.14883.72736.40365c.37889.24616.80414.63648.98671,1.03433.18582.403.2021.72528.13271,1.00007-.07031.27434-.23934.47735-.46506.59848-.44776.24028-1.05333.11621-1.50527-.63752-.22433-.37782-.28938-.92612-.28243-1.3888.00533-.46178.0782-.83489.0782-.83489M14.92756,5.78901l.66141,1.26191M16.57502,2.30078s.0788.04137.2058.13481c.1261.09071.29585.22087.47135.37814.35244.3141.72203.73849.85499,1.15729.26645.84872-.0667,1.32662-.53829,1.51924-.46969.19689-1.05026.01095-1.40333-.79385-.17481-.40312-.17261-.96103-.11021-1.42475.06072-.46304.17688-.82951.17688-.82951M17.28255,4.72389l.49864,1.33461M19.34531,1.4891s.30018.23819.61011.58709c.31152.34853.62798.80843.71132,1.23987.16328.86354-.21398,1.34397-.7162,1.44606-.50243.10088-1.04316-.10497-1.29887-.95817-.1245-.4214-.0562-.98014.05969-1.43792.05726-.22869.12489-.43166.17851-.57751.05422-.14302.0949-.2242.0949-.2242M19.75753,3.96709l.33614,1.38451M22.17601,1s.27024.26615.53865.64328c.26997.37698.53357.86505.56922,1.30302.06812.87619-.36036,1.32094-.87175,1.37711-.25746.02828-.51494-.04283-.72998-.22881-.21206-.17329-.38289-.45927-.45745-.8934-.07426-.42694.05455-.99794.22391-1.41669.16677-.42537.36297-.74371.36297-.74371M22.30932,3.51178l.17902,1.41343M22.12745,4.15243s.27728.26212.55219.63577c.27677.37338.54566.85848.58815,1.29583.08106.87509-.32627,1.32306-.8209,1.38262-.25138.02153-.49972-.02931-.71159-.18999-.21233-.16616-.3921-.45238-.482-.88248-.09074-.42993.01914-.98068.17132-1.42743.14935-.45433.33872-.76869.33872-.76869M22.53823,8.06633l-.21458-1.40848M19.2817,4.75784s.0735.05443.19548.14473c.11791.0921.27521.22242.43958.39702.32858.34051.6633.79313.76473,1.22066.20171.86508-.15468,1.30884-.61706,1.48276-.46855.15349-1.02805-.08041-1.33636-.9034-.15209-.41224-.11948-.96355-.02888-1.41839.08855-.4542.22939-.80933.22939-.80933M20.2392,8.58391l-.41051-1.36431M16.5372,5.78917s.34429.16972.71557.44832c.37329.27768.76741.66615.93048,1.07416.32196.81774.06357,1.36333-.38668,1.55977-.23182.09088-.48085.11544-.72989.02299-.25057-.09718-.50667-.31795-.71975-.70221-.21389-.38382-.27094-.94233-.2546-1.41508.01083-.47916.10431-.837.10431-.837M18.05706,9.41925l-.61179-1.28668M13.97118,7.23043s.36219.1052.7675.31414c.41791.22489.87449.5583,1.09888.93571.44412.75614.25478,1.30276-.13401,1.60213-.3992.28317-1.00495.22659-1.55286-.46055-.27208-.34501-.40943-.87745-.46052-1.33699-.05295-.45818-.02458-.83891-.02458-.83891M16.04702,10.58243l-.80673-1.17434M11.65948,9.06108s.38289.05559.8249.20665c.44376.14952.9411.39845,1.22281.73563.55983.67748.48046,1.27048.10976,1.59037-.34462.34782-.93018.41023-1.5822-.1841-.32323-.29762-.54948-.80774-.67925-1.2593-.13136-.44994-.17041-.83608-.17041-.83608M14.23561,12.03271l-.98331-1.031M9.68242,11.23916s.37946-.00954.8327.06539c.4505.06974.98298.23919,1.31858.53125.64799.57009.68081,1.18452.37997,1.57299-.15164.19647-.37492.32348-.65437.34406-.2703.02628-.59239-.04895-.95834-.29513-.35948-.24077-.6868-.72641-.86736-1.13941-.18967-.4166-.27852-.78417-.27852-.78417M12.69557,13.77723l-1.13182-.86533M8.04564,13.67031s.0905-.01744.24684-.03001c.15459-.01348.3677-.02514.60247-.01921.47044.0103,1.02309.09747,1.39452.33225.74794.47783.82078,1.04994.58944,1.48624-.22174.4423-.77965.67045-1.57513.29684-.39679-.18872-.76154-.60721-1.01782-.99652-.25722-.38748-.40813-.74016-.40813-.74016M11.41042,15.73194l-1.24835-.68664M6.81922,16.31171s.36189-.11456.81952-.1716c.45838-.05888,1.00976-.05518,1.41118.12349.80125.36106.99815.93815.81485,1.39978-.19948.45552-.68951.77248-1.52855.51008-.41878-.13296-.84599-.5001-1.16239-.85135-.30205-.34486-.48967-.66788-.48967-.66788M10.43198,17.87846l-1.33217-.50514M5.93944,19.06894s.08346-.03579.22189-.09517c.14502-.05375.34691-.12151.57449-.17873.45558-.11597,1.01196-.18332,1.43372-.06005.85346.25346,1.06819.7843.97326,1.27638-.09995.49081-.57945.86179-1.44464.70753-.43226-.07892-.89383-.38716-1.24369-.69279-.35028-.30388-.58944-.59997-.58944-.59997M9.73323,20.15053l-1.38672-.32685M5.44489,21.90015s.32043-.1982.74821-.36741c.42799-.17088.96228-.30799,1.39614-.23847.86724.14245,1.20349.65477,1.14305,1.15404-.03012.25154-.15838.48-.38662.64248-.21446.16342-.53661.26092-.9751.23239-.43455-.02771-.95178-.28044-1.32745-.5405-.37624-.25857-.64143-.52185-.64143-.52185M9.33521,22.51532l-1.41603-.15739M5.25739,24.75169s.30301-.2317.7159-.44759c.41292-.21749.93529-.41451,1.37427-.39523.87918.04187,1.25097.51353,1.23565,1.01814.01992.50496-.35723.97812-1.23496,1.02234-.43891.02049-.96078-.17509-1.37321-.39127-.41244-.21458-.71499-.44519-.71499-.44519M9.1898,24.92605l-1.42472.00227M5.40981,27.60109s.26663-.26349.64435-.52295c.37197-.26072.8744-.51383,1.31581-.54305.86552-.05356,1.31033.37182,1.36858.87234.05671.50077-.28559,1.01483-1.14049,1.15577-.43801.07048-.98097-.06503-1.40252-.23596-.42616-.16864-.74496-.366-.74496-.366M9.34132,27.33933l-1.41573.15993M5.86476,30.43059s.24211-.2954.59516-.59907c.35268-.30534.8169-.61398,1.24913-.69296.86516-.1545,1.33891.21885,1.43267.71239.13335.48242-.1236,1.02583-.96737,1.27331-.42215.1219-.97525.05214-1.42722-.06518-.45155-.11558-.80017-.27378-.80017-.27378M9.73239,29.71284l-1.38732.3244M6.68437,33.1953s.19463-.32297.49888-.66646c.29838-.34367.7242-.70752,1.14783-.84007.8274-.25431,1.36353.04823,1.53659.51547.16665.47031-.02897,1.04398-.82168,1.39432-.40115.17535-.97531.18419-1.4228.11874-.45387-.06084-.81142-.17794-.81142-.17794M10.43607,31.99232l-1.33497.49772M7.84101,35.85802s.15787-.35217.422-.73873c.26326-.38834.6349-.8056,1.03314-.99129.80309-.37046,1.33588-.12387,1.56749.31316.25201.4248.14168,1.01612-.60349,1.48202-.37371.2311-.92359.3108-1.39027.31482-.46569.00584-.84458-.059-.84458-.059M11.39781,34.15367l-1.25455.67523M9.4054,38.33135s.09613-.36911.29353-.78635c.19614-.41904.49662-.88058.86423-1.12126.73774-.47761,1.32914-.33568,1.61689.06297.2728.41129.28068.98498-.38596,1.56028-.33415.2853-.87244.45286-1.34111.53155-.45576.07177-.82884.05392-.82884.05392M12.66566,36.12318l-1.14055.8538M11.31868,40.56769s.00749-.09344.03018-.24168c.0198-.14556.0655-.35498.13578-.58199.13717-.45343.37143-.9644.69745-1.25897.32542-.29526.63863-.4216.90659-.43258.26245-.00414.49882.09022.68524.25249.36014.33006.42793.93061-.13654,1.60424-.28402.33523-.78022.57725-1.22242.71993-.44048.14425-.82138.19318-.82138.19318M14.19626,37.86949l-.99189,1.02277M13.58675,42.4642s-.02488-.38477.03246-.84628c.05545-.46292.19818-.9978.4724-1.34113.55225-.68364,1.15204-.73031,1.54239-.43757.19111.15727.34257.35047.38376.6165.0405.26557-.02281.59788-.24897.9746-.22532.37722-.68045.7055-1.09864.92688-.20823.1112-.4054.19677-.55078.25424-.14108.05092-.23089.07568-.23089.07568M15.97953,39.34063l-.81151,1.17101M16.1288,43.96816s-.09086-.36576-.11373-.82089c-.0179-.47034.04369-1.03687.25731-1.41905.21347-.38406.46855-.60274.71695-.69693.25003-.09541.5135-.09908.73678.00683.44568.20247.70109.75415.38169,1.5729-.1619.40847-.55364.79479-.92558,1.0699-.36983.27607-.71346.4429-.71346.4429M17.98614,40.49008l-.6108,1.28716M18.86632,45.04269s-.14222-.3572-.23212-.81353c-.09201-.457-.12583-1.01048.02497-1.42319.30584-.82391.86194-1.05495,1.32799-.89764.23191.08989.43942.22689.56215.46777.12215.24029.16422.57569.06418,1.00355-.09923.42805-.43136.88084-.75817,1.22142-.16253.1705-.32193.31336-.44102.41344-.11767.0935-.19469.14476-.19469.14476M20.1592,41.32663l-.40404,1.36623M21.70716,45.69563s-.04296-.08018-.11427-.21323c-.067-.13226-.15326-.31801-.22923-.54574-.1545-.44755-.26708-.99929-.17866-1.4297.18332-.87014.68876-1.12004,1.18863-1.08298.49518.05846.90481.50556.82776,1.38102-.04047.43753-.30698.92342-.58174,1.29769-.27292.3745-.54855.63752-.54855.63752M22.4619,41.82384l-.20733,1.40956M22.08108,7.31492s.29383.25461.58384.62189c.29248.36688.57382.84667.6257,1.28298.09875.87351-.28809,1.32649-.76906,1.39277-.46704.11648-.9927-.1628-1.22916-1.00923-.11554-.42391-.03379-.9732.10254-1.42236.13371-.44859.31459-.79427.31459-.79427M22.6358,11.20832l-.26829-1.39924M19.20796,8.11897s.33947.19108.69315.49489c.35632.30284.7186.72006.84765,1.14007.25252.84178-.03698,1.36497-.48802,1.52248-.44294.17467-.99538.02958-1.39716-.76133-.19638-.39303-.22388-.94986-.17571-1.4202.04561-.46868.15952-.84607.15952-.84607M20.4854,11.83988l-.52767-1.3234M16.51966,9.47938s.37239.1162.78013.34086c.41033.22308.84777.55804,1.05772.944.41445.77499.23995,1.34758-.16518,1.59353-.40067.25267-.96565.2319-1.52287-.46152-.27307-.34418-.41478-.88404-.46416-1.35516-.02569-.23477-.03042-.4506-.02825-.60794.00063-.15957.01426-.25036.01426-.25036M18.52702,12.8637l-.78606-1.18825M14.16343,11.36492s.3877.03741.83261.17336c.44704.13392.94405.37135,1.22919.70564.56567.6726.5126,1.26959.16644,1.59485-.34152.33052-.9016.427-1.58665-.14009-.33689-.28202-.58511-.782-.73004-1.23227-.07323-.22421-.1223-.43396-.15266-.58794-.0324-.15573-.03752-.24727-.03752-.24727M16.82303,14.26525l-1.01316-1.00167M12.24799,13.67019s.38554-.03699.84753.00973c.46355.04447.998.17854,1.34427.44901.68909.54545.75284,1.14362.47529,1.53501-.27635.39285-.80866.59892-1.58737.16873-.38358-.21424-.72194-.65878-.95106-1.07151-.11511-.20541-.20405-.40078-.26387-.54512-.06023-.14451-.08337-.23306-.08337-.23306M15.42096,15.99873l-1.18812-.78627M10.81316,16.26048s.37007-.1017.83125-.13717c.46271-.03744,1.01066-.00366,1.40285.19975.77568.40798.94685.9902.74307,1.43193-.10997.22-.28354.40136-.53315.49603-.2537.09177-.59263.09449-1.00627-.05377-.41394-.14738-.82376-.52902-1.12183-.89462-.30587-.36556-.47174-.69962-.47174-.69962M14.34697,17.99608l-1.30738-.56626M9.84161,19.0157s.34624-.15521.79352-.26214c.44162-.11075,1.00636-.16067,1.42563-.02389.82259.27253,1.08043.82247.95614,1.3003-.14219.47246-.59841.83981-1.46131.67371-.43109-.08501-.89549-.40189-1.24781-.71645-.33818-.31023-.56149-.6131-.56149-.6131M13.60411,20.18212l-1.3792-.35735M9.28728,21.8479s.31528-.19864.74511-.36537c.44114-.16768.98783-.2974,1.42078-.22247.86654.15421,1.15941.65825,1.12111,1.15773-.05058.49676-.50119.91823-1.36783.8666-.44322-.02857-.93496-.28082-1.31232-.54405-.37877-.26146-.64624-.52854-.64624-.52854M13.17678,22.48848l-1.41503-.16601M9.10035,24.69883s.30199-.23417.71397-.4516c.41199-.21913.93346-.4165,1.37243-.39709.88117.04241,1.24862.51162,1.24474,1.01366.01706.50244-.36273.97612-1.24014,1.02658-.43879.02348-.95942-.16902-1.37084-.38403-.41138-.21332-.71295-.44421-.71295-.44421M13.03808,24.86074l-1.42472.00716M9.26703,27.54408s.26913-.26856.64949-.53312c.38021-.26633.87172-.52352,1.30991-.55589.87671-.06115,1.31463.35909,1.3625.85804.06375.49584-.23603,1.00621-1.10499,1.16539-.43253.07729-.97519-.04985-1.41239-.21434-.4369-.16267-.76708-.35739-.76708-.35739M13.19086,27.23798l-1.41374.17645M9.78438,30.3676s.22957-.30308.57045-.6147c.34044-.31352.79298-.62986,1.22377-.71653.86236-.16936,1.35525.18764,1.47106.67065.10254.48738-.09881,1.01939-.94486,1.29891-.41794.13566-.97504.08363-1.43342-.02222-.46401-.10269-.80002-.25834-.80002-.25834M13.63667,29.55406l-1.37869.35924M10.69199,33.12417s.17986-.33595.46978-.69396c.28333-.35816.70001-.73917,1.11654-.88598.81925-.283,1.35931-.0043,1.54823.44785.17093.46166.04293,1.0174-.74289,1.42256-.39171.19903-.95229.23415-1.42496.19773-.46795-.03579-.82382-.14328-.82382-.14328M14.38467,31.75439l-1.31081.55825M12.03717,35.74217s.11758-.36407.34191-.76545c.21651-.4.5833-.85231.96376-1.0599.38638-.21172.71569-.25886.9806-.20974.27521.04351.48371.18621.61471.39231.24452.41839.20426.99044-.4906,1.52522-.34961.26548-.89802.40069-1.37189.44532-.4563.03701-.8345-.00773-.8345-.00773M15.44813,33.77091l-1.19777.77148M13.85549,38.11251s.04269-.38164.18528-.81801c.14601-.44252.4159-.94986.75429-1.22482.34032-.27795.6581-.38787.92236-.38655.27235-.00475.50823.08784.67359.26326.16822.17246.2512.41239.23471.68393-.01005.26262-.13244.57545-.42339.90474-.28742.32753-.80685.57731-1.25554.70419-.44177.12435-.82475.15116-.82475.15116M16.82869,35.52638l-1.02799.98643M16.13343,40.0944s-.03932-.38172.00891-.83692c.06008-.47563.21362-1.01861.4916-1.35885.55998-.6755,1.12791-.6944,1.53328-.44872.19933.13323.33346.34287.36965.61862.03935.26839-.00927.59069-.22632.97609-.21154.37844-.67206.74159-1.0767.94518-.4075.21445-.77875.32053-.77875.32053M18.50846,36.9484l-.8015,1.17789M18.77612,41.56165s-.02909-.09028-.06451-.23727c-.03662-.14394-.07612-.35133-.09435-.59239-.04179-.47562-.00635-1.03664.19427-1.42754.41295-.79142.95004-.90104,1.40607-.75406.44523.16867.72546.70526.46816,1.54086-.13362.42331-.4968.83089-.85514,1.12796-.35527.29711-.69601.48137-.69601.48137M20.44758,37.98907l-.54016,1.31835M21.63077,42.46372s-.17818-.3494-.30818-.8013c-.13262-.45253-.20956-1.00466-.09059-1.42763.2447-.84926.76605-1.1042,1.23635-.99994.4807.07098.86372.52939.7579,1.40184-.05542.43587-.3405.91268-.63565,1.27651-.29272.36427-.58824.61587-.58824.61587M22.58715,38.64l-.27903,1.39712M28.18841,1.10717s.1962.31835.36297.74373c.16936.41875.29816.98974.22391,1.41669-.07456.43413-.24539.72009-.45745.8934-.21503.18598-.47252.2571-.72998.2288-.51139-.05616-.93987-.50091-.87175-1.37711.03565-.43795.29925-.92603.56922-1.30301.26841-.37714.53865-.64328.53865-.64328M27.69068,3.57816l-.17902,1.41343M31.01523,1.63069s.04068.08119.0949.2242c.05362.14585.12125.34883.17851.57751.1159.45778.18419,1.01653.05969,1.43792-.25571.85322-.79644,1.05907-1.29887.95817-.50222-.10209-.87948-.5825-.7162-1.44604.08334-.43144.3998-.89134.71132-1.23987.30993-.34891.61011-.58709.61011-.58709M30.24247,4.03348l-.33611,1.3845M33.76779,2.50853s.11617.36646.17688.82951c.0624.46372.0646,1.02161-.11021,1.42475-.35307.8048-.93364.99074-1.40333.79385-.47159-.19263-.80474-.67053-.53829-1.51926.13299-.41878.50255-.84318.85499-1.15728.1755-.15728.34525-.28744.47135-.37814.127-.09344.20583-.13481.20583-.13481M32.71748,4.79028l-.49867,1.33461M36.40215,3.71881s.07287.37311.0782.83489c.00695.46268-.0581,1.01096-.28243,1.38878-.45194.75373-1.05751.87781-1.50527.63752-.22571-.12112-.39475-.32413-.46506-.59847-.06938-.27479-.0531-.59708.13271-1.00007.18257-.39784.60782-.78817.98671-1.03433.38094-.25482.72736-.40367.72736-.40367M35.07244,5.8554l-.66141,1.26189M38.87649,5.24235s.03009.3718-.02359.82967c-.06144.47162-.20574,1.01859-.47706,1.36419-.54657.68987-1.13131.69422-1.56526.42825-.42203-.2818-.59263-.87179-.13088-1.61958.23248-.37284.69104-.68452,1.10688-.8927.4143-.20924.78104-.3176.78104-.3176M37.28027,7.19461l-.81795,1.16651M41.13253,7.07864s-.03033.38528-.14899.83867c-.11731.45471-.32654.97331-.64062,1.28062-.63087.61184-1.23541.56411-1.59222.20347-.38256-.33228-.4925-.91909.06463-1.60322.27891-.33954.77851-.59428,1.22248-.75187.44249-.15885.82481-.2238.82481-.2238M39.30355,8.79835l-.96279,1.05018M43.1163,9.20545s-.07468.37353-.24563.80326c-.16978.4312-.43888.91401-.79003,1.17813-.70467.52519-1.3106.40916-1.63178.01608-.16193-.19817-.2404-.45057-.20074-.73147.02828-.2696.17499-.57006.49674-.87023.31637-.2964.86414-.50146,1.31024-.58735.44854-.09065.82514-.09614.82514-.09614M41.0753,10.67673l-1.09093.91634M44.82397,11.55435s-.1162.35691-.33493.75751c-.23564.41257-.57605.86451-.95774,1.08218-.76413.43148-1.31358.21616-1.61247-.19627-.28309-.42217-.21657-1.03368.49476-1.54978.35677-.25649.89907-.37043,1.36232-.40523.46223-.03632.84202.00236.84202.00236M42.60738,12.75595l-1.1991.76942M46.21942,14.09318s-.17288.34463-.45251.72077c-.27888.37773-.66619.78213-1.07162.95151-.81233.33544-1.35525.06401-1.55256-.40683-.23904-.44965-.11295-1.04019.65858-1.46318.38617-.20963.94435-.25771,1.41398-.23758.46882.01852.8463.10075.8463.10075M43.88088,15.00589l-1.28548.61429M47.27133,16.78215s-.20721.31926-.52397.65763c-.31625.33999-.74313.69426-1.16564.81484-.84605.23782-1.36572-.09298-1.52022-.58085-.13822-.49421.04221-1.05931.85565-1.38374.40795-.1608.97624-.14407,1.44145-.06861.44953.07901.80041.20936.80041.20936M44.83645,17.41152l-1.34953.45673M48.01463,19.56123s-.2373.2918-.5855.59075c-.34339.29982-.81191.60429-1.25037.67778-.85294.13917-1.34872-.24601-1.45851-.7472-.11084-.50104.17174-1.05348,1.0205-1.28139.4248-.11235.97034-.02571,1.41335.10452.44267.12867.78134.29644.78134.29644M45.52004,19.91033l-1.3928.29993M48.45418,22.39346s-.06709.06163-.17839.16386c-.10985.09808-.27295.22856-.47264.35891-.39285.26161-.89657.5154-1.33518.54193-.88833.05133-1.26192-.39408-1.34857-.90233-.06697-.51036.26384-1.02826,1.13258-1.16099.43461-.06478.972.08072,1.40261.25758.43043.1753.75314.37751.75314.37751M45.93314,22.47127l-1.41711.14726M48.58789,25.2452s-.30337.23366-.71665.45272c-.41328.22054-.93608.42226-1.37511.40431-.87891-.03886-1.25091-.51991-1.23283-1.03619-.02317-.51588.35094-.99745,1.22882-1.03848.43897-.019.96216.18152,1.37586.4013.4137.2183.71749.45157.71749.45157M46.08141,25.06527l-1.42472.00135M48.41609,28.09342s-.32145.203-.75071.37975c-.42947.17827-.96583.32594-1.40068.26295-.86931-.12907-1.20304-.64631-1.1391-1.15773.08223-.50959.46148-.95539,1.34746-.90668.43867.02538.94291.27778,1.3363.53811.20029.12974.35924.25941.47174.35718.11186.10177.17932.16316.17932.16316M45.93957,27.66032l-1.41756-.14267M47.95807,30.91949s-.33671.16941-.77767.30062c-.44132.13278-.98551.22295-1.41103.11332-.85024-.22239-1.13787-.77406-1.03199-1.27698.10497-.50309.59407-.89198,1.45746-.75477.43828.07137.89672.37197,1.2482.67096.35073.29726.59064.5876.59064.5876M45.53809,30.22439l-1.3944-.29246M47.20432,33.69296s-.08662.0289-.2302.07683c-.14153.04418-.34161.09768-.57813.13506-.46671.07832-1.03031.10123-1.4404-.05655-.82851-.32254-.98825-.8771-.8592-1.3749.14788-.49069.66222-.82656,1.50981-.59424.42333.11781.854.4696,1.17407.80753.32055.33633.53155.65404.53155.65404M44.87331,32.7298l-1.35296-.44651M46.11916,36.36764s-.37483.08646-.8416.11006c-.46756.02521-1.02429-.01691-1.41233-.22304-.77439-.41557-.91285-1.00871-.67832-1.46102.21714-.46109.73425-.74884,1.55551-.41716.40684.16598.79921.5677,1.08302.94345.28454.37417.46214.71757.46214.71757M43.92815,35.13985l-1.29086-.60293M44.70299,38.89693s-.37757.04333-.83814.01228c-.46163-.0295-1.00284-.13762-1.36172-.39115-.7156-.51019-.79187-1.1239-.51747-1.55145.13834-.21553.35383-.36809.63271-.4166.27801-.04828.59955-.00582.98623.211.38169.21315.73786.66815.95359,1.0655.22412.39998.34525.75725.34525.75725M42.67799,37.40246l-1.20569-.75903M42.98696,41.24548s-.09153-.00426-.24326-.0113c-.15059-.01175-.35136-.02974-.58688-.08271-.46491-.0986-.99781-.2863-1.32014-.58493-.64811-.60578-.59446-1.17825-.29774-1.59144.31288-.39875.91321-.52227,1.62195-.0026.35319.2614.62783.74371.80252,1.17545.17589.43025.25487.80521.25487.80521M41.1689,39.49708l-1.09707-.90901M40.96214,43.34395s-.38157-.06151-.82304-.21728c-.44298-.15444-.9411-.40651-1.22025-.74586-.55514-.6813-.45835-1.28052-.07137-1.60592.37317-.34048.95518-.41301,1.5942.20163.31547.30588.52884.82555.64958,1.28211.12203.45512.15516.8427.15516.8427M39.40203,41.37636l-.96574-1.04746M38.66396,45.14352s-.36574-.10658-.77809-.31465c-.414-.20697-.86955-.51809-1.10026-.89204-.45802-.75005-.28992-1.34432.1276-1.62953.21061-.14386.46789-.19969.74367-.13557.27632.06606.55403.22705.82761.57703.27048.34462.42215.90164.46572,1.35119.05058.45555.02205.83232.02205.83232M37.38131,42.97827l-.81515-1.16849M36.15736,46.63264s-.34402-.1472-.72306-.40567c-.38861-.27492-.80556-.65811-.98491-1.05924-.35536-.80395-.08608-1.32423.34967-1.58455.44478-.24208,1.04592-.11836,1.49386.63776.22222.37904.28511.92982.27572,1.39494-.00767.4642-.08292.83957-.08292.83957M35.17317,44.31075l-.65151-1.26704M33.48588,47.77784s-.32624-.20795-.67284-.52535c-.34829-.31682-.7118-.74433-.83922-1.16486-.25198-.84383.07552-1.34805.56128-1.50083.46822-.19674,1.04373-.00891,1.3885.79949.17062.40491.16322.96493.09601,1.43033-.06547.46474-.18579.83244-.18579.83244M32.81195,45.35664l-.48215-1.34067M30.70028,48.54998s-.29666-.24133-.60135-.59353c-.30632-.35187-.6158-.81519-.69276-1.2478-.15056-.86585.233-1.34331.73581-1.4409.50893-.07574,1.04204.12652,1.28653.9842.11869.42307.04308.9827-.07913,1.44079-.05966.23224-.1313.42977-.18913.5643-.06147.13794-.09854.22113-.09854.22113M30.32355,46.06547l-.31625-1.38919M27.86389,49s-.26612-.26958-.52911-.65008c-.2645-.38036-.52132-.8717-.55102-1.31011-.05623-.87704.37862-1.31657.89113-1.36655.51362-.04438,1.03443.29146,1.17229,1.14512.06869.43416-.07025.99053-.24557,1.40611-.17276.42337-.37317.73927-.37317.73927M27.7661,46.48627l-.15886-1.41583M28.22698,4.26324s.19202.31381.34375.76888c.15456.44726.26666.99851.17592,1.42842-.08993.43011-.27088.71608-.48495.88184-.2135.15966-.46449.21136-.71839.18946-.49972-.06019-.91204-.50881-.83197-1.384.042-.43739.31258-.92227.59137-1.29544.27689-.37341.5564-.63528.5564-.63528M27.66609,6.72299l-.21383,1.40858M31.06316,4.93558s.14331.35593.23417.81088c.09294.45561.12766,1.00761-.02446,1.41983-.30842.82295-.87232,1.05543-1.34568.90036-.46701-.17604-.8293-.61774-.62819-1.48433.10094-.42765.43735-.8799.76792-1.22001.1653-.17412.32425-.30701.44267-.39762.11875-.09214.1968-.14433.1968-.14433M30.1625,7.28311l-.40976,1.36452M33.79647,6.00344s.09613.35831.10898.83882c.01847.47394-.03665,1.03354-.2506,1.41732-.21314.38424-.47032.60439-.72246.70069-.25036.09113-.50195.06633-.73612-.02559-.45486-.19849-.71782-.74613-.39685-1.56427.16262-.40819.55827-.79599.93346-1.07285.37311-.2778.71951-.4466.71951-.4466M32.54721,8.19566l-.61116,1.28698M36.32918,7.50866s.03051.38221-.02049.8418c-.0491.46094-.18471.99463-.45688,1.33958-.5481.68698-1.15764.74093-1.5609.45483-.39261-.30272-.58791-.84932-.14403-1.60699.22415-.37793.68169-.70967,1.10213-.93472.40771-.20893.77144-.31223.77144-.31223M34.75385,9.47032l-.80619,1.1747M38.61134,9.37687s-.03725.38798-.16701.83965c-.12811.4533-.35289.96497-.67624,1.26251-.65241.59431-1.24056.52787-1.58942.17727-.37453-.3232-.4576-.91948.10145-1.59759.28138-.33749.78004-.58527,1.22536-.73344.44358-.14973.82824-.20378.82824-.20378M36.74307,11.06406l-.98292,1.03136M40.54249,11.59738s-.08728.36958-.27557.78803c-.17941.41507-.5055.90244-.8651,1.14312-.36595.24599-.68897.32029-.95993.29224-.28059-.02205-.50535-.15096-.65852-.34945-.30295-.39333-.27536-1.00973.37215-1.58061.33511-.29222.87109-.46228,1.32185-.52948.45453-.07329.83543-.06189.83543-.06189M38.43313,12.97422l-1.13155.86569M42.12093,14.06363s-.1498.35489-.40597.74445c-.25523.39139-.61905.81174-1.01593,1.00031-.79563.37328-1.35567.1409-1.5797-.30594-.23474-.44016-.16395-1.01675.58339-1.49517.37122-.2351.92485-.32072,1.39644-.32922.23534-.00504.44905.00757.60409.02177.1566.0134.24813.03099.24813.03099M39.83607,15.10801l-1.24817.68692M43.31524,16.71912s-.18648.32524-.48817.67236c-.31577.35347-.74237.72259-1.16122.85538-.83934.26211-1.33016-.05966-1.53171-.51985-.18519-.46637.00993-1.04803.81091-1.40972.40127-.17897.95338-.18091,1.41254-.12003.45844.05905.8212.1758.8212.1758M40.89905,17.43682l-1.33208.50536M44.13488,19.49209s-.23868.29847-.58848.60456c-.34943.30785-.81058.6181-1.24288.69684-.86528.15385-1.34574-.22183-1.44672-.71767-.09673-.49691.11686-1.03251.97007-1.28652.42167-.12354.97862-.05434,1.43483.06372.22788.05826.4301.1271.57536.1817.13951.05572.22265.0965.22265.0965M41.65307,19.88803l-1.38669.327M44.59837,22.32792s-.26489.26567-.64086.52647c-.37639.26233-.89296.5171-1.32772.54463-.43849.02833-.7607-.07051-.97522-.23584-.22749-.16449-.35677-.3953-.38698-.64946-.06108-.5044.27464-1.02157,1.14178-1.16451.43383-.06976.96833.06932,1.39662.2424.42802.17139.74875.37195.74875.37195M42.08067,22.42328l-1.416.15746M44.7399,25.18113s-.30265.23298-.71514.44977c-.41256.2184-.93448.416-1.37339.39532-.87771-.04466-1.2547-.52268-1.23457-1.03282-.01553-.5098.35608-.98632,1.23523-1.02862.43897-.0195.96144.17955,1.37445.39926.41298.2181.71605.45218.71605.45218M42.23493,24.9947l-1.42472-.00227M44.54909,28.03062s-.31908.19972-.7455.37054c-.42113.17323-.96607.31047-1.40384.23977-.85487-.14146-1.19501-.66007-1.13838-1.16612.05936-.5056.50348-.93591,1.36903-.88275.44093.02899.9445.28422,1.31605.54717.37744.26167.64384.52755.64384.52755M42.07429,27.56669l-1.4157-.16M44.05193,30.85574s-.34925.16049-.80137.27816c-.45257.11943-1.00618.19105-1.42827.0689-.84353-.24802-1.09942-.79622-.96436-1.28349.09471-.49862.56937-.8767,1.43462-.72258.43226.07881.89609.38945,1.24835.69702.35259.30588.59425.60366.59425.60366M41.65454,30.10566l-1.38729-.32454M43.18638,33.61079s-.3584.11931-.81302.18216c-.44797.06762-1.02501.05966-1.42517-.11567-.40591-.17681-.6371-.4066-.76599-.65477-.1301-.24957-.13897-.51099-.05088-.74911.17526-.47189.71211-.77926,1.53957-.52529.42357.13237.84982.49849,1.14696.84419.30346.34563.49725.6709.49725.6709M40.89782,32.55933l-1.33488-.49793M41.97136,36.2511s-.38009.06688-.84687.06285c-.4678-.00217-1.01857-.08029-1.39211-.3117-.74475-.46658-.85261-1.06216-.59804-1.49132.23444-.44126.76879-.69243,1.57218-.32219.3983.18553.76906.60468,1.0313.99512.26317.38865.41999.74307.41999.74307M39.85466,34.89882l-1.2544-.67552M40.37126,38.70518s-.37356.02041-.83236-.05101c-.47008-.07713-1.00955-.24338-1.34343-.52899-.66679-.57665-.6538-1.15243-.37838-1.56812.2907-.40276.88487-.54846,1.62279-.07114.3677.24055.66694.70379.8617,1.12475.19602.41915.29067.7903.29067.7903M38.47188,37.04754l-1.14031-.85415M38.39976,40.89484s-.38265-.04734-.82463-.19023c-.44376-.14126-.94119-.38211-1.22488-.71764-.56369-.67427-.49232-1.27823-.12847-1.61169.18823-.1641.42658-.25979.69014-.25713.26919.00961.58324.13499.90873.43016.32612.29448.55899.80706.69453,1.26228.06965.22803.11421.43806.13332.58427.02199.14889.029.24274.029.24274M36.79108,38.9628l-.99147-1.02315M36.10326,42.7596s-.08969-.02348-.23266-.07576c-.1461-.05706-.3442-.14207-.55334-.25278-.41996-.22034-.87653-.54778-1.10144-.92524-.22571-.37699-.28769-.71011-.24551-.97671.04239-.26788.19728-.46034.39023-.61942.39438-.29577.99787-.25183,1.55034.43165.27428.34327.41529.87944.46876,1.3438.05542.46295.02843.84927.02843.84927M34.82624,40.58231l-.811-1.17139M33.52087,44.19495s-.34573-.1659-.7174-.44112c-.3738-.27429-.76705-.6599-.92846-1.06858-.31838-.81914-.05843-1.37294.39183-1.57752.22559-.10692.49114-.10439.74295-.00951.24994.09327.50607.31131.7196.69535.21362.38205.27349.95002.25324,1.42114-.02506.45615-.1183.82299-.1183.82299M32.61717,41.84703l-.61014-1.28748M30.76848,45.2296s-.07729-.04982-.19629-.14562c-.11987-.09992-.28032-.24255-.44385-.41284-.32879-.34017-.66258-.7926-.76136-1.22075-.19746-.8697.16707-1.3114.63752-1.47286.47084-.15894,1.0313.07066,1.33726.89453.15083.41269.1149.96689.02058,1.42466-.09225.45712-.23694.81511-.23694.81511M30.23609,42.76218l-.40329-1.36646M27.91546,45.80823s-.27786-.26277-.55276-.63704c-.27677-.37403-.54497-.85971-.58496-1.29729-.07609-.87556.33854-1.3233.83883-1.38238.50498-.03759,1.01505.21212,1.19838,1.08183.08843.43041-.02636.98265-.18326,1.43071-.07717.22817-.16479.41283-.2327.54572-.07227.13314-.11584.21341-.11584.21341M27.73517,43.301l-.20658-1.40966M28.28827,7.45255s.18149.34582.31577.79455c.1369.44929.21916.9987.10359,1.42262-.23649.84643-.7631,1.12548-1.23126,1.00872-.48221-.06601-.87012-.51949-.77168-1.39294.05172-.43633.33343-.91605.62633-1.28288.29046-.36723.58484-.62178.58484-.62178M27.63029,9.87492l-.26808,1.39928M31.1508,8.31454s.11448.37755.16067.84642c.04868.47058.02166,1.02763-.17475,1.42065-.40185.79098-.95509.93535-1.39921.76058-.45212-.1579-.74267-.68148-.49045-1.52336.12889-.42003.49151-.83713.84825-1.13983.35407-.30367.69408-.49459.69408-.49459M30.0404,10.5822l-.52749,1.32348M33.80733,9.74833s.01384.09073.01465.25045c.00235.15749-.00214.3735-.02762.60844-.04892.47147-.19024,1.01162-.46334,1.35579-.55731.69345-1.12295.71338-1.5247.46032-.40609-.24654-.58153-.81974-.16735-1.59487.2098-.38603.64754-.72082,1.05826-.94366.40813-.22444.78098-.34036.78098-.34036M32.25759,11.74094l-.78588,1.18837M36.1143,11.69672s-.0049.09157-.03719.24747c-.03021.15415-.07907.36412-.15215.58854-.14454.45069-.39246.95103-.72938,1.23304-.68515.56706-1.24579.46966-1.58822.13848-.34697-.32603-.40082-.92382.16461-1.5966.28505-.33436.78233-.57155,1.2297-.70514.44523-.13565.83333-.17269.83333-.17269M34.18911,13.32899l-1.01307,1.00179M37.97009,14.04863s-.02311.08867-.08313.23333c-.05972.14452-.14848.34015-.26347.54578-.22884.4132-.56696.85816-.95058,1.07237-.77881.43013-1.3115.22305-1.58861-.17066-.27819-.39232-.21506-.99141.47387-1.53705.34618-.27056.88084-.40431,1.34469-.44841.46226-.04633.84813-.00889.84813-.00889M35.76649,15.27791l-1.18803.78636M39.34243,16.66889s-.1656.33459-.47132.70066c-.29789.3661-.70756.74818-1.1215.89552-.41364.14821-.75269.1452-1.00654.05304-.24972-.09508-.42351-.27695-.53372-.49748-.20438-.44269-.03328-1.02613.74177-1.43402.39267-.20377.94041-.23698,1.40345-.19916.46139.03591.8317.1381.8317.1381M36.96006,17.49543l-1.30732.56633M40.25365,19.4403s-.2231.3034-.56128.61416c-.3522.31507-.81654.63242-1.24763.71739-.86296.16602-1.31924-.20246-1.46176-.67602-.12444-.47902.13271-1.02987.95524-1.30258.41906-.13681.9844-.08662,1.42611.02464.4474.10741.79376.26314.79376.26314M37.77494,19.89061l-1.37917.35738M40.75211,22.2783s-.26739.26764-.64612.5296c-.37717.26375-.86916.51648-1.31235.54499-.86633.05151-1.31731-.37105-1.36795-.86898-.03836-.50065.25403-1.00571,1.12066-1.16009.43296-.07501.9797.05515,1.42093.22334.43013.1672.74535.36639.74535.36639M38.23822,22.38857l-1.415.16602M40.89243,25.12894s-.30159.23145-.71298.44526c-.41144.21553-.9321.40848-1.37087.38495-.87741-.05056-1.25717-.52535-1.24005-1.02899-.00394-.50321.36345-.97352,1.24465-1.01603.43897-.01947.96042.17836,1.37243.39801.41202.21792.71403.45263.71403.45263M38.38664,24.93427l-1.42472-.00715M40.69539,27.97389s-.33027.19527-.76726.35841c-.43729.165-.98.29258-1.41254.21523-.86892-.15931-1.16856-.67077-1.10456-1.16776.04799-.50013.48603-.92147,1.36274-.86042.43819.03234.92967.28998,1.30979.55683.38033.26508.64943.53418.64943.53418M38.22285,27.4811l-1.41374-.17648M40.1284,30.79281s-.33626.15617-.80041.25931c-.45853.10633-1.01578.15877-1.43369.02303-.84599-.27966-1.04707-.81276-.94408-1.30122.11608-.48413.60924-.8422,1.47163-.67293.43076.08664.88318.40343,1.22353.71745.34077.31211.57018.61575.57018.61575M37.74187,29.98024l-1.37866-.35929M39.16455,33.5368s-.3559.10806-.82439.14416c-.47288.03683-1.03365.00208-1.42532-.19704-.78588-.40543-.913-.96195-.74168-1.42471.18943-.45317.72971-.73296,1.54898-.45005.41647.14677.83321.52826,1.1163.88691.28974.35849.46936.69497.46936.69497M36.92582,32.37983l-1.31075-.55833M37.75788,36.13009s-.3785.04519-.83504.00859c-.4746-.04453-1.02294-.17925-1.37258-.44487-.6949-.53512-.73401-1.10771-.48898-1.52713.1313-.20658.34011-.34973.61553-.39359.26504-.04955.59452-.00265.98091.20903.38048.20756.74704.66028.96333,1.06077.22403.40185.34131.76643.34131.76643M35.74904,34.60975l-1.19771-.77159M35.87646,38.45836s-.38334-.02645-.82544-.15045c-.4495-.12701-.96887-.37627-1.25629-.70398-.29082-.32938-.41295-.64247-.42264-.90537-.01577-.27137.06728-.51207.236-.68483.16572-.17583.402-.2688.67459-.26435.26453-.00165.58249.10804.92284.38594.33839.27495.608.78268.75366,1.22564.14219.43676.18447.81884.18447.81884M34.19834,36.58022l-1.0279-.98655M33.54283,40.37813s-.37173-.1058-.77956-.32001c-.40497-.20322-.86627-.56701-1.07749-.94519-.21684-.38534-.26543-.70828-.22526-.97624.03659-.27601.17117-.48597.37095-.61951.40633-.24626.97507-.22799,1.53508.44744.27798.34023.43115.88353.49078,1.35949.04772.45551.00791.83757.00791.83757M32.29162,38.19361l-.80134-1.17799M30.86275,41.76799s-.34122-.18407-.69694-.48104c-.35879-.29711-.72209-.70389-.85586-1.12818-.2567-.83477.02437-1.37246.47075-1.54134.45709-.14735.99511-.03806,1.40808.75325.20062.39089.23561.95216.19331,1.42803-.01847.24122-.05834.44851-.09514.59261-.03562.14707-.06484.2374-.06484.2374M30.09074,39.37452l-.53995-1.31844M27.99459,42.59594s-.29606-.25151-.5892-.61572c-.29561-.36377-.58105-.84053-.63632-1.27642-.10555-.87249.27861-1.33108.76046-1.40223.47153-.10409.99378.15024,1.23854.99961.11894.42297.04152.97523-.09168,1.4279-.13055.45205-.30933.8016-.30933.8016M27.68962,40.10385l-.27882-1.39718"/>
    </g>
  </g>
</svg>