<?xml version="1.0" encoding="UTF-8"?>
<svg xmlns="http://www.w3.org/2000/svg" version="1.1" viewBox="0 0 48 50">
  <defs>
    <style>
      .cls-1 {
        fill: none;
        stroke-linecap: round;
        stroke-miterlimit: 10;
        stroke-width: .35px;
      }
    </style>
  </defs>

  <g>
    <g >
      <g id="stitch-1">
        <path class="cls-1" d="M30.05828,44.83946s-.18519-.03891-.4243-.11622c-.23887-.07751-.53627-.19872-.74922-.37449-.43397-.35974-.39289-.75239-.16976-.97022.23046-.22606.57292-.26093.93661.03909.37116.30309.74063.99103.74063.99103M28.66106,42.93229s-.05935-.17657-.14209-.40493c-.08765-.22541-.19706-.49988-.34072-.6945-.28058-.39022-.62857-.4342-.90421-.26803-.26823.16121-.39476.52694-.07159.97719.16321.2217.42683.42406.65292.55669.22229.13702.40793.2063.40793.2063M27.3274,41.11792s-.01992-.19862-.04292-.42767c-.03261-.23985-.07879-.53249-.17111-.75798-.18609-.44719-.52175-.56655-.82376-.46531-.30003.10019-.4989.42546-.28794.93349.10381.25293.31549.50881.50399.69007.18528.18404.34747.29605.34747.29605M26.43645,39.04194s.03177-.18775.04762-.42965c.02089-.24425.03171-.54272-.01703-.78468-.0988-.48151-.40802-.66024-.72179-.61473-.31464.04553-.56816.32798-.45926.86005.05353.2652.21054.5541.35332.76985.1482.21519.27646.36031.27646.36031M25.96411,36.82025s.06417-.17943.12334-.41541c.05416-.23659.13054-.52832.11782-.77281-.00805-.48603-.27817-.71735-.59499-.73349-.31727-.01616-.61995.21566-.61087.76434.01335.27172.10414.58599.21602.82206.10703.23747.20776.40263.20776.40263M25.90099,34.55694s.09883-.1624.20258-.3796c.11276-.21644.22841-.48625.2814-.72226.08925-.47249-.10667-.7549-.41845-.84555-.29758-.08729-.66061.06723-.76489.61155-.05959.26892-.0173.60121.03207.85577.05817.25652.12376.43908.12376.43908M26.33105,32.34608s.1268-.13695.28405-.32033c.159-.18382.33894-.41453.44591-.63143.20602-.43313.07523-.7608-.20369-.92296-.26952-.15749-.64915-.09107-.88784.40951-.12159.24769-.16433.57966-.17545.84046-.01001.26197.01815.45773.01815.45773M27.27724,30.30482s.16454-.11288.35431-.24306c.19366-.14474.42984-.32418.58236-.51451.30241-.37877.24502-.73061.01185-.94625-.23269-.21566-.61325-.23301-.95659.19626-.17111.21358-.29523.5201-.36278.77368-.07623.24818-.09262.44699-.09262.44699M28.66829,28.5258s.18024-.06102.39958-.16088c.22425-.09561.48895-.2252.67938-.37521.37547-.30128.39702-.6555.2187-.91849-.17762-.26265-.54682-.36426-.97842-.01846-.21578.17045-.3988.4488-.52274.67727-.12011.23364-.18709.41554-.18709.41554M30.41368,27.09858s.1892-.01795.42469-.06441c.23995-.04054.52681-.10361.74672-.20513.4353-.20427.54025-.5434.42873-.84061-.11122-.29724-.44561-.48344-.94701-.24862-.24981.11561-.49399.34344-.6682.53712-.17132.20042-.27838.3623-.27838.3623M32.44285,26.12019s.1882.02613.42855.03502c.24381.01676.53871.01985.7777-.02979.4737-.10179.6518-.41256.60587-.72657-.04569-.31419-.32878-.56643-.86644-.45121-.26765.0559-.55574.2221-.7696.36909-.21244.15539-.35398.28823-.35398.28823M34.64976,25.61924s.71082.23976,1.19839.22277c.49058-.02808.71414-.29618.71965-.61744.00567-.31363-.23513-.61761-.77786-.58741-.27118.0054-.57793.12417-.81309.22734-.2361.10085-.39823.21432-.39823.21432M36.92015,25.5012s.16641.09365.38888.19072c.22428.08973.49745.21699.74.24396.47735.07764.75293-.15458.82379-.46627.0702-.30732-.10791-.63972-.65126-.72758-.27133-.03124-.59695.00243-.84896.07653-.25246.06652-.43189.13794-.43189.13794M39.15715,25.82191s.15716.12233.3384.26342c.1929.1503.43871.30728.6607.40416.45061.16772.76167.0293.90584-.26242.13781-.27703.05223-.66574-.46674-.86108-.25331-.10923-.5892-.12201-.84857-.11953-.26024.00222-.45477.04731-.45477.04731M41.25917,26.62914s.10869.15612.26503.33864c.16002.17788.34473.41681.55041.54494.38747.28797.74307.19856.94372-.04453.20354-.24647.18971-.61702-.25364-.94482-.23221-.14673-.53748-.26621-.79841-.31148-.25852-.0507-.45191-.0644-.45191-.0644M43.11484,27.91079s.07834.16864.18754.38685c.10435.22356.26229.47403.42234.65581.33143.35047.67625.35494.93152.15487.24484-.19104.32972-.57496-.0491-.97733-.18269-.20605-.47762-.35915-.70772-.47393-.23537-.10979-.42782-.15839-.42782-.15839M44.65759,29.55825s.04364.19415.09398.41807c.06122.23346.13612.51846.25515.7282.22817.42071.57283.50437.86249.37646.29104-.12843.45679-.47375.19176-.96265-.13603-.24053-.37351-.47365-.5835-.63178-.20342-.16355-.38171-.25255-.38171-.25255M45.76173,31.5164s-.01558.18893-.01124.42813c-.0063.24425.00648.5366.06535.77219.12159.46621.43916.63033.75145.57306.31217-.05685.55264-.35146.41348-.88609-.06706-.26654-.24969-.54717-.40591-.75457-.16762-.20454-.30847-.33876-.30847-.33876M46.36057,33.68948s-.05645.18061-.10999.4174c-.0519.23715-.11182.53053-.0985.77578.02695.48841.29879.7135.62049.71649.31317.00318.6135-.23629.58402-.78111-.01462-.27089-.12225-.58161-.23664-.81606-.11285-.23542-.22097-.39743-.22097-.39743M46.49136,35.95313s-.09039.16742-.18314.39163c-.08605.22585-.21551.5008-.23691.74488-.06725.48083.16192.75127.47674.81705.30654.06459.6434-.11787.71938-.66098.02499-.27086-.00714-.59509-.08527-.84569-.07122-.25118-.14597-.43-.14597-.43M46.20435,38.19814s-.12156.14543-.25602.34438c-.1385.19863-.31422.44011-.38596.67162-.18272.44428-.0009.7675.28134.89973.29267.13696.64285.02753.85158-.48559.08298-.26185.11273-.59063.09681-.85161-.01941-.26282-.05715-.45367-.05715-.45367M45.43928,40.31659s-.15276.12715-.32893.27379c-.19212.15351-.39144.3632-.53721.55757-.26582.4012-.18877.74184.06076.94127.24625.197.63444.19125.9414-.2699.16391-.22127.24282-.55145.30012-.80292.05368-.25492.05097-.45519.05097-.45519M44.19972,42.19733s-.17425.07461-.38939.18719c-.21027.1179-.47219.26104-.65081.42846-.34892.33877-.35027.68579-.14311.93572.19746.23929.58007.31945.97429-.06153.1989-.18657.36628-.46972.46692-.7129.10619-.23846.15887-.42558.15887-.42558M42.56736,43.76521s-.18691.03811-.41923.11095c-.22823.07879-.52286.16395-.72547.30569-.413.27019-.46641.62252-.3041.89988.15812.27085.51472.40353.96729.10769.22148-.15413.44175-.38912.58399-.61.14658-.21509.23561-.38665.23561-.38665M40.67159,45.02694s-.19019.01097-.4322.05055c-.24674.03193-.54104.09788-.76866.20205-.44808.2186-.54676.55948-.41996.85526.12322.28798.46041.46665.9424.23198.24276-.11142.48072-.33419.65871-.51685.17434-.19085.28722-.34804.28722-.34804M38.61276,46.02382s-.75193-.04707-1.22527.11048c-.47322.16439-.60774.49762-.51418.80405.09172.30101.40492.51067.90897.33576.50851-.1698,1.03831-.74637,1.03831-.74637M36.44923,46.78036s-.74479-.1257-1.23425-.01328c-.49025.11669-.65428.44091-.58902.75294.06465.30961.35561.54253.87169.41973.51903-.11962,1.10468-.63625,1.10468-.63625M34.21714,47.32482s-.73397-.19149-1.23347-.11393c-.50092.07832-.68828.39253-.64517.70686.04316.3149.31537.56563.83648.48413.52289-.08134,1.14889-.54251,1.14889-.54251M31.94317,47.69642s-.72502-.23742-1.23148-.18297c-.50734.05427-.70862.36038-.6792.67635.02945.31642.28993.57844.81119.52266.52211-.0562,1.17147-.47573,1.17147-.47573M29.64746,47.95075s-.71284-.26912-1.22054-.23986c-.50857.0305-.72445.325-.71064.64303.01374.3165.26138.59234.78542.56091.52518-.03038,1.19338-.42107,1.19338-.42107M27.34367,48.09577s-.69786-.30376-1.20556-.30202c-.50878.00423-.73997.28566-.74334.60438-.00341.31636.22928.60619.75495.60182.52687-.00196,1.21442-.35948,1.21442-.35948M25.03678,48.1202s-.67963-.34147-1.18591-.36867c-.50758-.02407-.75444.24228-.77641.56058-.02182.31531.19381.61936.71953.64433.52684.02814,1.2335-.29124,1.2335-.29124M22.7339,48.01188s-.65654-.37853-1.15655-.44351c-.50312-.05284-.76661.18834-.81219.50464-.04503.31231.14817.63815.67399.69367.5263.06795,1.25279-.21132,1.25279-.21132M20.44753,47.75124s-.15845-.10219-.37508-.22612c-.21708-.12311-.49341-.25686-.74226-.30158-.49275-.10522-.77767.12438-.84899.43414-.07122.30913.09681.63886.61576.74936.26021.04696.5795.02048.83078-.01828.25141-.03786.43735-.0987.43735-.0987M18.19176,47.31103s-.14706-.12272-.35298-.26039c-.20728-.13429-.46984-.2922-.71055-.36688-.48356-.13806-.78584.05828-.88525.35889-.09998.30236.03548.6526.54676.79891.25355.07843.57443.0809.83024.05698.25527-.02032.4441-.05758.4441-.05758M15.9878,46.66886s-.13657-.13098-.32806-.28746c-.19007-.16135-.43548-.34382-.67052-.43366-.463-.19242-.78434-.02502-.9144.26631-.12891.28853-.02791.64847.46427.85279.24803.0951.5678.12899.82216.13779.25635.00414.44968-.02018.44968-.02018M13.85739,45.81955s-.1199-.14952-.294-.32507c-.17551-.1737-.40224-.37677-.6216-.49944-.4435-.23314-.78102-.09907-.93893.1733-.16056.27709-.09727.64447.37496.89299.23248.12965.54914.19287.80447.22154.25466.03089.44702.03175.44702.03175M11.83039,44.74931s-.10519-.15842-.26211-.34736c-.15236-.19705-.35304-.42796-.56352-.56506-.41529-.27995-.76043-.1896-.94978.06954-.18549.2535-.16635.6326.27585.93091.2228.1454.52789.24693.77511.30828.25246.05368.44543.07195.44543.07195M9.9239,43.47681s-.34063-.67794-.72264-.99769c-.38171-.32322-.74099-.26203-.95316-.02927-.2156.23662-.23007.60793.17777.95331.41116.34402,1.17105.50978,1.17105.50978M8.16805,42.00453s-.07273-.17322-.17919-.39738c-.10537-.22576-.25955-.48574-.42906-.67021-.33996-.36576-.70585-.34432-.94312-.13778-.24167.21046-.29659.57597.06791.96785.18067.19626.46568.35338.69334.46746.22934.11307.41779.16816.41779.16816M6.58898,40.34726s-.05136-.18107-.13214-.41509c-.07837-.23647-.20056-.51287-.34783-.71548-.2949-.4029-.6607-.42439-.92048-.24689-.26455.18079-.36185.53745-.04557.96927.15704.21566.4214.40549.63426.54532.21584.13808.39594.21531.39594.21531M5.21357,38.51776s-.03011-.18569-.08286-.42784c-.05049-.24405-.14031-.53263-.26295-.75138-.24749-.43437-.60789-.49796-.88633-.35104-.28318.1495-.42125.4929-.15646.95735.13051.23234.37146.45115.56663.61461.19788.16236.36796.25992.36796.25992M4.05729,36.54121s-.00904-.18792-.03421-.43485c-.02333-.24829-.08042-.54568-.17874-.77698-.19884-.45997-.55089-.56203-.84353-.44561-.29743.11838-.4712.44446-.25943.93406.10426.24466.31883.48856.49465.67241.1781.18335.33607.29939.33607.29939M3.12379,34.44787s.01194-.18837.01115-.43648c.0019-.24954-.02203-.55284-.09883-.79278-.14992-.47974-.49314-.61541-.79564-.52807-.30765.08887-.50984.39514-.35096.9027.08093.25263.26648.51737.4227.71798.15921.20002.30289.3324.30289.3324M2.40555,32.26841s.03117-.18683.05284-.43385c.02565-.24838.02969-.55293-.02327-.79944-.10769-.4913-.43223-.65936-.74217-.60041-.31395.05974-.54839.34664-.43452.86588.05582.25917.21605.53962.35238.75401.14049.21375.26949.35951.26949.35951M1.89532,30.02993s.20653-.72835.14438-1.226c-.06583-.49911-.36842-.69676-.68436-.66588-.31612.03091-.581.2957-.51171.82233.06631.52895.51517,1.16582.51517,1.16582M1.59192,27.75329s.27103-.7074.25376-1.20955c-.02472-.50362-.30403-.7271-.6242-.72319-.31489.00375-.60668.2446-.58097.77437.0186.53177.40841,1.20595.40841,1.20595M1.4886,25.45724s.3292-.68271.3544-1.18588c.017-.50497-.24429-.75031-.56421-.77162-.31377-.02099-.62311.19568-.64113.72464-.02619.53031.30584,1.23422.30584,1.23422M1.57459,23.15842s.3821-.65593.44229-1.15742c.05724-.50324-.19016-.76747-.50658-.81133-.31266-.0434-.63227.15086-.69198.67542-.0629.52586.21274,1.25228.21274,1.25228M1.831,20.87075s.42978-.62374.5278-1.11449c.10444-.49118-.12539-.77733-.43217-.85021-.31112-.07388-.64023.09303-.7507.6138-.10456.52396.11592,1.27073.11592,1.27073M2.27706,18.61974s.48503-.57921.63646-1.05502c.1429-.48068-.04126-.78337-.34509-.8893-.29578-.10332-.65575.02455-.80812.5355-.16192.51035-.01212,1.2768-.01212,1.2768M2.94433,16.42591s.54547-.52414.74102-.98307c.20279-.458.03578-.78553-.24927-.9202-.28918-.1366-.64484-.04033-.86059.44767-.20999.49311-.14365,1.26997-.14365,1.26997M3.83865,14.31535s.59439-.46519.84182-.89844c.24098-.43932.12316-.77486-.15095-.94166-.26835-.16343-.64569-.11333-.90264.3543-.26533.46555-.27826,1.24705-.27826,1.24705M4.94884,12.30979s.64279-.39857.93182-.8061c.29201-.40667.20171-.75804-.05178-.95166-.25111-.19195-.62417-.17532-.93531.25833-.3094.43673-.40691,1.21047-.40691,1.21047M6.26541,10.43349s.17178-.08308.38074-.21305c.2087-.13074.46818-.29532.62977-.48702.33433-.37139.28441-.73047.05413-.95144-.22784-.21883-.60069-.24449-.95825.15295-.17205.20347-.31748.48922-.40401.73175-.08735.24241-.13139.43052-.13139.43052M7.77736,8.7136s.17991-.06328.4019-.16893c.22356-.10468.49839-.24048.68071-.41251.3758-.32946.36498-.69418.16174-.93926-.20213-.2438-.56759-.30937-.96937.04328-.19414.18264-.36941.45179-.48437.68151-.11405.23129-.17892.41339-.17892.41339M9.47452,7.17634s.18564-.04292.41785-.1234c.23634-.07588.52211-.18391.72333-.33381.41197-.28435.43952-.65105.26506-.91598-.17482-.26547-.52862-.36808-.96778-.06446-.21373.15884-.41505.41016-.55737.62237-.13895.21735-.22365.39129-.22365.39129M11.33327,5.83686s.18859-.02356.42897-.07775c.24472-.04803.5382-.12961.75646-.25457.44012-.2411.50475-.60475.35952-.88392-.1479-.28422-.48808-.42125-.95506-.16507-.23061.13196-.45456.3645-.61995.55782-.16189.20002-.26431.36471-.26431.36471M13.32473,4.69947s.18959-.00552.43539-.03392c.24848-.02395.54887-.07746.77924-.18015.46228-.19917.56132-.55469.44244-.8465-.12075-.29632-.44645-.46537-.93414-.255-.242.10788-.48663.31781-.66995.49388-.18145.18094-.29936.33547-.29936.33547M15.41892,3.75793s.75468.05707,1.23061-.10161c.4756-.16534.61048-.4972.51671-.80301-.09232-.3014-.40582-.51234-.90755-.33818-.50553.16891-1.0403.73593-1.0403.73593M17.59005,3.00791s.74747.12683,1.23546.00841c.49016-.11696.65174-.44409.58525-.75558-.06601-.30961-.35793-.53885-.87392-.41563-.51753.12578-1.10127.64006-1.10127.64006M19.82039,2.45513s.7337.18841,1.23103.11323c.49827-.08027.68761-.3867.64695-.70307-.04024-.31353-.31263-.57243-.83579-.4883-.52566.07974-1.15079.544-1.15079.544M22.09023,2.08898s.71682.24998,1.21955.21281c.50429-.03721.71658-.33324.70024-.65152-.01619-.31599-.26735-.58998-.79467-.55104-.52916.0393-1.18962.44849-1.18962.44849M24.38401,1.90628s.69524.3022,1.20351.29998c.5118-.00428.74238-.28839.74383-.60533.00145-.31819-.23179-.60524-.75447-.60088-.52633.00235-1.21632.36163-1.21632.36163M26.69154,1.87559s.68469.33704,1.19374.35466c.51011.01477.75196-.25594.76743-.57386.01537-.31647-.20577-.61658-.72978-.63182-.52482-.01807-1.22645.30596-1.22645.30596M29.00027,1.94581s.66757.36634,1.17307.41161c.50734.03842.76233-.21479.79519-.53329.03237-.31326-.17268-.62912-.69693-.66895-.525-.04682-1.24194.24634-1.24194.24634M31.29962,2.13167s.64463.40386,1.14495.47855c.502.07166.77279-.16798.82584-.48303.05251-.31124-.13289-.63646-.65494-.71106-.52304-.0779-1.25644.1737-1.25644.1737M33.58053,2.45658s.61533.44579,1.10814.55305c.49347.10996.78174-.11356.85749-.4229.07535-.30753-.08705-.64132-.60325-.75627-.51822-.11265-1.26768.08934-1.26768.08934M35.83064,2.93944s.14612.12293.3516.26108c.20454.14228.46659.30372.70956.37313.47861.14522.78223-.04756.88657-.34949.1032-.29826-.02903-.65081-.5404-.80604-.2543-.07282-.57392-.07873-.82804-.06316-.25542.01959-.44492.0562-.44492.0562M38.02805,3.60071s.52352.54292.97561.7436c.45504.1999.77975.04675.92118-.23824.14097-.28381.05356-.65092-.43853-.86725-.49389-.21874-1.27329-.15086-1.27329-.15086M40.12393,4.51105s.44651.6046.86312.86596c.42062.26007.76342.15508.94463-.10667.1804-.26024.14631-.63678-.3129-.92094-.46053-.28809-1.24489-.32275-1.24489-.32275M42.06997,5.69937s.35775.6602.71827.98423c.36992.31861.72155.27344.94755.04446.22036-.22258.25047-.60417-.16303-.96075-.41137-.36685-1.18476-.51065-1.18476-.51065M43.79402,7.17599s.07002.18718.1508.40303c.09115.22576.21238.49486.35681.68971.29147.3831.64201.41628.91403.24279.26362-.16727.37797-.53587.04364-.97617-.16421-.2208-.43587-.41184-.66235-.54072-.22277-.13341-.41092-.1974-.41092-.1974M45.17114,8.96078s.02429.19756.05233.4254c.03894.23787.0862.52865.18229.75002.18422.44178.52527.55656.82497.45735.30301-.09995.49528-.42567.28134-.93816-.10993-.25346-.32396-.5083-.51837-.68576-.18498-.1835-.35482-.2888-.35482-.2888M46.07918,11.01765s-.02535.19785-.05462.42602c-.01781.23967-.04817.53618-.00268.77454.07273.47733.38002.66895.69373.64094.31862-.02833.57889-.29868.49537-.8437-.05076-.26991-.19019-.56887-.33779-.78764-.13729-.22188-.27193-.36688-.27193-.36688M46.47219,13.23856s-.0683.18855-.14703.40602c-.07125.23164-.15812.51899-.16789.76563-.00974.49017.23338.73444.55644.76746.30859.03224.63722-.18314.64915-.72741.01061-.27041-.06788-.58804-.16243-.83214-.08539-.24437-.18434-.41532-.18434-.41532M46.40597,15.50462s-.10649.15771-.22072.3706c-.10881.21504-.26349.47362-.30853.71255-.12705.46362.08699.76291.38328.86222.3056.10245.64454-.04556.78943-.57962.05236-.26883.05208-.59719.00021-.85512-.04594-.25808-.10275-.44335-.10275-.44335M45.88211,17.69746s-.13808.14284-.29731.30756c-.16692.17627-.35202.40006-.47198.60848-.21436.42615-.11873.74829.15523.92862.25557.1697.65744.13345.91078-.36412.13747-.24125.19076-.57398.21349-.83428.01444-.12938.01489-.24395.00928-.32697-.00479-.08016-.00787-.13122-.00787-.13122M44.84362,19.68629s-.16774.08822-.36664.21971c-.20433.12845-.45329.28711-.61295.46726-.33342.34457-.29978.70464-.09045.93706.21569.23908.58866.28333.97441-.11625.18365-.20585.33357-.50378.42059-.75094.08301-.25189.12063-.44288.12063-.44288M43.32481,21.34357s-.19149.05739-.41233.12356c-.23052.07715-.50547.18365-.71242.31547-.39756.28015-.45821.61888-.29424.89952.1558.26781.52171.41346.97136.09876.22947-.14697.43527-.40793.5779-.62644.14781-.21274.2241-.39672.2241-.39672M41.46169,22.6278s-.18772.00969-.42722.03609c-.24038.02671-.53076.06782-.75639.15381-.44727.17265-.57775.50004-.48723.80792.08816.30122.40917.51466.9273.3152.25774-.09846.51891-.30777.70491-.49221.18685-.18486.3022-.3437.3022-.3437M39.37238,23.46164s-.18489-.03676-.42508-.06764c-.24113-.03121-.53606-.05878-.77837-.02511-.48163.06854-.68089.36319-.65651.68253.02372.31371.28899.58783.83172.51094.27007-.03766.56985-.17927.79326-.31357.22413-.13494.37444-.26021.37444-.26021M37.13569,23.80459s-.17455-.07374-.40679-.14985c-.23263-.07651-.5231-.16098-.77068-.16745-.49272-.01451-.73674.24185-.76547.56194-.02827.31235.18896.62754.73047.64382.2694.00713.58429-.07377.82738-.16291.24342-.08953.41505-.18128.41505-.18128M34.8615,23.74307s-.16056-.09877-.37604-.21396c-.21635-.11341-.48576-.24191-.7246-.2949-.47584-.10161-.76333.10766-.85164.41337-.08819.30419.06812.65241.60388.76716.26612.05879.59442.02951.8492-.01866.25548-.04613.43988-.11116.43988-.11116M32.64323,23.28533s-.13591-.13282-.32441-.28298c-.18682-.15719-.42122-.33737-.64306-.43694-.43976-.19964-.76465-.05897-.91768.2205-.15203.27728-.07574.65295.42656.88125.25026.11234.57959.15214.83934.15973.26268.00109.4554-.02167.4554-.02167M30.5784,22.37363s-.10742-.15254-.25361-.34736c-.15028-.18926-.33472-.4251-.53248-.56896-.38732-.29116-.73484-.22327-.94656.01918-.20632.23542-.21159.61895.22751.94933.22039.16076.52648.27944.78195.33957.25192.06608.44926.0795.44926.0795M28.76146,21.03291s-.07276-.17143-.17295-.3919c-.09784-.22377-.23794-.47914-.38632-.66885-.31311-.3615-.65117-.38982-.92003-.20415-.25412.17411-.36649.55782-.0035.9801.17171.2176.46062.39003.69014.51157.23281.11927.42336.17411.42336.17411M27.30871,19.31951s-.02212-.18659-.06812-.42067c-.03273-.2427-.10492-.52155-.19643-.74401-.20701-.42918-.52473-.54764-.83298-.43881-.29059.10147-.50239.44106-.26172.94544.10694.25619.34659.49778.53377.6769.20131.17224.36754.27679.36754.27679M26.35408,17.29022s.02966-.18669.04334-.42472c.03316-.24467.03153-.53358-.00105-.77483-.08967-.47344-.37963-.66513-.70036-.63259-.31088.03115-.58794.30592-.48618.8497.03804.27201.21036.56498.3421.78566.15203.21729.28276.3621.28276.3621M25.93216,15.07672s.07324-.17578.14317-.40743c.06815-.23213.16035-.52078.15773-.76609.02267-.48933-.24791-.73453-.56024-.76328-.31998-.02936-.62109.18816-.64563.73234.00193.27169.07538.58888.17313.83179.09603.24353.18829.41378.18829.41378M25.98017,12.8101s.10067-.17337.21678-.37333c.11191-.21557.24613-.4808.30189-.71774.10745-.47117-.09205-.76102-.39994-.85749-.29774-.09398-.65376.05513-.77674.59216-.06263.26696-.04033.59625.00886.85285.03964.25622.1076.44157.1076.44157M26.4709,10.60593s.12665-.1358.28987-.31553c.16355-.18058.34427-.41.457-.62365.20776-.43188.09244-.75599-.18549-.9251-.26386-.16166-.65476-.10712-.89694.39273-.12816.24484-.17316.57719-.19007.83702-.01724.26054.01007.45751.01007.45751M27.45354,8.58305s.15987-.09779.35672-.23566c.20713-.13173.43283-.31406.5971-.49272.30611-.37095.27495-.7126.04518-.94247-.21849-.21959-.61136-.26366-.96551.16269-.18546.20348-.30533.51951-.38958.76387-.07529.25222-.10103.44742-.10103.44742M28.89788,6.85548s.18211-.05421.4048-.14596c.22654-.08865.50258-.20296.69494-.3538.3903-.28065.42484-.6616.2411-.92169-.18251-.2584-.52072-.36332-.96995-.03949-.21464.16766-.41212.43144-.54312.65633-.12867.22919-.20246.40872-.20246.40872M29.10199,3.95962s-.19296.02672-.44148.09892c-.24794.07199-.5514.19232-.76378.35855-.42538.33529-.4158.71378-.20707.95138.21024.23955.56238.30429.9496-.00075.19498-.15258.37936-.39065.52187-.59072.14218-.19958.23989-.36163.23989-.36163M27.16292,5.47364s-.74726.23946-1.11538.64811c-.37746.41637-.28945.79538-.03629.98205.25717.1906.60708.18327.925-.16642.3239-.36124.59601-1.06287.59601-1.06287M25.51919,7.3251s-.17187.09947-.36974.2723c-.2005.17012-.43024.41471-.54908.66336-.24131.49956-.05558.83538.23893.94975.29707.11574.63559.01183.8448-.42005.10408-.21806.16759-.50369.21464-.73986.04358-.2373.07249-.42091.07249-.42091M24.42127,9.5495s-.13919.13868-.29056.34914c-.15411.20914-.3188.49135-.3846.75195-.13066.52318.10667.815.41661.87832.3122.06387.63242-.1012.75263-.58168.06079-.24084.05896-.54182.05064-.78566-.01124-.24443-.03056-.43104-.03056-.43104M23.80575,11.92892s-.4523.63114-.52762,1.154c-.07903.52078.17877.7914.49188.8316.31684.04075.62468-.15003.70093-.65202.07204-.50117-.12934-1.23364-.12934-1.23364M23.44279,14.33743s-.4108.65697-.45703,1.18096c-.04711.52268.22121.77804.53835.80155.31624.02345.61711-.18389.6629-.69156.04461-.50658-.20297-1.22634-.20297-1.22634M23.21857,16.75918s-.37553.67554-.3982,1.19879c-.02363.52226.25518.76577.57181.77648.31814.01079.61003-.20939.63315-.72057.02203-.51032-.26292-1.21816-.26292-1.21816M23.10548,19.18508s-.35027.6876-.3569,1.20903c-.00784.52084.27739.75581.59475.75807.31778.00226.60364-.22662.61139-.74016.00651-.513-.30437-1.21115-.30437-1.21115M23.06777,21.60981s-.33273.69424-.33056,1.21355c.00826.51863.30159.749.61838.74693.31832-.00209.59613-.23539.58788-.75106-.00217-.51519-.33059-1.20723-.33059-1.20723M23.09345,24.03107s-.31486.69678-.3031,1.21537c.01172.51841.30253.74642.62007.7415s.59779-.24062.5861-.75644c-.01169-.51563-.35799-1.20478-.35799-1.20478M23.14831,26.45114s-.3148.69968-.30304,1.21828c.01176.51841.3025.7439.61998.7362.31748-.00772.5977-.24594.58601-.76174-.01169-.51564-.35793-1.20188-.35793-1.20188M23.20317,28.87121s-.31473.70261-.30295,1.22119c.01176.51841.30244.7414.61982.73088.31742-.0105.59758-.25124.58589-.76705-.01169-.51564-.35784-1.19897-.35784-1.19897M23.25809,31.29129s-.31464.70552-.30286,1.2241c.01179.51841.30238.73888.61964.72558.3173-.01329.59737-.25656.5857-.77237-.01166-.51563-.35775-1.19605-.35775-1.19605M23.313,33.71134s-.30274.71307-.26322,1.24104c.03882.527.35084.73439.6648.70213.31784-.03258.57531-.28609.5382-.7908-.0378-.50365-.39521-1.1759-.39521-1.1759M23.49259,36.14192s-.24701.73875-.1549,1.26645c.08916.52612.42026.70225.73114.63725.31076-.06492.54224-.34209.45866-.83595-.08623-.49163-.49341-1.1303-.49341-1.1303M23.89985,38.55461s-.16442.76586-.00549,1.28317c.15779.51481.51183.64544.81002.53909.29997-.10694.49091-.41092.34551-.88526-.14558-.47201-.61859-1.05821-.61859-1.05821M24.6073,40.90493s-.01944.19283.00648.45601c.01848.26362.08852.59267.22277.83609.2719.49014.65819.52875.91657.35066.26464-.18142.37044-.51576.14109-.93066-.11529-.20917-.31398-.4237-.47536-.60056-.16195-.16394-.30238-.30608-.30238-.30608M25.80092,43.08482s.04078.1917.13344.43801c.09362.24463.24607.53929.43494.73759.38472.39215.76164.33674.9723.10292.21439-.23774.23637-.59318-.10347-.93971-.16777-.17655-.41872-.33291-.62697-.45647-.20614-.1239-.37396-.20915-.37396-.20915M27.50849,44.87441s.0809.17646.21861.39572c.13823.21735.33589.475.55116.6319.43114.31537.7894.20989.9682-.05217.17916-.2625.15031-.62403-.25343-.91949-.20276-.14777-.48365-.26083-.71613-.34177-.23076-.08194-.41471-.12891-.41471-.12891M20.89839,4.19273s.01082,1.4356.35,3.14476c.33903,1.70833.81668,3.05492.81668,3.05492,0,0-.04425-1.42787-.34964-3.14296s-.81704-3.05672-.81704-3.05672ZM23.00204,4.1812s-.54031,1.34582-.78539,3.06499c-.24725,1.71868-.15158,3.14622-.15158,3.14622,0,0,.34394-1.35081.61943-3.06405.27239-1.71293.31754-3.14715.31754-3.14715h0ZM20.78045,7.51715c-.85255-1.5119-1.85745-2.56472-1.85745-2.56472,0,0,.57335,1.31565,1.45193,2.81183.88094,1.49547,1.69014,2.62815,1.69014,2.62815,0,0-.42924-1.36474-1.28462-2.87526ZM16.56043,5.29819s.19378,1.42234.7532,3.07251c.55924,1.64951,1.20484,2.92444,1.20484,2.92444,0,0-.23127-1.4107-.75296-3.07176-.52232-1.66301-1.20508-2.92519-1.20508-2.92519ZM18.67107,5.01602s-.38355,1.40466-.40875,3.14105c-.02809,1.73577.25614,3.13807.25614,3.13807,0,0,.15728-1.38011.21804-3.11477.05748-1.73394-.06544-3.16435-.06543-3.16435ZM18.08678,10.4729c-.27881-.49751-.67845-1.17653-1.21162-1.8606-1.06218-1.36956-2.2508-2.23561-2.2508-2.23561,0,0,.19456.30265.53055.77017.33595.46942.80974,1.09723,1.35841,1.772.55032.66033,1.04777,1.25724,1.40959,1.69139.35274.43006.59556.68488.59556.68488,0,0-.15197-.32325-.43169-.82223ZM12.2826,7.17105s.4545,1.36602,1.32694,2.87394c.87247,1.50794,1.74002,2.63885,1.74002,2.63885,0,0-.12894-.33294-.3576-.85963-.22823-.52489-.55369-1.24465-.96759-2.01108-.41387-.76639-.84447-1.43075-1.17765-1.89998-.33195-.46791-.56412-.74209-.56412-.74209h0ZM14.37968,6.48467s-.16855,1.46098.11999,3.171c.14302.85948.35871,1.61405.53492,2.15534.17717.54159.31498.87283.31498.87283,0,0-.13995-1.3699-.37912-3.08716-.12635-.86186-.26744-1.63565-.38448-2.20018-.11586-.56367-.20629-.91183-.20629-.91183ZM14.77507,11.95742c-.36658-.43527-.89758-1.02366-1.54911-1.5906-1.30298-1.15313-2.65674-1.74946-2.65674-1.74946,0,0,.25276.2554.67589.64352.42424.39172,1.01871.91993,1.68227,1.4726,1.33821,1.1078,2.42218,1.95037,2.42218,1.95037,0,0-.20776-.28948-.57449-.72643ZM8.38751,9.94178s.1826.30835.52024.77572c.33641.46725.82804,1.08763,1.42264,1.72414.5946.63649,1.17252,1.17522,1.59526,1.56082.42882.3794.69599.6158.69599.6158,0,0-.20143-.29275-.54284-.75261-.34204-.45925-.82123-1.08801-1.39584-1.74263-.57458-.65461-1.14296-1.20487-1.57422-1.58563-.43057-.38135-.72122-.59561-.72123-.59561ZM10.3437,8.77717s.10703,1.47813.76839,3.0882c.32137.80108.70916,1.49342,1.00401,1.97843.29686.48618.50553.77446.50553.77446,0,0-.47804-1.30747-1.06525-2.91362-.30223-.80851-.60313-1.54646-.83027-2.07596-.22549-.52818-.3824-.85151-.3824-.85151h-.00001ZM11.90053,14.03762c-.45323-.34149-1.10031-.79256-1.86936-1.19487-.76592-.40076-1.51978-.67651-2.07749-.83445-.27998-.08085-.51294-.13625-.67562-.17174-.16596-.02922-.26256-.03686-.26256-.03686,0,0,.317.17194.82509.44752.50815.27658,1.21126.6418,1.98812,1.02256,1.53962.74337,2.79292,1.34849,2.79292,1.34849,0,0-.26823-.2383-.7211-.58064h0ZM5.21951,13.83147s.26771.23777.7309.58067c.46213.34319,1.118.78626,1.87675,1.21403.75875.42777,1.47234.76697,1.99219,1.00631.51957.23828.85062.37544.85062.37544,0,0-.28019-.21901-.74464-.55436-.4649-.33464-1.11224-.78854-1.85851-1.23775-.74624-.44921-1.45462-.80117-1.98055-1.03388-.52551-.23341-.86674-.35047-.86674-.35047h-.00002ZM6.8094,12.0434s.0286.08988.08015.25188c.05251.15863.1388.38567.27209.65737.25391.54625.67468,1.22443,1.23561,1.88702.55186.66504,1.12879,1.20689,1.55719,1.58127.42981.37444.71552.58699.71552.58699,0,0-.82527-1.09288-1.89932-2.45641-.53868-.6906-1.02718-1.31689-1.38291-1.77294-.34979-.45611-.57832-.73518-.57832-.73518h-.00001ZM9.80571,16.67404c-.53597-.18778-1.28932-.42147-2.1434-.57523-1.70651-.31778-3.17912-.12602-3.17912-.12602,0,0,.34762.08759.91195.20189.5662.11597,1.34644.25991,2.20067.39229,1.69463.24307,3.07414.44095,3.07414.44095,0,0-.32842-.14528-.86424-.33387h0ZM3.30198,18.21955s.31763.17086.84576.39808c.52789.228,1.26723.50915,2.10368.75211.83642.24298,1.60924.41012,2.17065.52413.56162.11323.91277.17007.91277.17007,0,0-.32531-.15003-.85315-.36971-.52871-.21916-1.26235-.51263-2.09162-.77903s-1.5999-.44695-2.16559-.55318c-.56608-.10717-.9225-.14246-.9225-.14247ZM4.37257,16.22672s.85836,1.20954,2.25267,2.24655c.69222.52197,1.37607.91666,1.87771,1.18265.50239.26542.8319.40802.8319.40802,0,0-1.05226-.87214-2.41184-1.9578-.6761-.53626-1.31401-1.0116-1.78307-1.34778-.46598-.33577-.76737-.53165-.76737-.53165h0ZM8.41783,19.93747c-.56666-.06042-1.3544-.1154-2.21834-.0697-1.73779.08027-3.1248.58595-3.1248.58595,0,0,.35962.00928.93468-.00425.57296-.01314,1.36802-.04625,2.2319-.11038,1.72978-.13856,3.09358-.27514,3.09358-.27514,0,0-.35012-.06529-.91702-.12648ZM2.4039,22.79738s1.37646.41049,3.11124.57009c1.73478.1596,3.16182.09752,3.16182.09752,0,0-1.38174-.361-3.11124-.57009s-3.16182-.09752-3.16182-.09752ZM3.0223,20.72164s.27814.24426.75121.57814c.47301.33393,1.15393.74502,1.93724,1.11505,1.56792.74258,2.9662,1.05017,2.9662,1.05017,0,0-.30428-.17025-.79326-.44385-.49106-.2756-1.17795-.64793-1.95722-1.02892-.78337-.38047-1.50233-.69985-2.03481-.92363-.53097-.22374-.86936-.34696-.86936-.34696ZM7.75023,23.51896c-.5716.04996-1.34662.14622-2.19395.34786-1.68996.39438-2.9719,1.12245-2.9719,1.12245,0,0,.35618-.05272.92118-.16564.56702-.11223,1.33426-.28301,2.17752-.50001,1.67552-.44151,2.99387-.85862,2.99387-.85862,0,0-.35699.00458-.92672.05397h0ZM2.35052,27.47732s.35754.03816.93308.04955c.57519.01218,1.36627-.00562,2.23268-.09511.86641-.0895,1.64499-.22546,2.20767-.33145.56216-.10668.90981-.18692.90981-.18692,0,0-.35527-.01721-.92808-.02214-.57277-.00417-1.36329.00078-2.23178.06717-.86849.0664-1.6499.18981-2.21354.30411-.5637.11354-.90984.21479-.90984.21479ZM2.58257,25.2604s1.25731.76693,2.94209,1.19985c.83591.22071,1.62015.32905,2.18587.3871.5672.0573.92323.06604.92323.06604,0,0-1.30575-.42115-2.97271-.90641-.83172-.23768-1.60547-.42915-2.16387-.55633-.56051-.12793-.91461-.19025-.91461-.19025ZM7.7367,27.14252c-.54541.15761-1.29824.40379-2.08165.77032-1.58142.72541-2.67416,1.72095-2.67416,1.72095,0,0,.3362-.1275.86297-.35719.52627-.22885,1.25288-.55921,2.02634-.94253,1.55438-.77688,2.76356-1.42068,2.76356-1.42068,0,0-.34994.07205-.89706.22913ZM3.30117,32.13954s.36034-.04181.92573-.15743c.56563-.11484,1.3352-.30667,2.16071-.58453.82554-.27784,1.55345-.58096,2.07746-.80709.52373-.2269.84245-.37998.84245-.37998,0,0-.35359.06283-.91687.18502-.56476.12355-1.33019.29998-2.16441.55519-.83163.25436-1.57181.54753-2.09147.78122-.52162.23347-.83359.4076-.83359.4076h-.00001ZM3.0343,29.90384s1.40006.49376,3.13207.54988c.87066.03163,1.65261-.03308,2.21716-.10099.57154-.07098.92398-.14222.92398-.14222,0,0-1.3931-.10275-3.10443-.22897-.86611-.05201-1.65533-.07718-2.23356-.08319-.57805-.00687-.93522.00549-.93522.00549ZM8.48815,30.62816c-.49606.27263-1.16514.67375-1.84932,1.20455-1.3729,1.05318-2.25517,2.28165-2.25517,2.28165,0,0,.30241-.19991.77177-.54319.4696-.34259,1.10727-.82665,1.78493-1.37471,1.35322-1.10546,2.36714-1.98595,2.36714-1.98595,0,0-.32299.14567-.81936.41765h.00001ZM5.30526,36.53987s.33806-.12472.85616-.37238c.51807-.24648,1.21584-.6205,1.94764-1.09348.73126-.4726,1.36377-.94591,1.82038-1.29411.45043-.35392.73111-.57445.73111-.57445,0,0-.32152.15443-.83757.40227-.51312.25561-1.21807.61503-1.96512,1.06289-.74708.44784-1.38948.90829-1.84009,1.26494-.45112.35582-.71251.60433-.71251.60432ZM4.501,34.37098s1.48168.18783,3.18093-.1689c.85463-.17526,1.59164-.42638,2.12604-.63413.53187-.20721.85258-.36251.85258-.36251,0,0-1.37022.23784-3.05346.53-.85086.14807-1.6329.30343-2.19516.42428-.56268.12007-.91093.21124-.91093.21124v.00002ZM9.95829,33.81106c-.4183.38536-.97432.93929-1.50592,1.62721-1.07285,1.36971-1.55303,2.78199-1.55303,2.78199,0,0,.23528-.27258.59104-.72505.35422-.4501.84025-1.08611,1.34728-1.78374,1.00488-1.38145,1.82288-2.50602,1.82288-2.50602,0,0-.2811.21941-.70226.60561h.00001ZM8.41201,40.30702s.2924-.20767.7296-.58304c.43741-.3741,1.01495-.91522,1.60029-1.56023.58537-.64501,1.07457-1.2656,1.42363-1.71917.34237-.45896.55571-.74493.55571-.74493,0,0-.27519.22511-.70528.60355-.42942.37907-1.01636.90888-1.62103,1.53582s-1.10576,1.23891-1.44937,1.70013c-.34421.4606-.53356.76786-.53356.76786h.00001ZM7.0782,38.43864s1.4774-.21275,3.02458-1.00605c.77367-.38863,1.42728-.82881,1.8882-1.16466.46014-.33636.73026-.56827.73026-.56827,0,0-1.26271.58451-2.81384,1.30254-.7859.37125-1.49362.72351-2.00512.98996-.51195.26582-.82409.44648-.82409.44648h.00001ZM12.20282,36.46699c-.30208.48012-.69937,1.16458-1.03611,1.96164-.34352.79623-.55436,1.56579-.64062,2.16003-.0482.29909-.06951.53483-.08123.69959-.00862.16664-.01338.25911-.01338.25911,0,0,.14585-.32865.35748-.86154.21069-.53745.50001-1.27553.81903-2.08939.61368-1.59687,1.11327-2.89677,1.11327-2.89677,0,0-.21512.28673-.51844.76733ZM12.45429,43.11314s.88546-1.13539,1.65958-2.69606c.77415-1.56068,1.2348-2.90926,1.2348-2.90926,0,0-.83455,1.16042-1.65795,2.69303-.8256,1.53674-1.23642,2.91229-1.23642,2.91229h-.00001ZM10.6812,41.71252s.08473-.03965.23736-.11112c.15131-.0727.36377-.1841.60771-.34388.49438-.31525,1.13406-.77074,1.77137-1.36733.63682-.59335,1.14504-1.19017,1.49757-1.63632.3535-.4488.55345-.74606.55345-.74606,0,0-1.0594.87515-2.36003,2.02338-1.28971,1.16015-2.30743,2.18132-2.30743,2.18132ZM15.06232,38.38838c-.15918.54575-.35506,1.31381-.46882,2.17198-.23688,1.71977-.02098,3.17383-.02098,3.17383,0,0,.07933-.35084.17735-.9178.09962-.56899.21512-1.34364.31552-2.21068.18624-1.7242.28327-3.09789.28327-3.09789,0,0-.12575.33335-.28634.88056ZM16.74525,44.84612s.66332-1.27386,1.15375-2.94549c.49046-1.67162.69934-3.0847.69934-3.0847,0,0-.62082,1.28693-1.15375,2.94549-.53296,1.65858-.69934,3.0847-.69934,3.08471ZM14.82065,43.83659s.28999-.22773.70751-.62878c.41715-.39782.95795-.97935,1.47315-1.68031.51457-.69665.90978-1.3755,1.18133-1.88119.27025-.5042.41571-.83038.41571-.83038,0,0-.22585.26695-.58878.6959-.3572.42936-.85312,1.03261-1.38107,1.72402-.52503.68562-.98056,1.3347-1.30135,1.81337-.32137.47849-.50649.78736-.50649.78736h-.00001ZM18.47612,39.73617c-.05956.56996-.113,1.35612-.07906,2.22061.05977,1.73962.48012,3.1333.48012,3.1333,0,0,.08895-1.43724-.00738-3.16421-.04548-.87006-.11882-1.64565-.17491-2.20351-.0595-.55873-.09654-.90644-.09654-.90644,0,0-.06275.35151-.12222.92024h-.00001ZM21.12243,45.85958s.48015-1.35196.74702-3.07347c.26684-1.7215.27811-3.15118.27811-3.15118,0,0-.44769,1.35731-.74699,3.07347s-.27814,3.15118-.27814,3.15118ZM19.13124,45.14772s.98074-1.07341,1.79738-2.60829c.81849-1.52664,1.21894-2.9045,1.21894-2.9045,0,0-.78554,1.15094-1.63049,2.66841-.84215,1.51351-1.38583,2.84438-1.38583,2.84438ZM22.37082,42.77699c.28272,1.71677.84284,3.04944.84284,3.04944,0,0-.06878-1.43614-.37695-3.13954-.15273-.85689-.32866-1.61856-.46255-2.16515-.13277-.55067-.2266-.8868-.2266-.8868,0,0-.0626,1.43415.22326,3.14205ZM19.95931,11.53422s.0752,1.42946.51584,3.11489,1.01736,3.00447,1.01736,3.00447c0,0-.10971-1.4208-.51581-3.11489-.40609-1.69407-1.01739-3.00447-1.01739-3.00447ZM22.22234,11.36424s-.51897,1.40573-.705,3.14021c-.18877,1.73476-.02484,3.14913-.02484,3.14913,0,0,.31537-1.36085.53196-3.10209.21397-1.74034.19788-3.18724.19788-3.18724h0ZM21.10401,16.80154c-.25367-.51395-.63484-1.23153-1.12635-1.94764-.9956-1.44114-2.17584-2.36747-2.17584-2.36747,0,0,.17762.31357.48895.79966.31045.48417.75335,1.15144,1.26783,1.85432.52358.70978.97392,1.32151,1.3421,1.78457.35956.45604.59179.72859.59179.72859,0,0-.13392-.33351-.38849-.85203h.00001ZM15.16278,13.25375s.08943.35083.28688.89108c.19646.54076.50499,1.26874.91461,2.03743.40965.76868.83244,1.43811,1.1432,1.92036.31742.47667.51542.77403.51542.77403,0,0-.12385-.3354-.32236-.87304-.2074-.5362-.49733-1.26941-.87811-2.05337-.38032-.78302-.78783-1.46443-1.10872-1.94051-.32019-.47742-.55092-.75597-.55092-.75597h0ZM17.52591,12.58356s-.34575,1.47116-.18471,3.2171c.07538.86939.25358,1.64216.40278,2.18984.15378.55189.2789.88615.2789.88615,0,0-.02206-.34809-.05736-.90522-.03071-.57107-.07291-1.35465-.11939-2.21831-.05377-.87297-.12732-1.66556-.19411-2.23903-.06601-.57461-.12611-.93054-.12611-.93054h0ZM17.47139,18.13024c-.35612-.44805-.86906-1.04286-1.53208-1.61535-.66052-.57178-1.35247-.99915-1.88841-1.26408-.536-.26805-.90626-.38412-.90626-.38412,0,0,.26883.24057.71592.61021.44904.36487,1.0661.86626,1.74898,1.42115,1.3689,1.08616,2.41335,1.97859,2.41335,1.97859,0,0-.19631-.29764-.5515-.7464ZM10.61006,17.00389s.24258.27094.67284.65354c.42939.38386,1.04985.87393,1.77993,1.34893.73011.47498,1.42273.85884,1.92428,1.13654.50321.27166.81716.44113.81716.44113,0,0-.27064-.23344-.70446-.60766-.43684-.36961-1.04033-.87902-1.74443-1.39201-.70386-.51285-1.38436-.9195-1.89655-1.18518-.50996-.26547-.84878-.39527-.84878-.39527v-.00002ZM12.88528,15.06162s.01188.39068.12123.98068c.05682.29754.13455.63728.25394,1.00841.08521.39134.24598.78408.48416,1.16179.46466.73614.99171,1.32992,1.38668,1.73493.39856.40641.67299.6366.67299.6366,0,0-.19583-.27617-.49643-.74476-.26943-.50057-.79097-1.05297-1.13102-1.8542-.35039-.80679-.667-1.53582-.89737-2.06633-.23441-.53136-.39419-.85711-.39418-.85712ZM14.97054,20.1817c-.52379-.22824-1.25632-.50776-2.11528-.6778-.85643-.17117-1.6767-.18284-2.27455-.12866-.60388.05005-.98128.14893-.98128.14893,0,0,.35654.06604.93028.14982.57305.08345,1.36052.1981,2.23199.32498,1.73261.24372,3.04258.58506,3.04258.58506,0,0-.31088-.17286-.83374-.40233ZM8.47178,22.31462s.33502.14032.88712.30489c.55198.16584,1.32148.35062,2.18328.477s1.65078.18425,2.22222.22318c.57075.03154.92681.05121.92681.05121,0,0-.34262-.09852-.89179-.25644-.55246-.15151-1.3163-.35794-2.17129-.5242-.85499-.16627-1.64216-.24645-2.21791-.27171-.57555-.02661-.93845-.00393-.93844-.00393ZM9.476,19.83324s.20589.33148.61024.78153c.39663.44983,1.00027,1.00351,1.73617,1.47258.73765.47153,1.45872.78266,1.99285.9866.53341.20193.87597.29695.87597.29695,0,0-1.17144-.69247-2.5942-1.70661-.71926-.50759-1.36917-.96625-1.84211-1.30002-.47445-.33384-.77891-.53103-.77891-.53103h-.00001ZM13.76597,23.36374c-.57145.01093-1.35557.08819-2.21062.27299-.85719.17691-1.61684.4548-2.15646.71219-.53865.25475-.86135.46903-.86135.46903,0,0,.35621-.06083.92374-.18285.56632-.12129,1.34557-.29899,2.19474-.50175.84603-.19535,1.61479-.40973,2.15706-.55807.54764-.13788.87814-.20439.87814-.20439,0,0-.35509-.02258-.92525-.00715ZM8.43546,27.78076s.36305.02036.93797-.01192c.57525-.03082,1.36082-.12031,2.21381-.29749.85264-.17713,1.61452-.3928,2.16577-.54975.54818-.1627.89013-.2642.89013-.2642,0,0-.35606.02478-.92678.06452-.57045.04598-1.35862.11086-2.21939.24392-.8608.13306-1.62892.32476-2.17933.49756-.55158.17141-.88217.31737-.88217.31737h-.00001ZM8.53173,25.13674s.3144.22778.84359.5047c.53055.27808,1.2813.5924,2.13409.78548.85288.19494,1.6383.24387,2.20857.25221.56816.00754.92516-.02173.92516-.02173,0,0-.33767-.06905-.87814-.17955-.5417-.11898-1.30126-.31134-2.14087-.54253-.84968-.22657-1.61744-.43129-2.17614-.58028-.5631-.14397-.91626-.2183-.91626-.2183ZM13.76881,26.96118c-.52988.2073-1.25101.52847-1.9792,1.01005-.73108.48007-1.32401,1.0418-1.71769,1.48946-.38689.44223-.59746.76624-.59746.76624,0,0,.30379-.19498.77535-.52735.46704-.33595,1.10881-.79763,1.81905-1.30855,1.4091-1.03977,2.57427-1.73362,2.57427-1.73362,0,0-.3421.09727-.87434.30378h.00002ZM10.66323,33.12918s.33885-.13701.84191-.41856c.50423-.27995,1.16743-.71075,1.84977-1.2521s1.26786-1.07439,1.69445-1.45659c.42282-.38368.68659-.62303.68659-.62303,0,0-.30617.18222-.797.47435-.48961.29557-1.17035.69842-1.88826,1.19163s-1.32501,1.00125-1.74102,1.40199c-.41782.39981-.64644.68231-.64644.68231ZM9.59418,30.52457s.37661.08887.96268.14151c.58926.05947,1.42384.07263,2.27657-.11365.85535-.17904,1.57931-.48653,2.09051-.73512.50884-.2496.81201-.43842.81201-.43842,0,0-1.2603.44293-2.99812.68125-.86599.12127-1.64852.23087-2.21797.31061-.57109.08513-.92567.15381-.92567.15381h-.00001ZM15.07896,30.02749c-.38689.41553-.8917,1.02066-1.31663,1.78356-.42867.76345-.6821,1.54166-.81451,2.12934-.13316.58733-.15963.97637-.15963.97637,0,0,.17193-.31629.4284-.83856.25349-.52028.60177-1.2352.98722-2.02643.38602-.78547.75208-1.46559,1.04593-1.93532.28743-.46847.48621-.73756.48621-.73756,0,0-.26753.23302-.65699.64859ZM15.22246,36.89789s.22015-.28737.52331-.77633c.3041-.48853.68731-1.18035,1.04054-1.97653.35326-.79617.61976-1.54151.80718-2.08359.18645-.5425.2899-.88341.2899-.88341,0,0-.19456.29947-.48937.79192-.29276.49192-.6909,1.17489-1.07294,1.95766-.38201.78278-.66492,1.5224-.84245,2.07098-.17847.54664-.25617.89931-.25617.89931h0ZM13.03942,35.12565s.37622-.10247.92175-.34665c.547-.24436,1.25364-.64017,1.9398-1.18357.70729-.52349,1.08912-1.213,1.45649-1.65269.33782-.45917.52593-.7647.52593-.7647,0,0-.06507.05798-.18211.16224-.05802.05213-.12897.11585-.21117.18971-.04132.03724-.08548.07703-.13229.11919-.03412.04871-.07017.10016-.108.15416-.26536.4576-.97618.86667-1.66256,1.39574-.70512.52506-1.34225.9995-1.80591,1.34477-.46249.35077-.74193.58182-.74193.58182v-.00002ZM17.63804,32.07289c-.13301.55716-.27908,1.33012-.32812,2.20431-.10341,1.74699.27438,3.20715.27438,3.20715,0,0,.05124-.35493.10185-.93164.05181-.57734.1032-1.36893.1303-2.24391.03674-1.71887.06694-3.13077.06694-3.13077,0,0-.11222.33843-.24535.89486ZM19.9931,38.49458s.59436-1.31089.9764-3.01057.47653-3.12833.47653-3.12833c0,0-.55608,1.32035-.97621,3.0098-.42074,1.69172-.47671,3.1291-.47671,3.1291h-.00001ZM17.8603,37.57474s1.14697-.96273,2.11251-2.42179c.48693-.72601.85221-1.42841,1.09817-1.94486.24647-.51852.37505-.85241.37505-.85241,0,0-.89836,1.0862-1.89941,2.51951-.49869.71872-.92259,1.3904-1.22003,1.88616-.29774.49617-.46629.81339-.46629.81339ZM21.50908,35.5176c.21201,1.7382.74211,3.11451.74211,3.11451,0,0,.00395-1.43674-.23549-3.16895-.24387-1.73255-.56967-3.10749-.56967-3.10749,0,0-.15016,1.42475.06306,3.16192h0ZM35.56938,8.52309c0,1.74204.2462,3.15425.2462,3.15425,0,0,.2462-1.41221.2462-3.15425s-.2462-3.15425-.2462-3.15425c0,0-.2462,1.41221-.2462,3.15425ZM34.58917,8.76086c.54827,1.65352,1.22642,2.91647,1.22642,2.91647,0,0-.21077-1.41793-.75903-3.07145s-1.22642-2.91647-1.22642-2.91647c0,0,.21077,1.41793.75903,3.07145ZM35.81559,11.67734s.67815-1.26295,1.22642-2.91647.75903-3.07145.75903-3.07145c0,0-.67815,1.26295-1.22642,2.91647s-.75903,3.07145-.75903,3.07145ZM35.81559,21.38605s.2462-1.41221.2462-3.15425-.2462-3.15425-.2462-3.15425c0,0-.2462,1.41221-.2462,3.15425s.2462,3.15425.2462,3.15425ZM33.83014,21.06546s.67815-1.26295,1.22642-2.91647.75903-3.07145.75903-3.07145c0,0-.67815,1.26295-1.22642,2.91647s-.75903,3.07145-.75903,3.07145ZM36.57462,18.14899c.54827,1.65352,1.22642,2.91647,1.22642,2.91647,0,0-.21077-1.41793-.75903-3.07145s-1.22642-2.91647-1.22642-2.91647c0,0,.21077,1.41793.75903,3.07145ZM32.20895,10.11899c1.23181,1.23181,2.40448,2.0563,2.40448,2.0563,0,0-.82449-1.17267-2.0563-2.40448s-2.40448-2.0563-2.40448-2.0563c0,0,.82449,1.17267,2.0563,2.40448ZM31.68397,10.98024c1.5569.78153,2.92947,1.19505,2.92947,1.19505,0,0-1.15166-.85359-2.70856-1.63512s-2.92947-1.19505-2.92947-1.19505c0,0,1.15166.85359,2.70856,1.63512ZM34.61343,12.17529s-.41352-1.37257-1.19505-2.92947-1.63512-2.70856-1.63512-2.70856c0,0,.41352,1.37257,1.19505,2.92947s1.63512,2.70856,1.63512,2.70856ZM41.47853,19.04038s-.82449-1.17267-2.0563-2.40448-2.40448-2.0563-2.40448-2.0563c0,0,.82449,1.17267,2.0563,2.40448,1.23181,1.23181,2.40448,2.0563,2.40448,2.0563ZM39.84792,20.21762s-.41352-1.37257-1.19505-2.92947-1.63512-2.70856-1.63512-2.70856c0,0,.41352,1.37257,1.19505,2.92947.78153,1.5569,1.63512,2.70856,1.63512,2.70856ZM39.7263,16.21472c1.5569.78153,2.92947,1.19505,2.92947,1.19505,0,0-1.15166-.85359-2.70856-1.63512s-2.92947-1.19505-2.92947-1.19505c0,0,1.15166.85359,2.70856,1.63512ZM30.96123,13.62365c1.74204,0,3.15425-.2462,3.15425-.2462,0,0-1.41221-.2462-3.15425-.2462s-3.15425.2462-3.15425.2462c0,0,1.41221.2462,3.15425.2462ZM31.19901,14.60386c1.65352-.54827,2.91647-1.22642,2.91647-1.22642,0,0-1.41793.21077-3.07145.75903s-2.91647,1.22642-2.91647,1.22642c0,0,1.41793-.21077,3.07145-.75903ZM34.11548,13.37744s-1.26295-.67815-2.91647-1.22642-3.07145-.75903-3.07145-.75903c0,0,1.26295.67815,2.91647,1.22642s3.07145.75903,3.07145.75903ZM43.82419,13.37744s-1.41221-.2462-3.15425-.2462-3.15425.2462-3.15425.2462c0,0,1.41221.2462,3.15425.2462s3.15425-.2462,3.15425-.2462ZM43.50361,15.36289s-1.26295-.67815-2.91647-1.22642-3.07145-.75903-3.07145-.75903c0,0,1.26295.67815,2.91647,1.22642s3.07145.75903,3.07145.75903ZM40.58714,12.61841c1.65352-.54827,2.91647-1.22642,2.91647-1.22642,0,0-1.41793.21077-3.07145.75903s-2.91647,1.22642-2.91647,1.22642c0,0,1.41793-.21077,3.07145-.75903ZM32.55713,16.98408c1.23181-1.23181,2.0563-2.40448,2.0563-2.40448,0,0-1.17267.82449-2.40448,2.0563s-2.0563,2.40448-2.0563,2.40448c0,0,1.17267-.82449,2.40448-2.0563ZM33.41838,17.50906c.78153-1.5569,1.19505-2.92947,1.19505-2.92947,0,0-.85359,1.15166-1.63512,2.70856-.78153,1.5569-1.19505,2.92947-1.19505,2.92947,0,0,.85359-1.15166,1.63512-2.70856ZM34.61343,14.5796s-1.37257.41352-2.92947,1.19505-2.70856,1.63512-2.70856,1.63512c0,0,1.37257-.41352,2.92947-1.19505s2.70856-1.63512,2.70856-1.63512ZM41.47853,7.7145s-1.17267.82449-2.40448,2.0563-2.0563,2.40448-2.0563,2.40448c0,0,1.17267-.82449,2.40448-2.0563s2.0563-2.40448,2.0563-2.40448ZM42.65577,9.34511s-1.37257.41352-2.92947,1.19505-2.70856,1.63512-2.70856,1.63512c0,0,1.37257-.41352,2.92947-1.19505s2.70856-1.63512,2.70856-1.63512ZM38.65287,9.46673c.78153-1.5569,1.19505-2.92947,1.19505-2.92947,0,0-.85359,1.15166-1.63512,2.70856s-1.19505,2.92947-1.19505,2.92947c0,0,.85359-1.15166,1.63512-2.70856ZM35.81559,30.8771c0,1.74204.2462,3.15425.2462,3.15425,0,0,.2462-1.41221.2462-3.15425s-.2462-3.15425-.2462-3.15425c0,0-.2462,1.41221-.2462,3.15425ZM34.83537,31.11488c.54827,1.65352,1.22642,2.91647,1.22642,2.91647,0,0-.21077-1.41793-.75903-3.07145s-1.22642-2.91647-1.22642-2.91647c0,0,.21077,1.41793.75903,3.07145ZM36.06179,34.03135s.67815-1.26295,1.22642-2.91647.75903-3.07145.75903-3.07145c0,0-.67815,1.26295-1.22642,2.91647s-.75903,3.07145-.75903,3.07145ZM36.06179,43.74006s.2462-1.41221.2462-3.15425-.2462-3.15425-.2462-3.15425c0,0-.2462,1.41221-.2462,3.15425s.2462,3.15425.2462,3.15425ZM34.07634,43.41948s.67815-1.26295,1.22642-2.91647.75903-3.07145.75903-3.07145c0,0-.67815,1.26295-1.22642,2.91647s-.75903,3.07145-.75903,3.07145ZM36.82082,40.50301c.54827,1.65352,1.22642,2.91647,1.22642,2.91647,0,0-.21077-1.41793-.75903-3.07145s-1.22642-2.91647-1.22642-2.91647c0,0,.21077,1.41793.75903,3.07145ZM32.45515,32.473c1.23181,1.23181,2.40448,2.0563,2.40448,2.0563,0,0-.82449-1.17267-2.0563-2.40448s-2.40448-2.0563-2.40448-2.0563c0,0,.82449,1.17267,2.0563,2.40448ZM31.93017,33.33425c1.5569.78153,2.92947,1.19505,2.92947,1.19505,0,0-1.15166-.85359-2.70856-1.63512s-2.92947-1.19505-2.92947-1.19505c0,0,1.15166.85359,2.70856,1.63512ZM34.85964,34.5293s-.41352-1.37257-1.19505-2.92947-1.63512-2.70856-1.63512-2.70856c0,0,.41352,1.37257,1.19505,2.92947s1.63512,2.70856,1.63512,2.70856ZM41.72473,41.39439s-.82449-1.17267-2.0563-2.40448-2.40448-2.0563-2.40448-2.0563c0,0,.82449,1.17267,2.0563,2.40448s2.40448,2.0563,2.40448,2.0563ZM40.09412,42.57163s-.41352-1.37257-1.19505-2.92947-1.63512-2.70856-1.63512-2.70856c0,0,.41352,1.37257,1.19505,2.92947s1.63512,2.70856,1.63512,2.70856ZM39.9725,38.56873c1.5569.78153,2.92947,1.19505,2.92947,1.19505,0,0-1.15166-.85359-2.70856-1.63512s-2.92947-1.19505-2.92947-1.19505c0,0,1.15166.85359,2.70856,1.63512ZM31.20744,35.97766c1.74204,0,3.15425-.2462,3.15425-.2462,0,0-1.41221-.2462-3.15425-.2462s-3.15425.2462-3.15425.2462c0,0,1.41221.2462,3.15425.2462ZM31.44521,36.95787c1.65352-.54827,2.91647-1.22642,2.91647-1.22642,0,0-1.41793.21077-3.07145.75903s-2.91647,1.22642-2.91647,1.22642c0,0,1.41793-.21077,3.07145-.75903ZM34.36169,35.73145s-1.26295-.67815-2.91647-1.22642-3.07145-.75903-3.07145-.75903c0,0,1.26295.67815,2.91647,1.22642s3.07145.75903,3.07145.75903ZM44.0704,35.73145s-1.41221-.2462-3.15425-.2462-3.15425.2462-3.15425.2462c0,0,1.41221.2462,3.15425.2462s3.15425-.2462,3.15425-.2462ZM43.74981,37.7169s-1.26295-.67815-2.91647-1.22642-3.07145-.75903-3.07145-.75903c0,0,1.26295.67815,2.91647,1.22642s3.07145.75903,3.07145.75903ZM40.83334,34.97242c1.65352-.54827,2.91647-1.22642,2.91647-1.22642,0,0-1.41793.21077-3.07145.75903s-2.91647,1.22642-2.91647,1.22642c0,0,1.41793-.21077,3.07145-.75903ZM32.80334,39.33809c1.23181-1.23181,2.0563-2.40448,2.0563-2.40448,0,0-1.17267.82449-2.40448,2.0563s-2.0563,2.40448-2.0563,2.40448c0,0,1.17267-.82449,2.40448-2.0563ZM33.66459,39.86308c.78153-1.5569,1.19505-2.92947,1.19505-2.92947,0,0-.85359,1.15166-1.63512,2.70856s-1.19505,2.92947-1.19505,2.92947c0,0,.85359-1.15166,1.63512-2.70856ZM34.85964,36.93361s-1.37257.41352-2.92947,1.19505-2.70856,1.63512-2.70856,1.63512c0,0,1.37257-.41352,2.92947-1.19505s2.70856-1.63512,2.70856-1.63512ZM41.72473,30.06852s-1.17267.82449-2.40448,2.0563-2.0563,2.40448-2.0563,2.40448c0,0,1.17267-.82449,2.40448-2.0563s2.0563-2.40448,2.0563-2.40448ZM42.90197,31.69913s-1.37257.41352-2.92947,1.19505-2.70856,1.63512-2.70856,1.63512c0,0,1.37257-.41352,2.92947-1.19505s2.70856-1.63512,2.70856-1.63512ZM38.89907,31.82074c.78153-1.5569,1.19505-2.92947,1.19505-2.92947,0,0-.85359,1.15166-1.63512,2.70856s-1.19505,2.92947-1.19505,2.92947c0,0,.85359-1.15166,1.63512-2.70856Z"/>
      </g>
    </g>
  </g>
</svg>